<svg id="Livello_1" data-name="Livello 1" xmlns="http://www.w3.org/2000/svg" viewBox="0 0 601 401"><defs><style>.cls-1{fill:#1e275a;}.cls-2,.cls-34,.cls-4{fill:#facda5;}.cls-2,.cls-29,.cls-34{stroke:#f207a1;}.cls-2,.cls-29,.cls-32,.cls-34,.cls-8,.cls-9{stroke-miterlimit:10;}.cls-3{fill:#99cc8d;}.cls-5{fill:#e6f9a5;}.cls-6{fill:#f6f6cd;}.cls-29,.cls-32,.cls-7,.cls-8,.cls-9{fill:none;}.cls-7{stroke:#c0fff3;stroke-linecap:round;}.cls-34,.cls-7{stroke-width:2px;}.cls-32,.cls-8{stroke:#fff;}.cls-29,.cls-8{stroke-width:0.75px;}.cls-9{stroke:#0785f3;stroke-dasharray:3.24 3.24;}.cls-10,.cls-11,.cls-25{fill:#f10cb6;}.cls-11,.cls-25,.cls-30{isolation:isolate;}.cls-11,.cls-30{font-size:8px;font-family:AlegreyaSans-Regular, Alegreya Sans;}.cls-12{letter-spacing:-0.02em;}.cls-13{letter-spacing:-0.01em;}.cls-14{letter-spacing:-0.01em;}.cls-15{letter-spacing:-0.01em;}.cls-16{letter-spacing:-0.03em;}.cls-17{letter-spacing:0em;}.cls-18{letter-spacing:-0.02em;}.cls-19{letter-spacing:-0.01em;}.cls-20{letter-spacing:0em;}.cls-21{letter-spacing:-0.01em;}.cls-22{letter-spacing:-0.02em;}.cls-23{letter-spacing:-0.01em;}.cls-24{letter-spacing:-0.01em;}.cls-25{font-size:12px;font-family:AlegreyaSans-Bold, Alegreya Sans;font-weight:700;}.cls-26{letter-spacing:-0.01em;}.cls-27{letter-spacing:-0.01em;}.cls-28{letter-spacing:-0.01em;}.cls-30,.cls-33{fill:#f207a1;}.cls-31{fill:#fff;}.cls-32{stroke-width:0.5px;}.cls-35{fill:#0785f3;}</style></defs><g id="Map"><g id="Water"><rect class="cls-1" x="0.5" width="600" height="400"/></g><polygon class="cls-2" points="569 163.3 516.2 144.2 495 132.4 492.6 132.7 483.9 127.5 479.7 124.7 477.6 124.4 451.6 110.2 428.3 101.5 387.7 81.4 332.9 62.6 303.8 57.1 279.2 46.3 252.1 31.4 240 31 226.5 21.3 224.4 16.1 218.5 17.8 215.7 14.7 206 14.7 221.3 87.9 216.8 89.3 217.8 94.5 222.3 93.5 226.8 104.3 223.3 111.2 219.5 116.1 204.6 128.3 200.4 131.1 161.5 141.4 128.5 145.2 106.6 146.2 96.9 145.5 79.2 140.6 70.9 140.6 68.5 151.5 73.7 162.9 70.9 174 56.7 186.8 38.7 194.8 28.3 196.2 28.3 199.7 20.3 212.9 13.4 213.9 7.8 219.1 2.9 241.3 0.5 243.8 0.5 400 600.5 400 600.5 175.7 569 163.3"/><g id="Nationalpark"><path class="cls-3" d="M601,225l-7.6,1.7-37.5-3.1-4.5.3-5.2,4.9-2.4-2.4-29.1,26.4-35.1,13.5-3.5,1-1-2.8L463,270.4,449.8,282l-7.3,19.1-4.5-3.5-7.3,10.8-5.2,4.9-.7-1-2.4-7.3,1-14.9-12.5-39.6h-7.3L397,235.9l-8.3-11.1,4.9-8.3-29.2-28.8-7.3,4.9-15.3-17.3-19.4-9.7-10.1-13.2-17.7-17-5.2-1.4-10.8,3.5-8-1.1-6.2-3.1-10.8-11.8-11.1-15.6-8-21.5-2-11.4,1-13.2,6.2-11.1,3.8-1.7,3.1-5.2L232,31.7,216.7,19.9l-.7-5.2,2.8,3.1,5.9-1.7,2.1,5.2L240.3,31l12.1.3,27.1,14.9L304.1,57l29.1,5.5L388,81.3l40.6,20.1,23.3,8.7,26,14.2,2.1.3,4.2,2.8,8.7,5.2,2.4-.3,21.2,11.8,52.8,19.1,31.5,12.4V225M212.7,252.5l.7,5.5-8.7,3.1-2.1-4.5,2.1-4.2,3.5,1.4Z" transform="translate(-0.5)"/></g><g id="Residential"><path class="cls-4" d="M143.6,396.5l-.3,1.7-1.7-.7-6.2-5.2,2.4-3.5,6.2,3.5,4.2-.7,3.1,5.6-.7,2.4-7-3.1m-7.3,3.5.4-.7,1.3.7h-1.7M29.8,393.4l3.8,1.4.7,3.1-10.1-2.1-1.7-2.4,1.7-1.7h7.3l-1.7,1.7M49.9,215.7l1.4-5.6.7,2.4-2.1,3.2m55.2-5.9-1.7.3-.3-1.7,2.1-.7v2.1m-7.7.3-2.4-3.8-2.1,1,3.1-1.7,1.4,4.5m-4.2,2.8,3.1-2.4,1.4,1.4-4.5,1m28.5-6.9,2.8-1-4.2,4.9,1.4-3.9M377.2,366.7l-2.4-4.2,5.2-3.1,3.5,5.2-6.3,2.1m-120.8-9.1,1.7,2.1-.4,4.9-2.4-1,1.1-6m3.1,9.8-1-9.7h2.1l-1.1,9.7m84-26.4,2.1,2.8-2.8.4.7-3.2M175,400l-3.6-3.5,7.6-5.2,5.6,4.9,3.8-3.8-6.2-4.2,1.7-5.2,3.1-1.4,1,2.8,2.4-2.8,3.5,3.8,2.8,8.7-.3,4.9-1.1,1.1H175m75.9-12.6-.3,2.1-2.1-2.8,2.4.7m-2.1-1.1v-2.1l2.1.7v2.1l-2.1-.7m90.6-19,1.4-.4.7,2.8-2.1-2.4m.7,2.7-2.1-2.4,1.4-.4.7,2.8M312,363.5l3.8,7.3h-2.1l1,3.8h-2.4l-4.5-6.2,4.2-4.9m72.8,9.7-.4-2.1,1.7-1.7,1.7,1.7-3,2.1M347.7,400v-1.8l1,1.8h-1m5,0-.2-.4,2.1-1,.5,1.4h-2.4m.9-9.4-.3-1.4,2.8-2.4.7,1.4-3.2,2.4M179,186.5l-.3,5.9-3.1-1.7,4.9-6.6,2.4,1-3.9,1.4m2.8,7.7-2.4-.4.7-6.9h2.4v2.4l-.7,4.9m2.8.7,2.8-4.2-3.5-5.2,6.2,4.2-.7,1.4,2.4-1.7,1.1,1.4,1.7.7,1-3.5,1.4,1-2.1,4.2-2.4-.7v.4l-2.8.3-.7-1.4-1.4,2.8-3,.3m12.1-10.8,1-2.8,2.8,3.1,3.1.3-1.1,1,3.5,3.5-5.2-2.4,1-1.7-1.7,1-3.4-2m1.1,5.2-1.4-4.2,5.9,2.8-2.1,2.8-2.4-1.4m46.8,15.3,1.4-3.5,4.2,2.8-.7,1.7,3.1,2.1-.3,1.7-7.7-4.8m2.5,16.6,1.7,1-2.4,2.1.7-3.1M246,282.7l.7-3.5,1.7,2.4-2.4,1.1m-.3-20.5-.7-4.5,4.2,2.4-3.5,2.1m3.4,22.6-3.5-.7,3.1-2.1.4,2.8m-4.5-66.7.7-1.4,2.1,1.4-1,2.4-1.8-2.4m33.7-27.4-2.1-.7,1.7-3.8,1.4,2.1-1,2.4m.7.7,2.4-3.8.4,4.2-2.8-.4m3.8-4.5,1.4-2.1,2.1.7-2.1,2.8-1.4-1.4m9,2.7-1.4-1.7,1.7-1.4-.3,3.1m-6.9-1.3,1.7-1.7.7,3.1-2.4-1.4M198.5,327.4l-3.8-.4,1.4-3.5,2.8.4V326l-.4,1.4m1.4-7.6-.7,3.5-2.4-1.4,3.1-2.1m-21.2-5.9-2.1-3.1,3.5-10.8,5.9,2.1-.7,4.2-6.6,7.6m5.9,3.1,1.4-1.4,2.8,2.4-1.4,1.7-2.8-2.7m4.5-1.4,1.7-2.1,1,1-2.7,1.1m34.3,5.6,2.8-3.8.7,3.5-3.5.3m-18.3-2.4.3-3.8,2.1-1v5.2l-2.4-.4M204,324l-4.5-.4.4-3.8,4.9-.3L204,324m.4,0,.4-4.5,2.4.3-.7,4.5-2.1-.3m22.5,1-2.4-.4.3-2.8,2.4,1-.3,2.2m-23.2,14.6-3.1-1.7,1.4-3.1,4.5,2.4-2.8,2.4m-1.1-8,.4-3.5,3.1.4-.3,3.5-3.2-.4m8.7-2.4-.4,3.5-4.5-.7.3-3.1,4.6.3m-4.5-.7.4-3.5,4.5.3-.3,3.8-4.6-.6m-2.1-9.7-3.8-1,4.2-2.8-.4,3.8m15.3,4.8-2.4-.4v-2.1h2.8l-.4,2.5M198.1,194.5l-3.5,3.1-2.8-1,.4-1.7,2.8.3-2.4-2.4,2.4.3,3.1,1.4m-9.7,12.1,1.7-4.5,2.8-.7-2.4,5.6-2.1-.4m36.8,38.6.4,4.2-3.1.7-.4-2.8,3.1-2.1m19.4-11.8.4-2.8,1.4,3.1-1.8-.3m-28.8,18.7v-2.8l1-1,.3,3.5-1.3.3m5.6-2.1-2.8,1-.3-3.8,2.8-1,.3,1.7V250m.7,4.9-2.8.7-.7-4.2,2.8-1,.7,4.5m20.1-19.1v-3.5l2.1-.3v3.5l-2.1.3M228.7,257l-1.7-1.7,5.2-1-3.5,2.7m-3.2-9.4-.4-2.4,2.4.4v2.1h-2m.7,5.5-.7-3.5,3.1,1.4.3-5.2,4.2.4v3.1l-6.9,3.8m7-8.4-4.5-.7,1.7-1.7-2.8-2.1,4.2-1,1,3.1.4,2.4M202.6,190l-.3,1.7-1.4-.7,1-1.4,1-1,1,1.7-1.3-.3m-1,3.8-2.1-1.4.7-1.4,3.1,1.4-1.7,1.4m-1.4,5.2,3.5-4.5,1,.7-2.1,3.5-2.4.3m39.6,13.2-1-2.4,2.8.3v1.7l-1.8.4m0-10.8,1-2.4,1,1.7-2,.7m-1.4,3.5.7-1.7,3.1.7-1,2.1-2.8-1.1m2.7-6.2.4-1.7,4.9,1.4-.7,2.1-4.6-1.8m-12.4,7.6-1.1-2.1,2.8.7-1.7,1.4m3.4.7-1.7-2.1,2.8.7-1.1,1.4m13.2,21.2-1.4.4-.3-2.1,2.1-1.7.3,1.4-.7,2m-5.9-10.1,3.1,1.7-1.7.7-1.4-2.4m-4.5-20.8,1,1.7-2.8-.7,1.8-1m5.6,18.7.7-1.4,1.7,1-.7,1.4-1.7-1m2,1.1.7-1.4,1.7,1-.7,1.4-1.7-1m-3.4,5.5-1.4-.7,1-2.4,2.1,1-1.7,2.1m54.1,82.6.7-2.1,2.8,1-.7,2.1-2.8-1M295,309l1-2.8,1.4.7-1,2.4L295,309m-42.7-33.3,5.2-2.4v2.4l-2.1-.7-4.9,2.8.3-1.4-2.8.7v-1.4h4.3m7.9,81.6h-1.7l.4-2.1h1.7l-.4,2.1m79.2-40.6,1.1-2.4,1.4.7-1,2.4-1.5-.7m-8.7-18.4.3-2.4h3.1l-1,3.1-2.4-.7m1-6.3,1.4-4.5,3.8,1.4-1.7,4.5-3.5-1.4m-29.1,40.3-2.1-1.7,1.4-2.1,2.8,1.7-2.1,2.1m-34-137.4,4.5-1.7-2.1,2.4-2.4-.7m-19.1,39.2-1.4-2.8,3.5.4-2.1,2.4m3.1,23.2.7-2.4,1,2.8-1.7-.4m37.5-2.7,2.1-3.1.3,2.4-2.4.7m4.5,0-1.7-.7.3-2.1,2.8.3-1.4,2.5m-2.8,9,.7-2.8,1.7.7-2.4,2.1m-38.9-41-.3-2.1,2.8,2.4-2.5-.3m6.3-16.3-1.4-2.4h1.7l-.3,2.4m-1.4-6.2,2.4-2.4,1.4,1.7-3.8.7m9.7,13.5,2.1.4-1,2.1-1.1-2.5m-19.4-12.2-1-2.8,7.3,6.2-6.3-3.4m14.6-6.2,3.5.7-1,2.4-2.5-3.1m-4.2,16-5.2-1V208l5.9,1-.7,2.2m-4.9-4.2,3.8-.7v1.4l-3.8-.7m13.9-7.6-1.7-1,1.4-2.1,2.4.7-2.1,2.4m-.7-4.9-3.1-1,2.8-2.8,2.4,1.4-2.1,2.4m17.7-3.5.3-2.4,1.4,2.1-1.7.3m-11.1,18.8,1.7-2.4-.3,2.8-1.4-.4m7.7-14.2,2.4-2.8,1.7,3.8-4.1-1m10,4.5,1-1.4,1-1,1.7,2.1-.7,2.4-3-2.1m-13.9-7,4.2-.7v2.1l-4.2-1.4m46.2,79.1,2.1-3.1,3.5,1.7-1.7,3.1-3.9-1.7M202.3,179.9l-1.7-1.4,1-1,3.5,2.4,2.1-.7-.4,2.8-4.5-2.1m-13.2,1.8v-2.1l1.7-.4.3,2.4h-2m4.5-6.9-3.1,1.7-1.7-1.4,5.2-2.8-.4,2.5m-7.3,7.7-1.4-.7-1-1.7,1.4-1.4,1,1.4v2.4m-.7,2.4,1-2.1h4.5l-2.1,1,.3,2.1,1.7-1v2.8l-5.4-2.8m12.2-4.2-1,3.5-1,2.1h-2.4l-1.4-8.3,2.8-.7,1,2.1,1-8,2.1-.7,2.8.7-4.2,5.2,2.1.7-1,2.8,3.5.3v2.1l-4.3-1.8m-3.9,1.4,1.4.4.3-2.8-1.7,2.4m105.2,4.2,2.1-2.1v2.8l-2.1-.7m125.7,126,5.9-3.8,2.4-.7,5.2-7.3,2.8.7,4.5-3.8.4-3.8,2.1-1.7-.7,6.6-17.7,19.1-6.2,12.1-2.4,1.7.4-2.4,3.1-2.1-5.2-3.5.3-1.4-3.5-.7,2.8-5.9,5.2,1.4.6-4.5m11.4,7.3,2.8-2.8,3.5,2.8-2.1,4.9-4.2-4.9m-84.3-23,.4-3.5,1-2.4,1.7.7-3.1,5.2M452.5,309l-3.8-.4.3-1.4,2.8-1.4,2.1,1.4-.4,3.8Z" transform="translate(-0.5)"/></g><g id="Wood"><path class="cls-5" d="M346,81.4l-3.5,3.1,5.9,5.9,2.8-3.8V82.8L362,79.3h7.6l.7,1.7-4.5,8v5.2l8-1L377.6,80l11.1,5.9-2.8,8-3.5.3v4.5h-5.6L374,112.2l-16.7-2.1-3.1-5.2L340,99l-12.1.3v5.9l-2.1,1.7-8-8.7h-8l2.4,10.8,6.9-.7v14.2l4.5,3.1,5.5-2.1.7,5.6.4,5.2,6.2-.4,1.4-11.8,2.4-.7,6.9,9,10.1,1.4,2.8,10.8,10.8,8,2.8-9.7,3.8-1,3.1-8.3,7.3-4.2,11.1,5.2h10.4l15.6-9-1.7-6.2,3.8-14.9,12.1,3.5,1.7,11.1,5.9-.3,7.3,7.3.3,8.7,3.8,3.5V138l10.8-2.1,5.9,4.9-.3,6.9-5.2,3.8,1.7,2.8,5.6-2.8,2.1,2.1-5.9,9.4,1,2.4,10.8-1.7,1.7-5.2,8.3-3.5,7.3-12.2-11.4-1.4,2.4-8.7,11.1,6.9-.7,2.1,11.8,14.9,10.8,6.9L544,159l13.9.7,10.1,9-.3,1.7-10.8,4.2v3.8h-6.6l-2.4,6.2,4.2,4.2,2.1,12.5-6.6,1.4,2.1,9h5.5v-8.3h4.5l.7,5.6H568l4.5-4.5,10.4,10.8,16.3,4.9-.7,4.2-43.7-3.8-14.6,8.7-28.8,26-42,14.9-26.4.7.4-26.7-13.9-1.4-5.2,5.9-13.9-6.2,1.4-21.5,3.5-3.5-5.2-11.1-12.5-2.8-6.2-13.5-9-6.9-20.8,5.6-.7-19.4-6.2-2.4,2.8-3.8-14.9-26.7-3.1.7v4.9l-20.8,2.8-3.1,7.6h-3.1l-2.8-11.1-4.5-.3-5.6-10.4-2.4-1-18,5.6-5.9-5.2,6.2-7.3-2.4-2.4-7.3,2.1L262.9,102l4.9-4.9v-8l9,.3,24-9.4,8,2.8,16.7-8,6.2,1,19.1-5.9,1.7,11.8H346m187.7,101L523.6,191l.7,3.5h3.1l11.5,10.8,4.2-3.1,2.8-7.3-3.8-6.9-8.4-5.3M480.3,215l-2.8,4.2,2.8,2.8,2.1-.7v-2.4l-2.1-3.9m-70.8-39.2,1,5.9,4.9-4.5,4.2,1.7,3.8-2.4L422,163.6l6.2.7,3.1-8.3-1.4-5.9-13.5,2.1,2.4-12.2,2.8-2.8-9.7-1.4-6.6,2.4-1.4,2.8,4.9,13.2-.7,1.4-6.2-.7-.4,5.6-6.9,3.8.7,3.1h4.2l1.4,8.3h8.6m-126-61.4.4-3.1h6.6l-3.5-5.5,2.1-2.8,11.5,5.9,1.7-.7L302,95.3l2.4-2.4-10.8-3.1-3.1,3.5-8.3-.7-6.6,6.9v13.2l1,1.7h6.9M430,130.6l-3.1,7.3v2.8l-.4,3.1,4.2,1.4,4.9-10.1,3.8,1.4-3.5,17.4,8.7-.3,1.7-2.4-2.1-15.6-4.9-1-5.5-6.9Z" transform="translate(-0.5)"/></g><g id="Sand"><path class="cls-6" d="M520.9,145.6l48.6,17.7-2.4,1.4-9-4.9-4.5-.4L538.7,157l-3.8-5.2L522.7,148l-1.8-2.4M425.5,99.8l-5.6.7L417.1,97l-3.1-.7-.4-2.1-3.5.7-4.2-4.5-2.8,1-.7-1.7L373.6,76.5,359.5,73l-6.2-.7L350.5,74l-1.4-4.5-9.4-2.1-5.2-3.8-7.6-1.7L321,64l-9.7-1.7-6.2,1,.3-4.9h-3.1l-9-5.5-6.6,1.7.7-2.4L260.3,37.6l-2.4,1-5.6-5.2-1.7-.7L243,37.2l.7-1.7-5.2.7L234,33.4l-1.7-1.7-10.1-6.9-5.9-10.1,2.8,3.1,5.9-1.7,2.1,5.2L240.6,31l12.1.3,27.1,14.9L304.4,57l29.1,5.5,54.8,18.8,37.2,18.5M228,103.9V107l-8,9,3.8-4.9,4.2-7.2m250.2,20.5h-3.5l-2.4-2.8-3.5,1.4-2.8-3.8-3.5.3v-2.4l-8.3-1.7-2.4-5.2-9-1-2.4-3.1-13.2-4.2-1.7-2.1,3.5,1.7,23.3,8.7,25.9,14.2m24.3,15.3.4-3.1,13.9,7.6,2.8,1-6.2-.4-7.6-6.6-3.3,1.5m-18.7-11.1.7-1,8.7,5.2-4.2,1.1-1.7-3.5-3.8.4.3-2.2m-3.5-3.9,4.2,2.8-4.2.3v-3.1m116.6,50.7-27.4-12.1L601,175.7v1.1Z" transform="translate(-0.5)"/></g><g id="Small-River"><path class="cls-7" d="M209.6,14.7,232.2,99l11.1,18.4,18.4,19.1,55.2,34.7L369.3,216l18.8,26.4,13.5,30.2,4.2,22.9,1,20.1-1.7,34.7M458.3,400l-7.5-7.3-21.5-13.9-13.9-16.3L405,350.3m10.4,12.2,5.2-20.5-2.8-10.8-11.1-15.6" transform="translate(-0.5)"/></g><g id="Wide-Canal"><path class="cls-1" d="M381.7,245.9l-5.6,9.7,3.1-1,.4,1.4-4.2.7-3.8,7.3-5.2.3.3-3.1L356,241l3.5,4.9,4.2-10.1,8-1.7,1.4,1.7-8,.3-3.1,6.6-.3,5.2,6.6,13.2,4.9-1.7,8-14.9.5,1.4m-27.4-8.4-4.2-7.6L355,224l-3.5,1.7,2.1-1.7-1-1.4,2.8,1,3.8-4.9-6.9,10.8,2,8M356,241l-.7-1.7,1-1.7,3.1,1-3.5,2.1v.3m43.9,76.4-4.9,1.4-6.2-1-.7-14.9,8-.7.3,12.1h4.5Z" transform="translate(-0.5)"/></g><g id="Wide-River"><path class="cls-1" d="M452.6,400l-.8-1.4-4.9-4.9-24.3-10.1-4.9-3.8-4.9-3.1-10.1-12.8-.7-1-1.1-2.1L398.5,349l1-3.8V317.4l1-3.1-2.8-36.5-3.8-11.1-12.5-20.8-.7-1.4-8-8.7-1.4-1.7-12.5-15.3-7.3-7.6-8.7-5.6-11.1-13.2-16-14.2v-2.4L288,159.4l-12.2-9.7-11.1-5.2-25.7-25L224.4,98.3,206.3,14.7H216l5.9,10.1L232,31.7l1.7,1.7-1,12.5-2.1,1.7,2.8.7L232,54.5,236.2,67l-1.7,17,2.1,11.5,3.5,6.6,13.5,19.1L265.1,132l10.1,4.9L287,148l16.7,10.4h2.1l.3-2.1-4.2-3.1,1-2.4,7.3-1,8.3,2.1,14.9,5.6,12.1,10.1,10.1,19.1,7.3,8.3v1.7l-2.4-1,8.7,4.5,6.9,6.9,11.5,16,11.8,25.3,11.8,46.5,1,15.3,3.8,11.1,8.3,18,1,20.1,4.9,10.1,31.9,29.2,3.5,1.4h-13M308.8,156.7l-1.7,3.8,2.8-.7,4.9,2.8,26.7,21.2h2.8l.7,3.1,9.4,5.2-5.5-3.5.7-4.9L335,162.9l-3.1-2.4-28.5-7.6,5.4,3.8m-.7.3-1.4-1-.4,1.7,1,1.4.8-2.1M411.6,326.7l-1,6.9.7,5.6,4.2,5.6,1-9.4Z" transform="translate(-0.5)"/></g><g id="Lake"><path class="cls-1" d="M147.4,281.3l2.4-1.7,1.4,2.1-3.8-.4M94.3,366.7l-8-.7,4.5-2.1-1.7-1.4,1.7-3.5,4.9,3.5-1.4,4.2M1,320.1l1-.7,2.8,1.4L1,322.5v-2.4m23.9-51-3.8,1-1.4-4.2,4.2-1.4.3,1.4.7,3.2M136,198l-2.4-2.8,2.1-2.8.7,1.7,1-1.4-.7,3.8,2.1-2.4L136,198M72.1,346.5,70.7,342l-3.5-.7,2.8-.7-1.4-2.8,1.4-.7,2.8,1.4-.3,3.8,1.4-.3-1.8,4.5m12.2-24.3,1.4-3.8,2.4,3.5-3.8.3M60,268.1l2.4-1.4-1.7,2.8,1.4,4.9L60,268.1M127.3,206l-5.9-3.5,1-4.9-1.7-1.7.7-2.4h2.1v2.8l3.1-.7-2.1-2.4,3.5-2.1,3.1,1.4-.4,1.7,3.8,2.8,4.2,7.6L127.3,206M144,182l-5.2-2.1,5.9-4.2.7,2.8,2.4,1L144,182m-7.3-22.9L124.9,156h10.4l3.8,1.7-2.4,1.4m-30.9-9.7-2.1-.3,2.4-1.7h-2.8l-9.4,4.9-2.8-.4-1.4-2.4,2.8-4.2,9.7,2.1,9-.7-5.4,2.7m23.2-4.2-.7,4.5-1.4-2.8,2.1-1.7m-22.9,39.9-8.3-2.4,7.6-6.9.7,1v8.3m320.7-47.2,2.8-6.6-2.1-1.4-.7-7.6H424l-4.2,5.2-13.2,5.2h-4.5l-2.1,1.7-1-1.7-7.3-3.5-1.7-1-.3-4.9-2.4-.3-1.4,3.5-3.1,1.4-8.7,10.4-2.4,5.2-2.8,1.4-4.5-4.5-3.5-.4-3.8-8.3-1.4-.7-3.1,3.1-4.2-2.8-.7-3.5-2.4-.3-5.5-10.4-5.5-3.8-1-3.5-5.2-4.5-.7-3.5,2.4-.7,9,2.1,2.1,2.8,3.1-1.7-.4,1.7,4.2.7-1,2.1,7.3,3.8.7,2.1,4.9,1,4.5-2.4-.3,4.5,3.5,3.1,2.4-2.4,3.1,2.1,2.8-.7,1.4,3.1,4.9,1.7,14.9-10.8-9.7,2.8-9.4-3.8-3.1-9,3.8-5.2,4.2-4.5,3.5-4.5,1.4,2.4,5.6,2.1,2.1-3.8,3.5,1-2.8,9,2.1.7-1,1.7,9.4-2.8,2.1.7,2.1,6.2,6.6-7.3L417,101l2.8.3,4.5-.3,1.4,8-2.1,10.1,1,2.8,2.8-.3,1.7,2.8-.7,4.2,2.1,2.1,9-6.9,8.3-1.7,1-2.1-1-2.4-3.8-.3-2.8-3.1-1.7-3.5,1.4-4.5,2.4,3.1,9,1,2.4,5.2,8.3,1.7v2.4l3.5-.3,2.8,3.8,3.5-1.4-6.6,3.5-1,2.1,2.4,2.1,3.5-4.2,2.4,2.1,5.2-2.8-.7,5.6,4.9.3,1.4-1.7-.4,2.1h1l-6.9,6.6v-2.1l-4.5,3.1-4.2-.7.3-1.7-3.1,1-1-1.4-5.6,6.9,1.1-2.4-1.1,1,.4-1.7-3.8-.7,2.4-2.4-3.8-4.2-2.4,1.4-1.4,10.4.3,1.7,2.1-.4L452,149l3.8-2.4,5.2,5.6-.4,1.7-7.3.7-4.9-11.4-2.4-.4,1,4.5-5.2,8,6.9-4.2.3,2.1-4.2,11.5-.7-2.4H442l2.4-4.9-3.8,1.7-1,8.7,3.5,5.2,6.2-5.6,18.4-8,10.4-6.9,2.8-2.8-3.8,1.7L465.6,159l-3.8-1,5.2-2.8,8-9.7-1-2.8,12.5-7.6.7-3.5-1.7-1,2.1-.4,1.7,3.5,4.2-1.1,2.1,1.7-1,1-1.7-1.7L490.1,144l12.8-4.5,3.1-1.4,7.6,6.6,7.3.4,2.1,2.8,12.2,3.8,3.8,5.2,14.9,2.4-3.1,1.7-6.2-2.1-18.1,3.8-7.6-4.5-13.2-15.6h-3.5L499,148l-10,10.4-2.1-.4-2.1,5.6-8,12.1-5.9,4.5,1-3.8h-2.4l3.1-3.8-2.1-2.4,4.9-5.9-.7-2.8,4.5-7.6-2.1-.7-14.9,10.1-10.4,14.9,2.8,10.8-2.8-1.4-4.5-7.3-2.8-2.1-1.7,1,2.4-2.4v-4.2l-2.8,1.4-3.5-5.6v-4.9l-2.4-3.8,3.5-4.9-2.4-1-1,3.8-.7-3.8,2.8-11.1-2.1-1,2.1-1.7,1.4-4.5,3.8-.4V141l2.4.7,1.7-5.2,2.4-1.4.7-9.7-1.4-2.4-6.2.3-5.6,5.2-.7,1.7,3.8-.3-3.5,1.7-5.9,9.7,1.4,5.2-2.1,5.9,1,6.2-1,3.8h-2.1l.7,9.4-3.5-9v-8.3l2.4-8.3,3.1-3.1-3.8,1-1-3.5v-2.7M453.2,123l-1.7-2.1H448l4.2,3.1-.4,7.3,10.1-3.1-7.6-4.2-1.1-1m-3.4,50-1.7,4.8.7,3.1,2.1-1-.7-3.8,1.7-3.5-2.1.4m33.3-9.4-5.6,3.1v5.5l2.8-2.4,2.8-6.2m61.1,36.1-5.2,4.2-.7-2.4h-2.1l.7-1.4-2.8,1.7-1.7-2.4-1.4.7.7-1.4-5.2-6.6,3.1-4.2,8-4.9,8,12.1-1.4,4.6M346,81.4h4.2l-.7,2.1,3.1-.4-1.4,3.5L347,89l-5.2.3,4.2-7.9M428.5,400l-.3-1.1-1.5,1.1h-.9l.9-1.1.4-8.7,3.5,3.5-.4,2.1,3.5,2.1-4.5.7.8,1.4h-1.5m-29.4-33-8-1.7,6.2,1,4.9-3.5.7,1-3.8,3.2m14.3,33,.6-.4v-3.1l-2.1-2.8v3.1l-1-3.5,4.5-7.6H413l2.1-1.7-5.9-7.3H413l4.9,3.1-1.7-.4,1,3.1,6.6,5.9v4.5l1.7-1.7,1,1-2.1,4.2-.7-1.4-1.4,2.8-2.1-1.4-3.5,1,2.2,2.5h-5.5m.9.1h0M205.1,128.2l5.9-3.5,1.7,1,3.8-1.7,4.5-6.9,3.5-.3L228,113l1.7-5.2,1.7,6.2,3.5,2.4-3.1,2.8,2.4.3.7,3.8.4-1.4,5.2,2.1,1.7,6.6,3.1,3.5-.7,5.2,4.5,1.4,1.4-3.8,5.2,1.7.7,4.5h-4.2l4.5,5.9h-5.6l-3.1,3.1-.3,7.6-2.4,1-2.8-2.4-8.7,8-6.9.4-4.9,2.4-3.1-1.4,6.9-16-1.7-1.4-2.8,5.9-3.5-1.7-.3,7.6-9.4,3.1-7.3-4.2-.4,3.5-5.5,2.4-2.8-3.1,8-3.1-3.5-1.7-4.2,1.4-6.2-3.5L180,143.4l1.7.7,1-6.6,8,.3,14.2-7.6v-2M246.4,97l-2.1.3-1-1.7,2.1-1.4-2.4-.3-1.4.7.7,3.5-2.4-.7-3.5-14.2.4-12.8,1.7-1-2.4-5.6,3.1-9.4L242,52l-2.4,3.5,1.4,1-2.1,9.4,3.8,1.4,2.8,4.9L245,82.7l1.7-3.8.7,1.7,1.4,5.6-1.4,3.5,1.7,3.1L246.4,97M180.1,359l-3.5-1,5.6-2.4v-3.1l2.8,2.1-4.9,4.4m64.5-191.2-2.1,2.4-5.5.3,4.2-4.2.7,2.8,2.8-3.8,1.4,3.8-1.5-1.3m92.3-79.5-9.4,1,3.8-2.4V83.4l2.1-2.1,2.4,5.6,3.5-3.5.4,1.4-2.8,3.5m-18.7-1,9.7-10.4,1.4,1.1-11.1,9.3M330,129.2l-1-2.4,2.4-9-3.8-2.4-3.5,3.1V122l-2.8-1-2.1-4.9V113l2.4-2.4,5.2-1,4.9,2.8-.7,3.1,4.5,3.5,1.4,9-.3,3.8-2.1,1.7-4.5-4.3M285.6,87.3l-3.8,3.5-.7-1,4.5-2.5m-18.1,1.3V90l-.4,1.4h4.5l-2.4.3-1.7,4.9V94.5l-2.4,1.4-2.4,5.6-3.8.7-1-3.1H260l-2.1-1.7-2.1,2.4-2.1-2.1-5.2-15.6,5.6-2.4-2.4,4.2,8.3-.3,7.5,5m12.9,25.7h-3.8l-1-1.7V99.4l10.1-5.6,3.8,1.4-3.1,13.5-6,5.6M276.5,89l3.8-.3-4.5,2.1,1-12.8-2.1.3V87l-4.2,1.7L265,77.9l-2.4,1.4,2.4,1.4,2.8,6.6-4.5-1.7-2.4-3.5h-3.8L255.7,80l2.4-4.2-1.7-3.5-5.2-2.4-1.7-2.1,2.4-2.1-3.8-2.8.7-11.8,3.8-3.8-.3-4.5,13.2,4.5,3.8,4.2-.7,3.8,2.8-1.4-1.1-1.4h2.4l9.4,7.6,3.5-.7-.7,2.4L304.7,67l6.2-.3-8.3,2.8-5.9-1.4.4,6.2-4.2-6.2-2.4,3.5-.4-2.8L286.6,66v4.9l-7.3-8.7-1,15.6L280,80l3.5-4.9.7-4.9.4,4.5L287,74l-1.4,5.2,3.5-1.4,1,1.7,1.7-2.1,1,3.8,2.8-2.1-3.8,3.1-2.4-1.7.7,4.2-2.1-.3V81l-3.1,5.9-4.9.7,3.1-1.4-.7-1.1L276.5,89m-2.4-28.5V59.1l-4.5-.7-1,2.4,3.1,1.4,2.4-1.7M256.4,72.3l2.1-2.1L255,64.6h-1.7l3.1,7.7m-5.5-16.6.7,3.5,1.4-2.4-2.1-1.1m47.5,47.9-4.9,2.4-2.8-2.8,2.4-10.8,7.3,1.4-2,9.8m-45.5,82.6,1.7-3.5,3.8,3.8-5.5-.3m247.9-27.1,2.1-.4-1,3.5,2.1,1.7-2.1,9.7,3.5,1-.7-1.7,2.4-1.1.7,3.8,4.5,3.5-3.8,4.5-5.2.7.3,3.1,2.8,2.8,2.8-.3,5.6,3.1,3.1,4.5-3.1-1,.3,5.6-1-2.1-6.3-.7,2.4,6.6-.7,1.4-3.5-.7.4,1.7-1.7-.7-1.4,2.1-5.2-4.5-1.4-3.8,4.9-9.4-2.4-.3,2.1-4.9-3.5-1.4,1.7-2.4-2.1-3.1,1-4.5-4.5,1.4,6.9-17.7m-23.6,61.4-1.4-3.5.3,4.2-2.4-1-4.9,3.5-1-7.6-9.7-10.8,2.1-1.7-2.1-.7-.7,1.4-1.4-3.5-11.1-8-.7-2.8-1,1-5.2-2.4,1.4-1.7,2.4,1.7,1-1.7,11.1,8.7,2.8-.4,9,6.6,3.1.4,1,4.5,3.1,1.7-2.1-.4-.4,1.7-1-2.4-4.2-1.4-1,1.4,10.8,9.4-1-5.2,4.2,3.5-1,5.5m-17.4-15.6.7,1.4,2.8-1.1-3.5-.3m-19.4,88.2-10.4,10,6.2-9,8-4.2-4.5,6.2-1.7,1.4,2.4-4.4m-40.6,52-4.5,1.4-1-2.1,4.2-5.2-1.7,5.2,3,.7m17.7-109,.7-3.1,7.6,8.7-8.3-5.6m-36.1,64.6-1.4-1.4.7-1.7,1.7,1.4-1,1.7m37.1-53.4-4.5-5.9,1-2.8,4.5,7.3-1,1.4m81.6-29.2-.3-3.1,1.7.4-6.6-3.8,7.6,2.4v3.5l-2.4.6m11.8,12.5-1.7-1,2.8-2.8-1.1,3.8m1.7-7.3-.7,3.5h-2.1l.4-2.8-4.5,5.6,1-4.2-1-1.4-1.7,2.8.7-4.9-2.4,2.1-.7-4.9H505v-2.4l-1.4-1.4,3.8,1.4,2.8-1.4,4.5,9.7-1.1-1.7m2.8-17,1-6.6,1,4.5-2,2.1m19.1,13.2-2.8-1.7,2.1-4.9-1.4.4.3-3.8.7,1,1.4-2.4,2.1,10.4-2.4,1M473,199.7l-12.5-5.2,10.1.4,7.3,4.5-4.9.3m51,39.2-4.5,7.6-9.4,5.9-3.5,1-5.2-2.8,12.8-1.7,6.6-7.6,1.7-6.6-.7-2.8-2.8.3,1.7-3.5-1-2.4,3.8,5.9.5,6.7m-41.6-20.1-2.4-.4,2.4-4.9-.7-2.8-2.8.7-.4-5.9,8.3,4.2,4.9,5.6,1.4-1-2.8-3.1,5.2,2.4,2.8,4.5-3.8-1.7,2.4,2.8-1,2.4-1.7-2.1-2.1,5.9-.7-8-2.4-1.7.3,4.5-1.4-1.7-1.4,1.7,2.1,3.1-1,4.5-2.1-7.6-3.1-1.4m-10.8,20.5-4.2-4.5,1.4-6.6h2.1l3.5,8.7-2.8,2.4M365.8,89l5.6-6.2,6.6.7-2.8,6.6-5.9,5.6-2.4.7-3.5-2.8,2.4-3.1V89m49.9,52.4-.4,6.2-5.9,3.5-2.1,4.5-3.8-1.7,2.4-6.2-2.8,1.7-2.1-2.1,6.6-8,12.1-5.2-4,7.3m-47.2,33.7-1-2.4v-2.4l1.7,3.8-.7,1m32.3.7-1.4-2.1,1.7-3.8-3.5-5.6,4.9-3.1,2.8,3.1-2.1,11.4h-2.4m117.7.4,1.7-6.6,5.2-3.8-2.1,6.6-4.8,3.8m-40.3,8.7h-2.1l3.5-9.4.7,2.8-2.1,6.6m-20.8,1.4v-2.4l3.8-4.9-.7-1.4,4.5-3.8-5.2,12.5h-2.4m7.6-14.3,1.4-8,1.7-1-3.1,9m14.6,16,1.7-8,2.1-1.4-3.8,9.4m12.5-13.5-.4-4.2-2.4,1.7,4.2-7.3,1,1.7-2.4,8.1M601,176.9v39.4m0,0-6.9,3.6L584,214.3,568.5,198l6.2-12.8,10.8-12.1-1.7-1.1,1.4-1.4-1.4-.7-3.8,3.8-1.7,4.2-1-4.8,2.4-2.8-2.4.3v-2.1l-3.1-.3-1-3.1h-2.8l-7.6,10.8,1.4,5.6.3,10.8-4.5.3-.7-1.7-2.1,2.4-2.8-1.4v-2.8h-2.1l-2.1-2.1.4-1.4-1.4.4-.4-4.2,3.1-3.1,5.2-3.8,7.6-3.5,5.5-6.6h-3.1l2.4-1.4,27.4,12.1,4.1,1.4m-38.1,32.2-1.4-1.4,1.4-2.1,1.4,1.4-1.4,2.1m-2.8-2.8-1.4,1.7-1-4.5,4.9-8,2.1-1.7.7,1v9l-2.8.3-.7-2.1-1.8,4.3m-14.2,5.9.7-4.2h-2.1l8-8.7.4,4.2-1.7,2.4,1.7,3.1-7,3.2m19.8-27.1-1.7-3.8,3.8-2.8.3,2.1Z" transform="translate(-0.5)"/></g><g id="Main-Construction"><path class="cls-8" d="M346.7,389.2H345l-.7.3-1.7,1h-1.1l-.4-.3-.3-1.7v-.3l.3-2.4m-1,.6.7,1.7m-39.6-60.3-.7,1m-7.3,7.7-1.7,1.4" transform="translate(-0.5)"/></g><g id="Main"><path class="cls-8" d="M217.2,278.5l-2.4,1m-37.9-86-4.5-.7-3.5-1.4m48.3,87.1,25.3-8,1.7-.3M297.4,282l-3.8-1.7-2.1-1-2.8-1.4m5.2,20.7,5.5.4h5.9l8.7.7,2.4.3m53.5,40.3,1.4,2.8.7,1.1,1,1.4,1.4,1.4,1.4,1.7v.7l.7,1,.7,2.4m-96.5-91.7.3,5.9-1.7,3.1m-52-69.7,5.9.4H237l1.4.4m26,3.4-1.7.7M312,269.5l1.7-.7-1.4.7m54.2,15.6,1,.7M242.9,204.2l1,1m106.9,39.3v1.4m-6.6,30.5,2.4.7,2.4.7,4.5,1.7,5.9,2.4,3.5,1.7m-21.8,18.2-4.2,3.5-1.4,1-.4.3-2.8,1.4-.7.4-.7.3-.7.4-1.7.7-1.7,1m-82.5-40.6,2.1-.4h1.7l2.4-.4,1-.3,1-1.4,2.4-3.5,1.7-1.7,1-.7,1.7.4.7,1,.7.7.4.7.7.7,1.4.7,2.4-.3h1.7l1.7-.4,1.4-.4,1.7-.7,1.7-1.4,2.4-1.4,4.2-.3,3.5,1,3.1.7,3.5,1h1.4l3.1.7,1.7.7,1.7.4,3.1,1,2.4.7,2.8.3M251.6,351l2.1.3,1.4-.3,2.1-.7h1.4l2.4-.7h.4l3.1-.7,1.1-.4,1.4-.3,1.4-.4,2.1-.7,2.8-1.4m10.2-3,2.8-1,1.4-.7,1.4-.7,3.5-3.1.7-.7,2.1-2.4,3.1-2.8,1-1.4,1-1,1-1,1-1,1.4-1.7,1.4-1m31.3-49.9,2.8.7M99.2,336.1,77.7,346.9l-5.5,2.8m279-108.3,1.4,1-1.7,3.5-2.1.4-5.9,2.1-3.1,1h-3.2l-2.8-.3-2.1-2.1-4.5-3.8-1.4-.7-2.4-1.4-3.5-1.4-1.4-.7-2.1-.7-1.4-.7-1.4-1-1.4-1.4-2.1-2.8-1-1.7-1-1.4-.7-1-.7-.7-4.9-1.4-1.4-.7-5.9-1.7-4.5-2.1-2.1,3.5-4.9,8L277.8,246l-1.7,2.1-2.1,2.1-1.4.3-1,1-.3,1v5.2l.7,1.4.7,1,1.4,2.8m3.8-17,3.1-.7,6.6,1.7,4.9-8.3,5.9-9.7,2.1-3.5m47.9,70.1-3.5,4.9-3.8,1.4M227.3,200.4h-4.9l-1.4.4-1.4-.4-8-1.7-1.7-.3-12.5,1.4-3.8-2.1-5.2-1.7h-.7l-.7-.3-2.4-.4h-.4l-1.4-.3-5.9-1.4m62.9,8.9,2.1,1,1.1.7,9.4,5.6,1.7.7,2.8.4,1.4.3,1,.3,6.9,3.5,5.9,2.8h.4l.7.4,3.5,1.7,11.5,5.2,3.5,1.4,6.9,2.4,4.9,3.5,2.1.7,3.8-2.4m-66.5-26.5-1.4-1.4-1.7-.7M312,269.5l-4.9-1.7M27.1,400l1.6-7.7,14.2-4.5,3.5,3.1,2.8-1.7,9.7-19.4,5.9-1.7,3.8-5.6-.3-8.7,3.8-4.2m264.5-75.3-18.8-6.9-4.2,1.4M182.8,194.9l-10.4-2.1m117.7,28.8-7.6-3.5-3.8-5.2L263.8,206l-1-.7-2.1-1.4h-.4l-1-.4H255l-12.5-7.6-1.4-1-3.1-2.4-3.5-1.7-5.2,1.4-11.5-.3-6.6-.7m3.6,88.3-14.2,6.9-11.1,5.5-18.4,9-35.4,17.4-11.5,5.6-1,.7-2.4,1M241.1,194.9l-1.4-1-5.2-3.1-8.3,2.4-8.3-1.4-6.2-1m21.5,10,3.8.7,1,.3-1-1m54.5,25.6,3.1-2.8m81.2,18.8,1.7,3.1-3.8,7.3.7,3.5-.4-2.8,4.2-8.3-2.4-2.8-3.5-3.8-1.4-1.7m-75.6,27.7.7-1.4.4-.7.3-.3,2.1-4.2,2.1-3.1.7-1.7,2.1-3.5,1.7-3.5,2.1-3.1,1.7-3.1,1-1,1.7-1,1.7-1.4,3.1-2.4,4.9-3.5,2.8-2.1,2.4-1.7L332,220h.3l2.4-.3h.4l.4-.3.3-.7,10.1-10.1L358.4,220l12.1,14.9M209.9,198.3l-13.5,1-2.8-1.7m76.7,149.6-3.5,1-5.5,1.4L255,351m28.5-8.3-4.5,1.4-5.9,1.7m9.4-123.2-5.9-2.8M99.2,336.1l9.7-4.5,8-3.8.7-.3,1.7-.7M346,208.4l-3.1-1-12.5-14.6-3.5-3.8-1,.7-5.2,4.2m-57,12.1-3.1-2.1m-5.6-.4-8.3-5.6-4.2-2.1m73.6-15.9,10.8,9m40.6,96.9v2.4l1,5.5-1.4,10.8-.4,2.8.4,4.2.3,1.7v.3l.7,6.2.4,1.4v.4l.4,1.7v.4l1,9.4v3.8l-.7,1.7m8,14.3,1.4,3.8,10.1,16.7,1.7,18.4.3,4.9-1.3,3.5m-58.7-86.9-3.8-2.4L316.5,300m22.9-25,3.5,1,1.4.4m-51.4,118,.7,3.8V400m55.2-153.8-3.1,1-2.8,1m23.6,36.9-3.5-1.4m-10.4-41.3-1.7,2.1M375.5,258l1,1.7-1-2.1M346.7,389.2l.4.3,1.7,2.8.7,1,.4.7,2.8,5.9M263.4,266l4.2-.3m-23.3-28.8.3,5.2-3.8,10.1M305.4,324l5.2-4.5,16.3-8.7m-82.3-73.9v5.2l-2.4,3.8-2.8-.3-2.1-3.1m56.6,56.1,3.5-16.7m-4.2,54.6,5.2-5.2m-38.2-68.1,1.7,2.1m17.4,4.9V274l2.4,1.7,4.9,3.1,2.1-1m-19.4-12.5,3.1-1m24.6,1,7.3,2.1m66.3,70.8-.7-1.4" transform="translate(-0.5)"/></g><g id="Throughway"><path class="cls-8" d="M318.5,368.7v-6.6m0,37.5v.4m-.3-2.1.3-1.4m48-131.9,3.8.4,6.2-5.2-.4,1.7,2.1,13.2.3,4.9m8.8,49.2-.7-1-3.1-8.7L379,307v-1.4l-1-1.7v-.3l-.4-6.2,1-3.5.4-5.5v-1.7m-46.9,23.4-1.4,3.1-3.1,6.9L320,333.6l-.4.4-2.4,3.5,1.4,24.6v13.5m-.1,18.5v2.4l.4,3.5h0m15.3-94.1,1.7-5.6,6.9-24.3,2.4-7.6,2.1-7.6,2.1-5.2,1.4-4.5.3-3.5v-.4m-15.2,53.2-2.1,5.6m52.8,21.8.3,2.8m-8-49.3.7,2.8-.4-2.8m-.3-1.8v-3.1l-.7-1.7m-2-13.2-5.9,3.5m-27.5,11.1L339,289.6M318.9,390.3v-1.7l-.4-10.1v-9.7m0,27.7.4-2.4m-.4-15.6v11.8m-.3,7.6.3,1.7m20.5-110-.7,2.4-.7,2.4-.7,2.4-1,3.5M379.6,284l-.7,2.4m-60.4,89.3v2.8" transform="translate(-0.5)"/><path class="cls-8" d="M256.4,221.9l-1.7-1m87.8,38.2L332.1,256l-6.2-1.7-1.4-.3-7.3-2.1-1.4-.3-1.4-.3-8.3-4.9h-.7l-.3-1-6.2-2.8L296,241l-1.4-1-2.1-1.4-9.4-5.6-1-.7-1.4-.3-9.7-3.1-1.7-1-1.7-.7L256.5,222m-14.3-7.4,5.6,3.1,1.7.7,5.2,2.4-6.9-3.1-1-1.4-3.5-1.7-3.1-1.7-3.8-1.7,3.8,2.1,2,1.3m121.1,49.3-6.9-1-6.9-1.7-2.1-.3-2.1-.7m2.1.6-2.1-1" transform="translate(-0.5)"/></g><g id="Highway"><path class="cls-8" d="M243.6,261.1l-.7-2.4m6.2,86.1V343m-5.2-77.7v1.4m4.9,85v-3.8m-4.9-75v8M242.2,317l-.7-2.4-1-3.1-1.1-3.1V307l-.3-3.5.7-2.1.4-1.7v-.4l.4-1,1.4-5.2.4-1.4,1.4-4.9m1.5,42.4.7,1.4.4,1m-3.2-11.1.7,3.1.3.7v.7l.7,1.7m4.2,14.6V343m-5.2-77.7-.3-4.2M156.4,400l-1.7-1.4-2.4-3.5-.4-.7-.3-.7v-.4l-.7-1-9-3.8-1-.7-3.1-.3-6.2-2.8-6.9-5.9-3.8-3.1-1.4-1.7-.7-1.1-.3-3.8v-.4l5.2-14.2-.7-11.1M215.5,173l4.9-1.1m25.3-8.6,7.3-4.2,3.1-1.7M123.1,342l-1-10.4-.7-2.1-.7-2.1-1-2.8-1.4-3.1-2.1-5.2-.7-1.4-1.7-4.5-1.4-4.9v-1.7l1-2.8L129,288.2l3.1-5.6,3.5-25.7L147,238.2l9.4-14.9m4.2-25.7.3-1.4,8-4.9,4.2-6.2,1.4-2.1,2.1-1h3.1l2.1-1.4,5.2-3.8,4.9.3-4.5-.7-5.6,4.2m50.7,46.9,4.9,14.9,1,4.2,3.8,9.7,1.4,7,.3,3.5m-4.1,43.3,2.1,8.7.7,2.1,1.7,5.9M163.1,211.9V208l-.7-2.1.4,2.1.3,3.9m-41,119.7.3,10.4m-4.1-20.5,1,3.1,1.1,2.8,1,2.1m35.8-107.2,5.6-9,.3-1.4M115.5,313.5l-1-2.4m-1.1-10L129,288.6l3.1-5.9m28.5-82.6.7,1.7.7,2.1-.4-1.7-.7-5.9,5.9-4.2m65.3,33.3v-2.8l1.7-7.3,1.4-3.8.7-1.4,1.7-4.5.7-2.1-.3-1.7m-43.4-26.7,1-2.4.7-1.7h.7l.7-.3,5.6,1,5.5,1,3.8.4m28.2,23.1-1,2.4-.7,1.4-.7,1-.7,2.8L237,206l-1.4,3.5-.7,1.7-1.7,3.8-2.1,9.7m-68.4-11.5-6.2,9.4-9,14.2m108.2-72.1-1.7,1-.7,1.4-10.1,23.6-1.4,3.1m-72.5-4.5,3.8-4.2,3.5-3.1m58.6-14.2-17,4.5m28.2,159.3,1,4.5,1.7,5.2m-6.2-82.6-2.1-6.6-2.4-5.5-2.1-5.9-1-3.1-4.2-11.1m12.1,59.3-1,5.9m-.4,1.4L239,303.5v3.1m.8-105.8,1.4-3.5.4-1.4m10-25,1.4-2.1.4-1.7M131.5,384.7l5.9,3.1,2.4.7h2.1m107.2-43.7-2.4-9.4-.7-1.7-.7-4.5m17.4-174.3,2.1-1.4h1l2.4.3h.4l2.4.7,2.1.4,5.6,1.4,2.4.7,4.2,2.4.3.4,14.2,10.1,2.1,1.7L304,174l5.2,6.2,1,1.1,2.4,3.1,1.7,1.4,6.2,8,.7,1,2.1,3.1,2.1,2.1,4.9,6.9,3.8,7.3,1.7,4.2,1.4,1.7,1,1.7,9.4,8.3,1.7,5.6.7,2.1,1,3.5,1.4,1,1.4,1.4,3.5,5.9v.3l.3,2.8v1.8l4.2,4.5-4.2-5.9m-8.2-17.3-1.4-5.6-9.7-8.3M168.6,190.7l.4.7m68-24.3,4.5-3.5m12.5-5.2,5.9-3.1m-17.7,39.2,1-3.8m.7,90.2-.3,2.1M254,165.7l8.3-8.3m87.8,80.5.7,1.4M242.5,319.1l-.3-2.1M254,158.4l-1,.7-1.4.7-4.5,2.8-1.4.7-4.2.3-2.1,1.1-2.4,2.4-1.7.7-7.3,2.1-7.6,2.1m-2.2.3-2.8.7H211l-2.1-.4-3.5-.7-2.1-.3-1.4-.7-2.4-.7-1.7.3-1.4.3m-1.8,4.3-.7,1-2.1,1m63.9-12.4.3-.4,4.5-4.9,1-1,.7-1,.4-2.4-2.8.3-3.8,2.1m-12.8,33.3,8.3-19.8m-136,142.6v1.4" transform="translate(-0.5)"/><path class="cls-8" d="M247.7,363.2l.3-4.9.4-1.7.3-2.8v-2.1m-1.3,15.7v1.4M261.3,383l-4.5-2.1-1.4-.4-3.1-2.4-1-1-2.4-3.1m22.5,14.2,3.8,1.7,4.9,2.4m36.4,0h-2.1M261.3,383l2.8,1.4,4.9,2.1M251.6,351l-2.8.7m-47.6,12.2,2.4-1,1.4-.4,1.7-.7,3.8-1,2.8-.4,16.3-7.3,2.1-.7,11.1-1.7,2.8-.4,3.1,1.4-.7,6.6-1,9,1.7,6.6M165.9,400l.6-.4,9.4-6.2,1-.7,1.7-1.4,1-1,1.4-1.7.3-1.4,2.8-6.6.4-.7,1.7-1.7L199.4,365m69.5,21.4,14.9,6.9h10.1l13.5-.7,2.4-.4,1.7-.4h6.2l1.7-.3,2.4.3,4.2-.7h.4l3.1-.7,5.9-2.1,4.5-2.1,1-.7,9-9.4,1.4-1.4,1.4-.7,2.4-2.4.7-1v-.4l.4-2.4.7-2.8,4.5-10.4,4.5-11.1,1.4-3.8,2.4.4,3.5-1,1.4-.3,1-.4,1.7-.7,1.4-.4,2.8-1.4,1.7-1M247.4,367.4l.3-4.2m-82,36.8,11.3-7.3,4.2-4.2,1-.7.3-.7,1.7-6.6m132.3,11.8h2.8l2.8-.4m-50.7-3.7-7.3-3.5-2.8-1.7-9-5.2-4.9-9m102.7,7.6-14.6,12.1-4.5,1.4-1.4.7m45.2-51.7-4.2-.7-1.4.3-3.1,5.2m-9,21.6-1,2.1-.3,2.8-.4,1.7-1.4,1-1,1.4m16.2-35.8.7,1.7.7-2.1m54.2-9.6,1-2.4,7.6-12.5,4.5-4.2,8-7.6,6.2-16.7,14.6-13.9,47.9-18.4,27.8-25,12.8-7.3,33.3,4.5,12.4-1.9M425.8,326l-1.4,2.1M242.9,350.7l2.8,1h3.1m2.8-.7h-2.1m-44.4,11.5-6.2,2.4-12.5,13.2m22.5-16.6,4.5-.7,16.3-7.6m61.8,40.9h4.2l7.3-1,4.9.4,6.6-1m-26.1,1.9-8.3-2.1m-80.6-27.4.4-.4,1.4-.7m5.5-2,2.1-.3m79.5,32.9,3.1-.3" transform="translate(-0.5)"/><path class="cls-8" d="M213.4,199.7l-1-.4-2.1-.3h-2.8l-2.4.3M1,301l4.5-.3,4.5-1,9.7-6.9,4.5-14.6v-1.4l2.8-9.4-2.8-16,.4-4.5,5.6-7.3L58,233.7l15.6-9,9-4.9,1.1-1.4,2.4-1.4,7.6-3.5,26.4-3.5h.7l27.1-3.1,8.3-1.4-8.3,1-3.9.5-23.3,3.1m-34.7,7-4.2,2.4-1.4.7-6.9,4.5-15.6,9.4-26.7,5.5-6.6,10.1.7,1.7-.4.7.4,1,2.1,14.2-1.7,8.3-.7,2.8L20.8,292l-7.6,6.2-7.3,3.1H3.8l-2.8.3m156.5-96h1.7l2.4-.4,1.7-.3,2.1-.3,18-2.1,12.1-1.4,1.4-.4,3.8-.7,4.2-.7,4.5-.3,3.8.7,12.5,5.5.7.4,1.4.7,2.1,1,1.4,1,3.8,1.7m-34.2-9.9-4.2.3-1,.7h-1.4l-10.8,1.4-18.4,2.1H163l-2.1.3-3.5.3m56-5.5,18,9,3.5,1.7" transform="translate(-0.5)"/><path class="cls-8" d="M361.2,387.8l.7,1.7,4,10.4m-4-140.8,1.1,1.4.3,3.5,1,1,1.1,1.7,1,3.8.3,3.5-.7,3.5-3.1,6.2-1.4,2.1-4.5,9L351.1,308l-2.8,6.6v.4l-1.4,3.8-3.1,9,3.1,16.3,4.5,13.9,1.4,5.2.7,1,.4,2.4,1,1.7m-2-5.1-1-5.2L347,344.1l-2.8-17,2.8-8.3m13.9,69,1,2.1,4,10.1m-.5-133.3,1-2.1-3.5-4.2M355.7,368l-1.7-1.4m5.2,16-1-3.1-1.7-4.5.4-3.1-.4-2.1m2.3,12.8-.7-2.1-1.7-5.6.7-1.7-.3-1.4" transform="translate(-0.5)"/></g><g id="Main-Bridge"><path class="cls-8" d="M239.8,202.1l-1.7-.4,1.7.7m135.7,55.3-1-1.4,1,1.7M371,236.9l-.4-2.1M119.3,326.7l1.4-1M312,269.5l1.7-.7" transform="translate(-0.5)"/></g><g id="Throughway-Bridge"><path class="cls-8" d="M378.6,279.5l.4,1.7m.3.1-.4-1.7m-26.3-37.2-1.7,3.5.3,1.4m-17.4,58.6-1.7,4.2,2.1-4.2m-15.7,84.4v3.8m.4,0v-3.8" transform="translate(-0.5)"/><path class="cls-8" d="M345.3,259.8l-2.8-.7,2.8,1" transform="translate(-0.5)"/></g><g id="Highway-Bridge"><path class="cls-8" d="M243.9,266.7l.3,3.5m-.3,2.7.3-2.8m-87.7-46.8.7-1m4.8-18.4.3,2.1m79.2-10.1.7-1.4m-.4-.7-1,2.4M114.5,311.1l-.7-.7" transform="translate(-0.5)"/><path class="cls-8" d="M383.5,335.1h2.8l1.7.7,3.5.7h1l2.1.4h4.5l16.7-.4,3.5-1.4.7-.3,2.8-2.8.7-1,1.4-2.4m-38.7,6.5,5.2,1.4,7.6.4m25.4-8.8-1,2.8M249.5,351l-.7.7" transform="translate(-0.5)"/><path class="cls-8" d="M361.2,387.8l-2.1-5.2m-.3,0,2.1,5.2M355,368.4l1.4,1.4-.7-1.7" transform="translate(-0.5)"/><path class="cls-8" d="M157.5,205.3l-1.4.4h1.4" transform="translate(-0.5)"/></g><g id="Highway-Bridge-1"><path class="cls-8" d="M234.9,210.5l1.4.7-1-1" transform="translate(-0.5)"/></g><g id="First-Level"><path class="cls-9" d="M209.6,14.7,232.2,99l11.1,18.4,18.4,19.1,55.2,34.7L369.3,216l18.8,26.4,13.5,30.2,4.2,22.9,1,20.1-1.7,34.7M452.8,400l-2.7-1.4-34.4-25.7-5.6-5.9-5.2-16.7,1.7-34.7-1-20.1-4.2-22.9L388,242.4,369.2,216l-52.4-44.8-55.2-34.7-18.4-19.1L232.1,99,209.5,14.7l-3.5.7m3.2,13.2,1,5.2M221,83.4l.3,2.1-.3-1.4M207.5,21.7l.7,2.4-.7-3.1M23.9,207.4l-.7,1M219.6,89l-2.1.7,1,4.5m3.9-.7,1,2.1" transform="translate(-0.5)"/></g><g id="Village"><path id="Circle" class="cls-10" d="M75.9,151.9h0a1.79,1.79,0,0,1-1.8-1.8h0a1.79,1.79,0,0,1,1.8-1.8h0a1.79,1.79,0,0,1,1.8,1.8h0A1.68,1.68,0,0,1,75.9,151.9Z" transform="translate(-0.5)"/><path class="cls-10" d="M75.9,152.1a2,2,0,1,1,2-2A1.94,1.94,0,0,1,75.9,152.1Zm0-3.7a1.69,1.69,0,0,0-1.7,1.7,1.7,1.7,0,1,0,1.7-1.7Z" transform="translate(-0.5)"/><text class="cls-11" transform="translate(79.65 160.35)"><tspan class="cls-12">S</tspan><tspan x="3.62" y="0">ab</tspan><tspan class="cls-13" x="11.42" y="0">a</tspan><tspan x="15.04" y="0">nilla</tspan></text><path id="Circle-2" data-name="Circle" class="cls-10" d="M45.7,199.1h0a1.79,1.79,0,0,1-1.8-1.8h0a1.79,1.79,0,0,1,1.8-1.8h0a1.79,1.79,0,0,1,1.8,1.8h0A1.68,1.68,0,0,1,45.7,199.1Z" transform="translate(-0.5)"/><path class="cls-10" d="M45.7,199.3a2,2,0,1,1,2-2A1.94,1.94,0,0,1,45.7,199.3Zm0-3.7a1.69,1.69,0,0,0-1.7,1.7,1.7,1.7,0,1,0,1.7-1.7Z" transform="translate(-0.5)"/><text class="cls-11" transform="translate(51.3 197.75)"><tspan class="cls-12">S</tspan><tspan x="3.62" y="0">al</tspan><tspan class="cls-14" x="9.29" y="0">g</tspan><tspan class="cls-15" x="13.08" y="0">a</tspan><tspan x="16.7" y="0">r</tspan></text><path id="Circle-3" data-name="Circle" class="cls-10" d="M129.7,326.1h0a1.79,1.79,0,0,1-1.8-1.8h0a1.79,1.79,0,0,1,1.8-1.8h0a1.79,1.79,0,0,1,1.8,1.8h0A1.68,1.68,0,0,1,129.7,326.1Z" transform="translate(-0.5)"/><path class="cls-10" d="M129.7,326.3a2,2,0,1,1,2-2A1.94,1.94,0,0,1,129.7,326.3Zm0-3.6a1.69,1.69,0,0,0-1.7,1.7,1.63,1.63,0,0,0,1.7,1.7,1.69,1.69,0,0,0,1.7-1.7A1.63,1.63,0,0,0,129.7,322.7Z" transform="translate(-0.5)"/><text class="cls-11" transform="translate(132.09 320.86)"><tspan class="cls-15">J</tspan><tspan x="2.4" y="0">u</tspan><tspan class="cls-15" x="6.48" y="0">a</tspan><tspan x="10.1" y="0">n Mina</tspan></text></g><g id="Town"><text class="cls-11" transform="translate(158.82 173.4)"><tspan class="cls-16">E</tspan><tspan x="3.65" y="0">du</tspan><tspan class="cls-15" x="11.87" y="0">a</tspan><tspan class="cls-17" x="15.49" y="0">r</tspan><tspan x="18.06" y="0">do </tspan><tspan class="cls-18" x="27.46" y="0">S</tspan><tspan class="cls-15" x="31.07" y="0">a</tspan><tspan x="34.69" y="0">n</tspan><tspan class="cls-19" x="38.82" y="0">t</tspan><tspan class="cls-20" x="41.26" y="0">os </tspan></text><text class="cls-11" transform="translate(168.4 181.2)">- La Pl<tspan class="cls-21" x="18.26" y="0">a</tspan><tspan class="cls-22" x="21.85" y="0">y</tspan><tspan x="25.14" y="0">a</tspan></text><text class="cls-11" transform="translate(5.51 258.33)"><tspan class="cls-23">P</tspan><tspan class="cls-17" x="4.05" y="0">u</tspan><tspan x="8.12" y="0">er</tspan><tspan class="cls-24" x="14.39" y="0">t</tspan><tspan class="cls-20" x="16.83" y="0">o </tspan><tspan class="cls-12" x="22.08" y="0">C</tspan><tspan x="26.08" y="0">ol</tspan><tspan class="cls-15" x="31.98" y="0">o</tspan><tspan class="cls-20" x="35.83" y="0">mbia</tspan></text></g><g id="State-capital"><text class="cls-25" transform="translate(290.28 263.23)">B<tspan class="cls-26" x="6.95" y="0">a</tspan><tspan x="12.65" y="0">r</tspan><tspan class="cls-27" x="16.82" y="0">r</tspan><tspan class="cls-28" x="20.88" y="0">a</tspan><tspan x="26.58" y="0">nquilla</tspan></text></g><g id="Adornments"><g id="Modern-Line-Scalebar"><line class="cls-29" x1="6.6" y1="375.2" x2="66.6" y2="375.2"/><line class="cls-29" x1="7.1" y1="370.7" x2="7.1" y2="380.7"/><line class="cls-29" x1="66.1" y1="370.7" x2="66.1" y2="375.7"/><line class="cls-29" x1="62.1" y1="375.7" x2="62.1" y2="380.7"/><text class="cls-30" transform="translate(6.59 392.67)">0</text><text class="cls-30" transform="translate(64.59 368.67)">2 mi</text><text class="cls-30" transform="translate(60.59 392.67)">3 km</text></g><g id="Inset-map"><circle class="cls-31" cx="56.6" cy="54.7" r="50"/><path class="cls-31" d="M112.1,9.7" transform="translate(-0.5)"/><path class="cls-4" d="M104.7,69.8l.2-.5.2-.7.2-.8.1-.4.2-.7h0Zm1.6-6.3v-.2l.1-.5v-.2l.1-.4.1-.8.1-.5v-.8h0v-.3h0Zm.5-3.4v-.6l.1-.4v.8Z" transform="translate(-0.5)"/><path class="cls-4" d="M93.8,20.9l.2.1h0l.2.2.2.2.2.3.1.1.1.2.1.1.2.2.3.4h0l-.1-.1-.2-.1-.3-.3-.4-.4-.2-.2-.1-.1-.1-.3-.2-.3Z" transform="translate(-0.5)"/><path class="cls-4" d="M112.1,9.7" transform="translate(-0.5)"/><path class="cls-4" d="M61,100.3h-.8l.2-.8.2.2.2.3.6.2.7.1-.3.2h-.5Zm5.8-18.4L68.1,83l.6.1.9.5.8.2.1.3-.9,1.1.7.1.8.1.6-.1.8-.6.2-.6.4-.2.3.4-.1.6-.7.4-.6.3-1,.7-1.1,1-.3.5-.3.7-.1.6-.2.2-.1.4-.2.3.7.5-.2.4.4.2-.1.3-.8.8-1.1.4-1.3.2h-.7l.1.3-.2.4.1.3-.6.1-.7.1-.6-.2-.3.2v.5l.4.1.4-.2.1.3-.6.2-.6.3-.1.6-.2.3h-.6l-.5.3-.2.4.5.2.5.1-.3.4-.7.3-.5.5-.5.2-.3.2.1.4.3.2h-.2l-.5-.1H58.6l-.2-.2v-.3H58l-.2-.2v-.4l.5-.2.2-.3-.1-.2.3-.4.3-.6v-.3l.3-.1-.1-.2-.2-.1.2-.2-.3-.2-.1-.6.3-.1L59,94l.2-.6.2-.5.4-.2-.2-.6v-.5l.6-.4v-.5l.5-.6v-.6l-.2-.1-.3-1.1.5-.7V87l.3-.6.5-.6.6-.4-.2-.3.2-.2V83.7l.9-.4.3-.8-.1-.2.7-.7,1,.1.4.5.4-.6h.9Z" transform="translate(-0.5)"/><path class="cls-4" d="M46.8,103.6l.3.1h.2l-.3-.1-.4-.1h-.2Zm3.9.4h.5l.3.1H51l-.3-.1h-.5l-.3-.1h.5Zm8.2.2h0l-.2.1h-.8l.1-.1h0v-.1l.2-.1h.3l.1.1v.1l.1.1.2-.1Zm-11.3-.4h.2l.4.1h.1l.3.1h.3l.3.1h0l.4.1h.3l.3.1h0l-.4-.1h1.1l.3.1h2l.1-.1.3.1h5.5v-.1l.1-.1.2-.1.2-.1.1-.1v-.2l.2-.1.2-.1.3-.1.3-.1.3-.1.2-.1.2-.1.3-.1h.4l.3-.1.3-.1H63l.3-.1.3-.1h.3l.2.1-.2.1-.4.1-.2.1h-.5l-.3.1-.3.1-.2.1-.1.1v.1l.1.1-.3.1h-.3l-.2.1-.3.1-.3.1-.1.1.1.1h.5l.1.1v.1h.1l-.1.1H57.1l-5.2-.3Z" transform="translate(-0.5)"/><path class="cls-4" d="M90.1,17.7h0l.3.3.3.2v.1l.1.1.4.4.1.1V19l.1.2h-.3V19l.1.2.1.1h-.1v.1H91l-.1-.2-.1-.1V19l.2.1-.3-.1.1-.1-.1-.2h0l.1.1-.1-.1-.4-.4-.1-.1-.2-.3.2.1-.3-.3v-.1l.2.1-.1-.1Z" transform="translate(-0.5)"/><path class="cls-4" d="M112.1,9.7" transform="translate(-0.5)"/><path class="cls-4" d="M112.1,9.7" transform="translate(-0.5)"/><path class="cls-4" d="M88.3,17.6l.4.4h0l.4.3-.4-.2v.1l-.4-.2-.3-.1h-.1l-.2-.2v-.2h.1v-.2l.4.2Z" transform="translate(-0.5)"/><path class="cls-4" d="M105.1,46.6l.1.3.1.5v.4l.1.2v.9l.1.6.1.5.2,1.4-.1.2-.1-.6-.3-2-.1-.1-.1-.4-.1-.2-.1-.2-.1-.5.1-.1v-.4l.1-.2v-.6l.1-.1Z" transform="translate(-0.5)"/><path class="cls-4" d="M103.8,44.4l.1.4.1.4.3.5.1.4h.3l.1.6V47l-.1.2v.4l-.1.1-.2.1h-.1V48h-.1l-.4.3.1.5.1.6-.2-.1-.1.1-.1.3-.2-.1-.1-.3-.2-.1-.1-.5V48l.1-.8-.1-.6v-.2h.2l.1-.2V46l.1-.5v-.3l.1-.5.1-.2.1.1Z" transform="translate(-0.5)"/><path class="cls-4" d="M112.1,9.7" transform="translate(-0.5)"/><path class="cls-4" d="M94.1,21l-.1-.1.2.3.1.1-.4-.4-.1-.1-.1-.1-.1-.1-.2-.2-.2-.2-.2-.3-.2-.2-.2-.2.2.2-.1-.1h0l-.1-.1-.2-.2h0Z" transform="translate(-0.5)"/><path class="cls-4" d="M54.9,43.6h-.2l-.2-.5-.3-.3.2-.5h.2l.3.7Zm-.2-2.4-.8.1V41l.4-.1h.5Zm.7,0-.2.6-.1-.1v-.4l-.3-.3v-.1Z" transform="translate(-0.5)"/><path class="cls-4" d="M92.5,19.6h0l.3.3.2.2.3.3v.1l.1.1.1.2.3.4-.2-.1-.2-.2-.1-.1-.3-.4-.2-.2-.2-.2-.3-.3.1.1-.1-.2v-.1l.2.1-.1-.1Z" transform="translate(-0.5)"/><path class="cls-4" d="M87.4,14.9h0l-.1-.1.1.1h0l.1.1.1.1.2.2.1.1-.3-.2-.3-.2-.3-.2-.3-.2-.2-.2-.3-.2-.1-.1-.3-.3-.4-.3-.3-.2-.3-.2-.2-.1-.4-.3h.1l.2.1-.2-.1h0l.3.2.2.1.2.1h0Z" transform="translate(-0.5)"/><path class="cls-4" d="M45.3,50.2h-.2l.1-1,.1-.7v-.1h.1l.1.1.3-.5h.1v.1H46v.6l.1.1-.1.3.1.1-.1.4-.2.2h-.1Z" transform="translate(-0.5)"/><path class="cls-4" d="M70.5,80.2V80l-.7-.4h-.7l-1.4.3-.4.7-.1.4-.4.9-.1-.2h-.9l-.4.6-.4-.5-1-.1-.7.7-.6.1-.3-1-.4-.8.3-.7-.4-.3-.1-.6-.4-.5.5-.8-.3-.7.2-.3-.1-.3.3-.4V74.8l.2-.3-.7-1.3.6.1h.4l.2-.3.8-.3.4-.3,1.1-.2-.1.6.1.3-.1.5.9.7.9.1.3.3.6.1.3.2h.5l.5.2v.5l.2.2v.3h-.2l.3.9,1.5-.1-.2.5.1.3.4.2.1.5-.1.7-.3.4V80Z" transform="translate(-0.5)"/><path class="cls-4" d="M72.8,62.1h.4l.1-.2-.2-.2.1-.3.3.1.4-.1.5.1.4.2.3-.2h.2l.1.2.4-.1.3-.4.2-.6.5-.8.3-.1.2.5.5,1.5.4.1v.6l-.6.8.3.2h1.4v.9l.6-.6,1,.2,1.3.4.4.5-.1.5.9-.4,1.4.3,1.1-.2,1,.6.9.8.5.2.6-.1.2.2.1,1,.1.5-.4,1.4-.4.6-1.1,1.3-.6,1-.8.7h-.2l-.3.6-.2,1.5-.4,1.2-.2.5-.3.3-.3,1-.9,1.1-.3.8-.6.4-.3.6-.7.1-1.2.4-.6.4-.8.3-1,.6-.7.8-.2.5v.4l-.3.7-.2.3-.6.4-1.1,1.2-.7.7-.6.3-.5.6-.5.4-.1-.3.4-.3-.3-.4-.5-.3-.6-.4h-.3l-.6-.5-.5.1,1.1-1,.9-.7.6-.3.7-.4.1-.6-.2-.3-.4.2.2-.4.2-.4.1-.4-.2-.1-.3.1h-.3v-1l-.1-.2-.5-.2-.3.2-.8-.1.2-1-.2-.4.3-.2v-.4l.3-.4.2-.6-.1-.5-.6-.1-.1-.3.2-.5-1.5.1-.3-.9h.2v-.3l-.2-.2v-.5l-.5-.2H68l-.2-.2-.6-.1-.3-.3-.9-.2-.9-.7.1-.5-.1-.3.1-.6-1.1.2-.4.3-.8.3-.2.3h-.4l-.6-.1-.5.1-.4-.1.1-1.2-.7.5h-.7l-.5-.4-.6-.1.2-.3-.5-.5-.3-.7.2-.2v-.3l.5-.2-.1-.4.2-.3.1-.4,1-.6.7-.2.1-.1h.8l.4-2.3v-.4l-.1-.5-.4-.3v-.6l.5-.1.2.1v-.3l-.5-.1v-.5h1.7l.3-.3.2.3.2.5.2-.1.5.4.7-.1.2-.3.6-.2.3-.1.1-.4.6-.3v-.2h-.7l-.1-.6v-.6l-.4-.2.2-.1.6.1.7.2.2-.2.6-.2L69,60l.3-.3-.1-.2.4-.1.2.2-.1.4.3.1.2.4-.2.3-.1.7.2.4.1.4.5.4h.4l.1-.2h.2l.4-.2.3-.3h.4Z" transform="translate(-0.5)"/><path class="cls-4" d="M112.1,9.7" transform="translate(-0.5)"/><path class="cls-4" d="M112.1,9.7" transform="translate(-0.5)"/><path class="cls-4" d="M112.1,9.7" transform="translate(-0.5)"/><path class="cls-4" d="M107,51.9V50l-.1-.7v-.2l-.1-1v-.5h0v.1h0Z" transform="translate(-0.5)"/><path class="cls-4" d="M63.7,25.5l.4.1h.5l-.2.3-.2.1-.8-.3-.2-.2.2-.2Zm.8-1.8h-.3l-.8-.2-.6-.3.2-.1.8.1.6.3ZM32.2,22.1h-.3l-.4-.4.1-.2-.1-.3.1-.2-.3-.2.2-.4.1-.1.2.2.1.1.3.1V21l-.1.4.2.3Zm35,.3-.1.6.3-.2.4.1-.1.2.5.2.2-.2.6.2v.5l.3-.1.2.4.3.4v.6h-.3l-.3-.1-.1-.6-.2-.1-.4.7h-.4l.3-.4-.6-.1-.6.1H66.1l-.1-.2.3-.3L66,24l.4-.4.2-1.1.2-.4.4-.3h.3V22Zm-35-4.6v.1h.3l-.8.6-.2.5h-.1l.1-.3.2-.3v-.2L32,18Zm23.1-2.1-.2.3h-.2l-.1-.2h0l.2-.2h.2Zm-1-.3-.5.3h-.3l-.1-.2.3-.2h.5Zm-.9-1.6V14l.2-.1.2.1.4.2.4.2v.2h.3l.2.2-.4.2-.6-.1-.2-.2-.4.3-.6.3V15h-.5l.4-.3.2-.4.3-.5Zm3.3-.6h-.4l-.1-.2.2-.3.3-.1.2.1V13Zm-6-1.2-.3.1-.2-.1h-.3l-.2-.2.3-.1.3-.2.2.2.1.1v.1ZM61.8,26.6l-.4-.4-.1-1L61,25l-.4.1-.2-.2-.4.6-.2.5-.2.3-.3.1h-.2l-.1.2H57l-.3.1-.7.5h0v.1l-.2.1-.2.2-.3-.1-.5.1-.5.1-.2.1-.2.2.2.1h.2l.1.2-.6.1-.3.1-.2.1-.3-.1h-.2l-.3.2-.5.2-.3-.1.2-.3.3-.4.4-.2.1-.2v-.3L53,27v-.5l.3.5.5.1.2-.2-.4-.6-.1-.3-.5-.1-.5-.1H52l-.4-.1-.1-.2-.1.1h-.1l.1-.2-.2-.1.1-.3-.2-.2.1-.2-.6-.1-.1-.4-.1-.1H50l-.5-.2-.1.1-.2.1-.3.1-.3.3-.6-.2-.5.1-.6-.3-.5-.2-.4-.1-.1-.1v-.4h-.2l-.1.3-1.1-.1-1.8-.2L41,23l-1.5-.2-1.4-.2-1.4-.2-1.3-.2-.4.1L33.8,22l-1.1-.2h-.1l-.2-.8v-.3l-.4-.4.3-.6.4-.4-.2-.3.4-.5L33,18l.3-.3.4-.2.4-.4-.1-.5.5-.7.3-.4.1-.3.1-.3.2-.3-.4.1-.6.2.3-.4.2-.3V14l-.2-.1,4.1-2.5L41.4,10l.1.2-.1.3.1.1.4-.1.4-.1.1.1.5-.1h.4l-.1.2.3-.1.3-.2.1.1-.3.4.7-.2-.4.3h.3l.3-.1.2.1.1.2.3.2.2.1h.3l.1.3-.6.2.3.2h1.1v.3l.5-.2-.2-.2.3-.1h.6l.1.1.1.3h.4l.3.3h.9l.2-.3.3-.1.4.2-.3.4.4-.4h.2l.4-.5-.1-.1-.2-.2.4-.5.5-.3.3.1.1.2.1.5-.4.2.5.1-.2.5.6-.3.2.3-.2.3.2.3.5-.3.4-.4.2-.5h.4l.4.1.4.2v.2l-.3.2.2.3L55,13l-.7.3-.5.1-.3-.2-.2.2-.6.6-.2.2-.5.3h-.5l-.5.3-.2.3h-.5l-.7.4-.6.7-.4.4-.3.7.6.1v1.1l.7-.1.8.3.4.3.3.3.6.2.5.3.8.1.5.1-.2.5.1.6.3.7.7.6.4-.2.3-.7-.2-1-.3-.3.8-.3.6-.4.3-.4v-.4l-.3-.5-.5-.5L56,17l-.2-.5-.1-.9.3-.1.7.1.4.1.3-.1.4.2.5.3.1.2h.8v.5l.2.7.4.1.4.3.6-.3.3-.7.2-.3.5.5.8.7.7.7V19l.7.3.5.3.8.1.4.2.4.5.4.1.3.2.3.7-.3.3-.2.3-.8.3-.5.6-.9.1-1.2-.1h-.8l-.6.1-.4.5-.7.3-.7.9-.6.7.5-.1.9-.9,1.1-.6.8-.1.5.3-.5.5.3.8.3.5.8.3,1-.2.4-.8.2.5.4.2-.6.5-1.2.5-.6.3-.7.6h-.5V27l1-.6-1,.1ZM47.9,9.9l-.4.1h.6v.2l.5-.2v.2l-.3.4.3-.2L49,10h.3l.1.1.1.2-.3.4L49,11l.2.2.3.2-.2.2h-.5v.2l-.1.2-.4-.1-.4-.2h-.3l-.6.1H45.8l.1-.2-.2-.2h-.3l.2-.4h.6l.3.1h.4l-.3-.2h-.5l-.3-.1.1-.2.7-.1h-.3l-.3-.2.6-.3.4-.1.8-.1ZM50,10l-.5.2V9.9h.4Zm6.7.5v.1h-.6l-.3.1h-.1l-.2-.2v-.1h.6Zm-2.6-.1.1.3.4-.3.7-.1.3.4-.1.3.5-.1.3-.2.6.2.4.2v.2l.5-.1.3.3.7.2.3.2.4.4-.5.1.8.3.5.1.6.4h.5v.4l-.4.6-.4-.2-.7-.5-.4.1v.3l.4.3.6.2.2.1.3.5v.4l-.5-.1-1.1-.4.6.4.5.3.1.2-1.1-.2-.9-.3-.5-.3.1-.1-.6-.3-.5-.3v.2l-1.1.1-.3-.2L56,14h.7l.7-.1-.1-.2.1-.3.4-.5-.1-.2-.1-.2-.5-.2-.6-.2.2-.1-.3-.3h-.3l-.2-.2-.2.1-.6.1L54,11.6l-.6-.2-.4-.1-.2-.2.4-.2h-.4l.1-.4.4-.4.3-.2.7-.1Zm-3-.5.2.1h.5v.1l-.4.2.2.2-.3.4-.6.1-.2-.1v-.2l-.3-.4.1-.1.4.1V10Zm1.3.6-.5.3h-.3l.1-.4.2-.2.2-.2.3-.1h.5l.4.1-.6.3Zm-6.7-.2-.8.1.2-.2L45,9.9l.3-.1.6-.2.6-.2.2-.2.6.1.1.1.4.1v.3h-.4l-.9.2-.6.2Zm7.2-.7-.2.1h-.3l-.2-.1.3-.2.4-.1.1.1Zm-.4-.7v.2l-.2.2-.3.2h-.4l-.2-.1.2-.2h-.3l.3-.2h.2l.4-.1Zm-2,0-.1.1h.4l-.2.2-.3.2h-.7l-.7.1h-.3l.2-.1.6-.1-.8-.1L48.4,9l.8-.3.3-.1.3.2V9l.2.1.2-.4.3-.1.1.1Zm2.8-.1.1.2h.4l.1.1-.1.1.2.1v.1h.6l.4-.1h.7l.2.1v.2l-.2.1-.4.1L55,9.7H53.8l-.3-.1L53,9.4l.1-.2.1-.2-.1-.2-.2.2-.1-.1.2-.1ZM50,8.3l-.5.2-.3.1H49l-.5.1h-.3l-.1-.1.7-.2.7-.1H50Zm3.6.4h-.4V8.6h.3l.1.1Zm-2.7-.3h-.4V8.3l.3-.1h.3l.1.1Zm.5-.3H51l.3-.1.1.1Zm2,.4H53l.1-.1.1-.1h.3l.1.1Zm-.6-.1-.1.1-.2-.1-.1-.1h-.3l.3-.1-.1-.1.1-.1h.2l.3.2Zm2.4-.3.1.1-.3.1-.5.2h-.3L54,8.4l-.1-.1.1-.1.2-.1h-.3L53.8,8l.1-.1.2-.1.2-.1h.2V7.6h.3v.2H55l.2.1Zm2.6-1h.5l.2.1v.1l-.2.1-.3.1h.3l-.3.2-.2.1-.2.3-.3.1-.1.1h-.3l-.1.1.2.1-.2.1-.3.1-.1.1-.3.1V9h.3v.1l-.6.2-.5-.1h-.6l-.3-.1H54l.1-.2.4-.1V8.6h.1l.4.2V8.6l-.2-.1.2-.1.3-.1.1-.1L55.3,8V7.8h.5l.3-.1h-.8l-.2-.1V7.5H55l.1-.1h.6l.2-.1H56l.1.1.1-.1h1.3Z" transform="translate(-0.5)"/><path class="cls-4" d="M90.7,19.1l.1.1.1.2.1.1v-.1l.3.3.1.2h-.1l.2.3v.1l-.1-.1.2.3v.1l-.2-.1-.3-.2.1.1-.3-.4-.3-.4-.2-.2h.1l-.1-.1.1-.1-.1-.2Z" transform="translate(-0.5)"/><path class="cls-4" d="M60.4,99.4l-.2.8H61l-.2.1-.4.1h-.5l-.4-.1H59l-.6-.2-.5-.2-.7-.4.4.1.7.3.7.1.3-.2.2-.3.5-.2Zm2.9-17,.1.2-.4.7-.9.4v1.2l-.2.2.2.3-.6.4-.5.6-.3.6v.6l-.5.7.3,1.1.2.1v.6l-.5.6v.5l-.6.4v.5l.2.6-.4.2-.2.5L59,94l.1.6-.3.1.1.6.3.2-.2.2.3.1.1.2-.4.1v.3l-.2.6-.3.4.1.2-.2.3-.5.2v.4l.2.2h.4V99l.2.2H60l.5.1H60l-.3.1-.5.1-.2.4h-.2l-.6-.1-.6-.3-.6-.2-.2-.3.2-.2-.3-.3-.1-.7.2-.4.6-.4-.9-.1.6-.4.2-.8.7.2.4-1.1-.4-.1-.2.6-.4-.1.2-.7.2-1,.3-.4-.1-.5V92h.3l.5-1,.6-1,.3-.9-.1-1,.2-.5-.1-.8.5-.8.2-1.3.3-1.5.3-1.6V80.4l-.1-1.1.4-.2.3-.4.4.5.1.6.4.3-.5.6.4.8.3,1Z" transform="translate(-0.5)"/><path class="cls-4" d="M103.1,49.1l.2.1.1.3.2.1.1-.3.1-.1.2.1.3,1.2v1.8l.2.7v.3l-.1.1-.2-.1-.2.1-.3.3-.2.4-.3.5h-.1V53.5l-.2-.3h-.1l-.1-.2v-.4l-.1-.4v-.3h.1v-.7l.1-.2-.2-.6-.1-.3v-.3l.1-.1v-.1l.1.1.3-.1v-.3h.1l.1-.1.1.3.1-.1Z" transform="translate(-0.5)"/><path class="cls-4" d="M107.1,53h0v0h0l-.1.2h0v.1l-.1.3v-.7l-.1-.5-.1-.1V50h0v-.7l.1.3V48.4l-.1-.5v-.4l-.1-.6v-.2l-.1-.5-.1-.6-.1-.8-.1-.3v-.2l-.1-.3-.1-.3v-.1l.1.5.1.5.1.6.1.7v.2h0l.1.4.1.4V47l.1.3.1.5V48h0l.1,1v.2l.1.7v1.9h0Z" transform="translate(-0.5)"/><path class="cls-4" d="M106.8,59.9v.3h0v-.9h0V59h0Z" transform="translate(-0.5)"/><path class="cls-4" d="M106.9,59h0v.3h0v-.2l-.1.4v-.8l.1-.6V52.8h0l-.1,5.2Z" transform="translate(-0.5)"/><path class="cls-4" d="M60.1,54l-.6.2-.2.4-.3.2-.2.3-.1.6-.2.5H59l.1.4.2.2.1.3-.1.3v.2l.2.1.2.3,1.1-.1.5.1.6.7.3-.1h.6l.5-.1.3.1-.1.5-.2.3-.1.6.2.6.3.3v.2l-.4.4.3.2.3.3.3.8-.2.1-.2-.5-.2-.3-.3.3H61.6v.5l.5.1v.3l-.2-.1-.5.1v.6l.4.3.1.5v.4l-.4,2.3-.4-.4h-.3l.6-.9-.7-.4-.7.5-.3-.1-.5.2-.7-.1-.5-.9-.4-.2-.3-.4-.6-.4-.2.1-.4-.2-.4-.3-.1.1-.8-.1-.2-.4h-.2l-.8-.5-.1-.3.3-.1v-.4l.2-.3.4-.1.4-.5.3-.4-.3-.2.2-.5-.2-.8.2-.2-.1-.7-.5-.5.1-.4.3.1.2-.3-.2-.5.1-.1h.4l.7-.6.4-.1v-.3l.2-.7.5-.4h.5l.1-.2.6.1.7-.4.3-.2.4-.4.3.1.2.2Z" transform="translate(-0.5)"/><path class="cls-4" d="M49.5,54.6l.2.5.3.4.4.4-.3.1v.3l.2.1-.1.1v.2l-.1.2V57l-.5-.2-.2-.2.1-.1v-.2l-.2-.2-.3-.2-.3-.1v-.3l-.2-.2.1.2-.2.2-.2-.2-.3-.1-.1-.2v-.3l.1-.3-.2-.1.2-.2.1-.1.5.2.2-.1.3.1.1.2.2.1Z" transform="translate(-0.5)"/><path class="cls-4" d="M53.2,44.5l.3.3.8-.1.3.2.7.5.5.4h.3l.5.2-.1.3h.6l.6.3-.1.2-.6.1h-.5l-.6-.1-1.2.2.5-.5-.3-.2-.5-.1-.3-.2-.2-.5h-.5l-.7-.2-.2-.2-1-.2-.3-.2.3-.2-.8-.1-.6.4h-.3l-.1.2-.4.1L49,45l.4-.3.2-.3.4-.2.4-.2.6-.1.2-.1.7.1h.6Z" transform="translate(-0.5)"/><path class="cls-4" d="M112.1,9.7" transform="translate(-0.5)"/><path class="cls-4" d="M112.1,9.7" transform="translate(-0.5)"/><path class="cls-4" d="M88.5,16.5l.2.1h.1l.2.2.1.1-.2-.2H89l.2.2h0l.3.2h0l.1.1h0l.2.1h0l.1.1.1.1h0l.1.1H90v.1l-.2-.1v.1l.3.3-.1-.1-.3-.2-.2-.1-.3-.2-.2-.2-.1-.2-.2-.2-.1-.2-.1-.1.1.1Z" transform="translate(-0.5)"/><path class="cls-4" d="M86.6,15.2l.4.2.2.2.2.1.4.3.2.2.4.3.1.1h-.1l.1.1.1.2.2.2.1.2.2.1.3.2.2.1.3.2.3.3.1.1.4.4.1.1-.1-.1h0l.1.2-.1.1.2.2-.2-.2v.1l-.3-.1.1.2-.1.1-.4-.5-.4-.4h-.2l-.2-.1-.3-.3h-.2l-.4-.4-.7-.6.1-.1-.2-.2-.6-.5-.4-.2-.1-.1v-.1l.2.1-.3-.3-.3-.2-.4-.3h.1V15l.3.2h.2l.3.2-.1-.2-.3-.2.3.1Z" transform="translate(-0.5)"/><path class="cls-4" d="M112.1,9.7" transform="translate(-0.5)"/><path class="cls-4" d="M85.3,14.4l.6.5-.4-.2-.3-.2-.2-.3Zm.4.6.1.1h-.1l-.4-.2-.7-.5-.2-.2-.2-.2v-.1l-.2-.2-.2-.2.4.2.2.2.2.1h.1l.3.2h-.1l.5.4Z" transform="translate(-0.5)"/><path class="cls-4" d="M59.7,48.5v-.2l-.2-.3.2-.2.1-.3-.1-.5.1-.2h.6l.5.2h.2l.2.3h.4v.3h.4l.4.3-.3.4-.4-.2h-.7l-.1.2-.3.1-.1-.2-.3.1-.3.6-.2-.1Z" transform="translate(-0.5)"/><path class="cls-4" d="M96.8,26.1l.3.4.5.6.4.6.2.5.4.5.4.3.1.2.2.2.8,1.3.4.6.2.3.3.6.2.3.2.4.3.5.1.4.3.5.2.3.2.4v-.2l.2.2.2.4.4,2,.3,2-.1.6-.2.2-.2-.5-.1-.1-.2-.1-.2-.3-1.4-1.3-1.6-1.3-2-1.4-.1-.2v-.1l-.4-.9.2-.8.2-.3.1-.3-.1-.4.1-.5-.3-.6.1-.1-.1-.4.2-.3-.1-.3-.1-.1-.6-.7-.3-.4-.4-.4v-.2l.1-.3-.1-.4v-.3l.2-.4.2-.3h.1l-.1-.4.1-.2.2.1Z" transform="translate(-0.5)"/><path class="cls-4" d="M56.6,64.4l.1.7-.3.5-.9.9-1,.3-.5.7-.2.6-.5.3-.4-.4-.3-.1-.4.1v-.3l.2-.2-.1-.4.5-.6-.2-.4-.3.4-.5-.4.2-.2-.1-.8.3-.1.2-.5.3-.5-.1-.4.5-.2.6-.3.9.5h.2l.2.4.8.1L56,64l.4.3Z" transform="translate(-0.5)"/><path class="cls-4" d="M112.1,9.7" transform="translate(-0.5)"/><path class="cls-4" d="M112.1,9.7" transform="translate(-0.5)"/><path class="cls-4" d="M91.8,23l.3.2.6.1-.1-.2.4.2.1-.2.3.4.2.6-.1.3.2.2.2.5.4.6.4.3.1.4.3.5v.2l.2.6-.3.2-.2.1v.3l.1.3h-.2l-.3-.2-.2-.4h-.3l-.2-.2-.1-.3-.1-.2-.2-.2-.3-.5-.4-.4.1-.1-.2-.3v-.1l-.5-.6v-.2l-.3-.3h-.2v.1l-.1.1-.4-.3v.3l-.4-.5-.3-.2v-.6h.4l.3-.2h.3l.1-.1Z" transform="translate(-0.5)"/><path class="cls-4" d="M81.9,11.3l.1.1.5.3.7.4.3.2.1.1-.2-.1h-.1l.2.2-.5-.4.1.1-.2-.1-.4-.2-.3-.2-.2-.2h0Z" transform="translate(-0.5)"/><path class="cls-4" d="M112.1,9.7" transform="translate(-0.5)"/><path class="cls-4" d="M74.5,8l.5.2.4.1.7.3.8.3.7.3.5.2.5.3.4.1.4.2.5.3,1.2.7.2.2.4.3.3.2-.4-.2-.2-.1-.8-.4-.6-.4-.5-.3-.5-.2-1-.5-.2-.1-.3-.1-.3-.1-.3-.1-1.2-.5-.5-.1-.3-.1-.2-.1.3.1-.1-.1H75l-.4-.2L74,8l-.4-.2h.2Z" transform="translate(-0.5)"/><path class="cls-4" d="M112.1,9.7" transform="translate(-0.5)"/><path class="cls-4" d="M65.9,98.6l.3.2-.2.1-.7.2-.2-.1-.5.2-.2-.2.7-.3.4.1Z" transform="translate(-0.5)"/><path class="cls-4" d="M74.4,61.6l.2-.4.1-.4.1-.4-.3-.4-.1-.6.4-.8.3.1.6.2.9.7.2.3-.5.8-.3.7-.3.4-.4.1-.1-.2H75l-.3.2ZM94,22.4l.4.5-.2-.1-.4-.4-.2-.3-.2-.3Zm-4.9-4h0l.3.1h.2l.4.4.4.4.1.1h-.1l.2.2.3.4.3.3-.1-.1.3.2.2.2.3.2.2.2.5.4h.1l.3.3.2.5-.4.1v.4l.3.4-.1.1-.4-.2.1.2-.6-.1-.3-.1-.2-.4-1.2-1.3-.8-.6-.4-.2-.5-.1-.5-.4.1-.3h.4l-.8-.7.4.2-.2-.7-.4-.5v-.2l.2.2H88l.3.2.4.2v-.1Z" transform="translate(-0.5)"/><path class="cls-4" d="M107,53.1v5.2l-.1.6V54.7l.1-.2V53.4h0v-.3Z" transform="translate(-0.5)"/><path class="cls-4" d="M84.5,17.1h-.3l-.1.1-.3-.3-.4-.3.1-.1.6.2Zm-2.7-2.8.6.6.1-.1.2-.1.5.4.5.5.2-.1H84l.9.5h.2l.9.6.3.2h.3l.4.4.1.2.4.3.2.4-.2.1-.1.3-.2-.1.2.3h-.2l.1.3-.3.2-.4-.8v-.2h0l-.4.1-.3-.2v-.3l-.4-.3-.4-.4.3-.1-.4-.3-.5-.3h-.3l-.2-.1-.2-.3-.2-.1.2.3-.8-.5-.4-.2L82,15l-.4-.5h.2Z" transform="translate(-0.5)"/><path class="cls-4" d="M104.5,47.7V48l.2.4.1.6.1.7.1.3.1.8.1.4.1.5.1.3-.3.8-.1.4-.2.4-.3-.1v-.3l-.2-.7V50.7l-.3-1.2-.1-.6-.1-.5.4-.3h.1v-.2Z" transform="translate(-0.5)"/><path class="cls-4" d="M100.7,48.3l.1.3h.1l.1-.2h.1l.1.2h.2l.1-.2.1-.2.1-.2h.1l.1.1.1.2.2.3v.6l.1-.1.1.1v.3l.1.2-.1.1v.3l.1.3.2.6-.1.2v.7h-.2v.4h-.1l-.1-.1v-.4l-.2-.5-.1.1h-.1l-.1.1v-.3l-.1-.2v-.3l-.1-.3-.1-.3-.3.1-.1.2-.1.1V51l-.2.4-.3-.4-.2-.3-.1-.1-.1-.1-.1-.4-.1-.2-.4.1.1-.5h.1l.1-.2h.1l.1-.1-.1-.3v-.4l.2-.1.3.1h.1v-.1l.3-.1Z" transform="translate(-0.5)"/><path class="cls-4" d="M98.4,48.4V48l.5-.2.1-.2.1-.1.2.2h.1l.1-.2.1.2-.1.3h-.2l-.2-.1-.1.2h-.1l-.1.2Z" transform="translate(-0.5)"/><path class="cls-4" d="M99.8,48.5v.4l.1.3-.1.1h-.1l-.1.2h-.1l-.1.5-.3-.3h-.2l-.2-.2v-.1l-.2-.1-.1-.2.2-.2h.1l.1-.1Z" transform="translate(-0.5)"/><path class="cls-4" d="M106.9,53.4v1l-.1.2v-1Z" transform="translate(-0.5)"/><path class="cls-4" d="M94.3,21.3l.3.3.2.3.2.1.1.1-.2-.3.1.2.3.4.2.2.1.2.2.2.1.1h0l.3.4h0l.2.3.1.2.4.5.1.1-.2-.2-.4-.5-.3-.4-.2-.3-.3-.3-.1-.2-.3-.4-.2-.2-.1-.1-.1-.2-.1-.1-.2-.2v-.1l-.2-.1h0l-.3-.4.1.1h0Z" transform="translate(-0.5)"/><path class="cls-4" d="M61.3,6.6l.9.1.1.1-.3.1-.3.1h.1l.2-.1h.5l-.1-.1.3.1.3.2.1-.1.1-.2h.3l.4.1.2.2.1.1-.1.1h.2l.4.2.4.2.8.3h.6l-.1.1v.1l.6.1.6.3-.1.1.8.2L68,9l.4.1.2.1-.1.1-.2.1.6.2.3.2-.6-.1.1.1h.4l.6.2.6.3-.2.2-.4-.1-.6-.2.5.2.1.3.5-.1h.3v.5l-.1.5-.5.3h-.3v.2l.2.5-.2.4-.2.1-.3.2H69v.3l.3.3.1.4-.2.5.5.4.2.5.2.6-.5.1-.9-.4H68l-.5-.3-.6-.5-1-.6-.4-.3-.3-.5-.7-.4-.2-.4-.3-.1v-.6l.3-.2v-.2l-.2-.4-.2.2-.1.1-.2.1-.4-.1-.2-.3v-.2h.2l.6.1-.8-.3-.3-.1h-.2l-.3-.1v-.4l-.2-.1-.4-.3L61,9.7l-.4-.1-.1-.2-.7-.2H58.4l-.3-.1L57.8,9l.5-.1h.4l-.8-.1-.4-.1V8.6l.5-.3.5-.2V8L58,7.9l.1-.1.4-.2h.2l-.1-.1.2-.1.3-.1h.3l.2.1.1-.2.4.1h.2l.4.1-.5-.1L60,7.2l.1-.2h.3l-.1-.1.2-.1Z" transform="translate(-0.5)"/><path class="cls-4" d="M45.3,48.5l-.1.7-.1,1h.2l.3.2.1-.1.2.1-.4.3-.4.2v.3l-.2.2h-.2l.1.1-.2.1-.3.2v.1l-.4-.2h-.5l-.4-.1-.4-.4V51l.1-.2-.1-.2.4-.7,1,.1.1-.3-.1-.1v-.2l-.3-.2-.3-.3h.4v-.5h.7Z" transform="translate(-0.5)"/><path class="cls-4" d="M72.2,58.6l-.1.8-.5.3v.2l-.1.5.4.6h.3l.1.5.5.7h-.6l-.3.3-.4.2h-.2l-.1.2h-.4l-.5-.4-.2-.5-.2-.4.1-.7.2-.3-.2-.5-.3-.1.1-.4-.2-.2-.4.1-.6-.6.2-.2v-.4l.5-.2.2-.2-.3-.3.1-.3.6-.5.6.3.5.5v.5h.3l.5.4Z" transform="translate(-0.5)"/><path class="cls-4" d="M50.1,51.1h-.3l-.1.1-.3.1h-.2l-.2.1-.2-.1-.1-.1h-.1l-.1.2h-.1v.2l-.3.2-.2.1-.1.1-.2-.2-.2.2H47v.4h-.1l-.1.2h-.3l-.1-.3-.2-.1.1-.3-.1-.1-.2-.1-.4.1v-.1l-.2-.2-.2-.2-.2-.1.2-.2v-.2l.1-.2.4-.2.4-.3h.1l.2-.1h.2l.1.1h.1l.4.1h.4l.3-.1L48,50l.3.1.2.1h.2l.2-.1.4.1h.1l.3.2.2.2.3.1Z" transform="translate(-0.5)"/><path class="cls-4" d="M91.8,19l.2.2.2.1.2.3-.1-.1v.1h-.1v.1l.1.2-.1-.1.3.3.3.2.2.2.2.2.1.1.2.2.2.1.1.1-.1-.2-.2-.2-.2-.1-.4-.4v-.1l-.3-.2h-.3l.3.3-.2-.2-.2-.2h0v-.1l-.1-.1.1.1h0l-.2-.3-.1-.1-.3-.2-.2-.2h.1l.2.2h.1Z" transform="translate(-0.5)"/><path class="cls-4" d="M59.6,47.1l.1.5-.1.3-.2.2.2.3v.2l-.6-.1-.4.1-.5-.1-.4.2-.4-.3.1-.3.7.1.6.1.3-.2-.4-.4v-.3l-.5-.1.2-.2h1.3Z" transform="translate(-0.5)"/><path class="cls-4" d="M90,17.2l.1.1.2.1.2.2.5.4.5.5.2.2v.1l.2.2.1.1h-.1l-.2-.2h-.1l-.2-.2h0l-.4-.4-.1-.1v-.1l-.3-.2.2.1h.1l-.1-.2-.1-.1v-.1l-.1-.1h0l-.1-.1-.5-.1v-.1Z" transform="translate(-0.5)"/><path class="cls-4" d="M112.1,9.7" transform="translate(-0.5)"/><path class="cls-4" d="M112.1,9.7" transform="translate(-0.5)"/><path class="cls-4" d="M84.5,17.1l.5.4.4.6v.5l-.4.1-.5-.7-.8-.5-.2-.6-.2-.3.4.3.3.3.1-.1Z" transform="translate(-0.5)"/><path class="cls-4" d="M112.1,9.7" transform="translate(-0.5)"/><path class="cls-4" d="M112.1,9.7" transform="translate(-0.5)"/><path class="cls-4" d="M74.4,11.6l.4.3.7.2.3.4-.1.5-.1.1H74.4v-.3l-.8-.1.3-.2-.2-.1h-.6l-.2-.3L73,12l.8.2v-.3h.4v-.3Z" transform="translate(-0.5)"/><path class="cls-4" d="M112.1,9.7" transform="translate(-0.5)"/><path class="cls-4" d="M96.4,24.3l.4.6.2.2.3.4-.3-.3h-.1l-.3-.2-.3-.4.1-.1v-.2Zm-1.9-1.2.4.4.7.9h-.1l.2.3-.2-.1-.7-.8-.3-.3h.1Zm-3-3.9.3.3.3.2H92l.2.3.3.3.2.2.3.3.3.2.5.5.5.4v-.1l.1.1.1.2.2.1.2.1.3.2.1.1.2.3-.2-.2h-.1l.4.5.2.1.3.4v.1l.5.6.1.1-.2-.2-.3-.4-.2-.2-.3-.3-.3-.3h-.1l-.3-.3h-.1l-.2-.2h-.1l-.3-.2-.3-.3-.4-.3-.6-.6h-.1l-.3-.1.1.1.2.4v.1l-.3-.3h-.1l-.5-.5-.2-.2-.3-.2-.2-.2.2.1v-.1l-.2-.3.1.1V20l-.2-.3h.1l-.1-.2-.3-.3H91l-.1-.1.2-.1.2.2Z" transform="translate(-0.5)"/><path class="cls-4" d="M55.4,48.7l-.3.1-.4-.1-.5-.3.1-.2.4-.1h.2l.6.1.4.2.1.2Z" transform="translate(-0.5)"/><path class="cls-4" d="M112.1,9.7" transform="translate(-0.5)"/><path class="cls-4" d="M112.1,9.7" transform="translate(-0.5)"/><path class="cls-4" d="M112.1,9.7" transform="translate(-0.5)"/><path class="cls-4" d="M112.1,9.7" transform="translate(-0.5)"/><path class="cls-4" d="M112.1,9.7" transform="translate(-0.5)"/><path class="cls-4" d="M112.1,9.7" transform="translate(-0.5)"/><path class="cls-4" d="M112.1,9.7" transform="translate(-0.5)"/><path class="cls-4" d="M93.9,20.9h0l.2.2.1.1h0L94,21h0l-.2-.1-.1-.2-.1-.1-.2-.2v-.1l.1.1h0l.1.1h0l.1.1h0l.2.2v.1Z" transform="translate(-0.5)"/><path class="cls-4" d="M112.1,9.7" transform="translate(-0.5)"/><path class="cls-4" d="M112.1,9.7" transform="translate(-0.5)"/><path class="cls-4" d="M112.1,9.7" transform="translate(-0.5)"/><path class="cls-4" d="M102.5,51.9v.3l.1.4V53l.1.2h.1l.2.3v1.1l-.1.1-.4-.3-.4-.5-.4-.3-.3-.5.1-.3v-.2l.1-.5.1-.5h.1l.1-.1.2.5v.4l.1.1h.1v-.4Z" transform="translate(-0.5)"/><path class="cls-4" d="M103.4,35.9l-.5-.8.2.6.1.4-.2-.3-.2-.1-.2-.4-.2-.2v.2l-.2-.4-.2-.3-.3-.5-.1-.4-.3-.5-.2-.4-.2-.3-.3-.6-.2-.3-.4-.9v-.2l-.2-.3-.2-.3-.1-.4-.1-.3-.1-.3-.4-.6.2.1v-.1h.1l.2.1.4.6h.1l.1.1.2.2-.2-.2-.2-.4-.3-.5-.2-.4-.3-.4-.1-.2h0l2.6,4.5Z" transform="translate(-0.5)"/><path class="cls-4" d="M112.1,9.7" transform="translate(-0.5)"/><path class="cls-4" d="M112.1,9.7" transform="translate(-0.5)"/><path class="cls-4" d="M84.8,13.1l.3.2.3.2.4.3.3.3.1.1-.2-.1h0l-.2-.1-.2-.1h-.2l-.6-.4-.3-.3V13l-.1-.1.1.1h0Z" transform="translate(-0.5)"/><path class="cls-4" d="M89.2,18.3h0l-.5-.3h0l.2.1Z" transform="translate(-0.5)"/><path class="cls-4" d="M83.4,12.2l.1.1.3.2.4.2.4.3.2.1-.3-.1h0l-.1-.1.1.1.1.1.3.3-.5-.3-.5-.3-.3-.2.5.3-.1-.2-.6-.4-.2-.2h.1l.1.1Z" transform="translate(-0.5)"/><path class="cls-4" d="M96.1,28.7l.4.4.3.4.6.7.1.1.1.3-.2.3.1.4-.1.1.3.6-.1.5.1.4-.1.3-.2.3-.2.8.4.9h0l.2.4-.2.1v.2l-.2.1-.2-.1-.2.4.2.7-.2.1.2,1.1L97,39.3l.3,1.2v.4l.1.3-.9.4-.1-.4.1-.3v-.5l-.1-.3-.1-.6v-.6l.1-.2-.1-.5-.2-.4-.1-.5.1-.4L96,36h0v-.4l.3-.2v-.7l.1-.3-.1-.8-.6-.9-.1-.7-.2-.4-.1-.6.1-.5v-.4l-.3-.8-.2-.5.2-.1.3.2.2-.2Z" transform="translate(-0.5)"/><path class="cls-4" d="M90.1,17.1l-.2-.1-.2-.1h0l-.1-.1-.1-.1h0Z" transform="translate(-0.5)"/><path class="cls-4" d="M112.1,9.7" transform="translate(-0.5)"/><path class="cls-4" d="M40,41.2l-.4.7-.2.6-.2,1.1-.2.5.1.5.2.4v.7l.4.7.1.5.3.4.8.3.3.4.7-.2.6-.1.6-.1.5-.1.5-.3.2-.5.1-.7.2-.2.6-.2.8-.2.7.1.5-.1.2.2-.1.4-.5.5-.2.5.1.2-.1.4-.3.7-.2-.2h-.3l-.3.5-.1-.1h-.1v.1l-.8-.1h-.7V49h-.4l.3.3.3.2.1.2.1.1-.1.3-1-.1-.4.7.1.2-.1.2v.2l-.8-1-.4-.3-.6-.3h-.4l-.7.3h-.5l-.5-.3-.6-.2-.7-.5-.6-.2-.8-.5-.6-.5-.2-.2H35l-.7-.3-.3-.4-.7-.6-.3-.6v-.5l.2-.1v-.2l.2-.2.1-.3-.2-.4v-.3l-.1-.5-.4-.9-.5-.7-.2-.6-.5-.4-.1-.2.2-.5-.3-.2-.3-.5v-.6l-.3-.1-.1-.5-.2-.4.1-.3-.1-.7V36l.1-.3-.3-.4h-.2l-.3-.3-.2.3v.4l-.2.6.1.4.3.6v.2l.1.1v.3H30v.5l.1.2v.3l.3.5v.8l.1.4.1.4-.1.4.3.1.2.4.1.4-.1.3-.4.3h-.1v-.5l-.3-.5-.4-.5-.3-.4.2-.6v-.5l-.2-.3-.3-.4-.1.1-.1-.2-.3-.3-.2-.5h.1l.2.1.3-.3.1-.4L29,37l-.3-.3V34.1l.7.1h.7l-.1.3.7.5,1.2.8,1.2.2.5.1.1-.3,1.1.1.1.3.3.3.3.4.1.4v.5l.3.3.5.3.6-.6h.6l.4.4.2.6.1.5.3.5v.6l.1.4.5.3.5.2Z" transform="translate(-0.5)"/><path class="cls-4" d="M94.3,21.3h0l.1.2v.1l.2.2.1.1-.1-.1-.2-.3-.2-.2h0l-.2-.2-.1-.2h0l-.1-.1v-.1l.1.1Z" transform="translate(-0.5)"/><path class="cls-4" d="M103.5,40.3l.6,1.9.1.6.1.5-.1.3-.2.3v.4l-.1.1-.1.1-.1-.1-.1.2-.1.5v.3l-.1.5v.2l-.1.2h-.2v.2l.1.6-.2.9.1.3v.4l.1.5-.1.2-.1.1-.1-.3-.1.1h-.1v.3l-.3.1-.1-.1v.1l-.1-.2v-.3l-.1-.1-.1.1v-.6l-.2-.3-.1-.2-.1-.1h-.1l-.1.2-.1.2-.1.2H101l-.1-.2h-.1l-.1.2h-.1l-.1-.3V48l-.1-.3-.2-.2L100,47l-.1-.5.1-.2-.1-.5.1-.1.3.1.2-.2h.2v-.2l1.3-.6-.1-.6-.1-.1-1.3-3.5L99,37.2l.4-.2,1.6,1.3,1.4,1.3.2.3.2.1.1.1.2.5Z" transform="translate(-0.5)"/><path class="cls-4" d="M112.1,9.7" transform="translate(-0.5)"/><path class="cls-4" d="M93.6,20.7l.1.2.1.1-.1-.1.3.4.2.2h0l-.2-.3-.1-.1-.1-.1-.3-.4-.1-.2-.1-.1.1.1.1.1h0l.1.2Z" transform="translate(-0.5)"/><path class="cls-4" d="M112.1,9.7" transform="translate(-0.5)"/><path class="cls-4" d="M112.1,9.7" transform="translate(-0.5)"/><path class="cls-4" d="M99.7,36.9l-.4.2,1.5,3.4,1.3,3.5.1.1.1.6-1.3.6v.2h-.2l-.2.2-.3-.1-.1.1.1.5-.1.2-.5-.4-.4-.5-.3-.1-.3-.2-.2.1-.2.3h-.2l-.1.2-.1-.4V45l-.2-.8-.3-.8-.2-.4-.1-.4-.2-.4-.3-.3v-.3l1.6-.5-.5-1.2-.1-.4.3-.2-.8-2.1,1.1-.4-.5-1.2Z" transform="translate(-0.5)"/><path class="cls-4" d="M112.1,9.7" transform="translate(-0.5)"/><path class="cls-4" d="M112.1,9.7" transform="translate(-0.5)"/><path class="cls-4" d="M112.1,9.7" transform="translate(-0.5)"/><path class="cls-4" d="M112.1,9.7" transform="translate(-0.5)"/><path class="cls-4" d="M103.2,35.7l.5,1.2.1.1.1.3.1.2.1.4.6,1.7.3,1.1.2,1,.3,1.2.1.3.1.5v-.1l.1.4v.1l.1.3h0l-.2-.8h0l.1.6-.1-.1h0v.2l-.1.1V45l-.2-.2v.3l-.1.1-.1-.2-.2-.2-.1.3v.2l.1.5v.4l.1.8-.2-.4-.1.1V47l-.1-.6h-.3l-.1-.4-.3-.5-.1-.4-.1-.4.1-.1v-.4l.2-.3.1-.3-.1-.5-.1-.6-.6-1.9.1-.6-.3-2-.4-2,.4-.3.1.4Z" transform="translate(-0.5)"/><path class="cls-4" d="M105.9,44.2l.1.3v.2l.1.3.1.8.1.6.1.5v.2l.1.6v.4l.1.5v1.2l-.1-.3v.7h0v1.6l-.1.5h-.1v.3l-.1.1-.1-.4-.1-.6-.2-.5-.1.1-.2.1-.2-1.4-.1-.5-.1-.6V48l-.1-.2v-.4l-.1-.5-.1-.3-.1-.8v-.4l-.1-.5v-.2l.1-.3.2.2.1.2.1-.1v-.3l.2.2V44l.1-.1v-.2h0l.1.1-.1-.6h0l.5,1Z" transform="translate(-0.5)"/><path class="cls-4" d="M50.1,51.1h0l-.1.3.1.3-.3.3-.1.3v1l-.1.1-.1.4.1.2-.2.2.1.2.1.2-.2.2-.2-.1-.2-.1-.3-.1-.2.1-.5-.2-.1.1-.3-.3-.4-.4-.2-.3-.3-.3-.4-.4.1-.1.1.1.1-.1h.3l.1-.2h.1v-.4h.4l.2-.2.2.2L48,52l.2-.1.3-.2v-.2h.1l.1-.2h.1l.1.1.2.1.2-.1h.2l.3-.1.1-.1Z" transform="translate(-0.5)"/><path class="cls-4" d="M88.3,17.6l-.2-.1-.4-.2v.2h-.1l-.1-.2-.9-.9-.2-.4.1-.1.2.2.6.5.2.2.1.2Z" transform="translate(-0.5)"/><path class="cls-4" d="M73.9,7.8l.4.2h.2l-.6-.2h-.2L74,8l.6.2.4.2h-.1l.1.1-.4-.1.2.1.1.1.5.2-.1.1.5.1v.1l.6.3.9.4,1.1.6.3.1.3.2v.1l.7.4,1,.5.4.2.9.5.5.4.4.3-.5-.2.8.7.1.2-.5-.1-.8-.6-1.8-1-.4-.3-.5-.5-.7-.6-1.1-.6L76,9.3,75.4,9l-1.1-.5-.4-.2V8.2l-.7-.3-.1-.1-.3-.1h.4l.3.1ZM67.5,6.4l.4.1h-.2l-.2-.1h-.3L67,6.3h.3ZM66,6.3h.6l.4.1.6.1.2.1.7.2v.1H68l-.3-.1h-.2l-.7-.1L66,6.5l-.3-.1H66V6.3h0ZM65.3,6h.3l.4.1.2.1-.1.1h-.6l-.3-.1h.2L65.1,6Z" transform="translate(-0.5)"/><path class="cls-4" d="M54.9,56.7l-.1.1.2.5-.2.3-.3-.1-.1.5-.3-.3-.1-.5.2-.2H54l-.2-.3-.4-.2H53l-.2.3-.3.2h-.2l-.1.2.4.5-.2.1-.1.1h-.4l-.1-.5-.1.1-.3-.1-.1-.4-.4-.1-.3.1h-.4v.2l-.1-.2.1-.2.1-.2v-.2l.1-.1-.2-.1v-.3l.3-.1.3.3v.2h.3l.1-.1.2.2.4-.1.4-.2.5-.2.3-.3.5.1v.1H54l.4.2.3.3Z" transform="translate(-0.5)"/><path class="cls-4" d="M61.4,67.8h-.8l-.1.1-.7.2-1,.6-.1.4-.2.3.1.4-.6.3v.3l-.2.2.3.7.5.5-.2.3.6.1.3.4H60l.7-.5-.1,1.2.4.1.5-.1.7,1.3-.2.3v1.3l-.3.4.1.3-.2.3.3.7-.5.8-.2.3-.4.2-.8-.4-.1-.3-1.6-.8-1.5-.8-.7-.5-.3-.6.1-.2-.7-1.1L54.3,73l-.8-1.6-.3-.4-.3-.6-.7-.6-.6-.3.3-.4-.4-.8.3-.6.7-.5.1.4-.2.2v.3l.4-.1.3.1.4.4.5-.3.2-.6.5-.7,1-.3.9-.9.3-.5-.1-.7.2-.1.6.4.3.4.4.2.5.9.7.1.5-.2.3.1.5-.1.7.4-.6.9h.3Z" transform="translate(-0.5)"/><path class="cls-4" d="M112.1,9.7" transform="translate(-0.5)"/><path class="cls-4" d="M112.1,9.7" transform="translate(-0.5)"/><path class="cls-4" d="M86.1,14.3h0l-.1-.2h0l.2.1.3.2.2.2.3.2.2.2.3.2.3.2.6.4.2.2.1.1.6.5.3.2h0l-.2-.1.1.2h0l.2.2-.2-.1.1.1h0l-.3-.2h0l-.3-.3h-.1l.2.2-.1-.1-.2-.2h-.1l-.2-.1-.5-.2-.2-.2-.4-.3-.2-.1-.2-.2-.4-.2-.2-.2-.3-.4-.3-.3h.3Z" transform="translate(-0.5)"/><path class="cls-4" d="M64.7,48.3l-.2.2H63.4v-.4l.1-.1h.7l.4.1Z" transform="translate(-0.5)"/><path class="cls-4" d="M112.1,9.7" transform="translate(-0.5)"/><path class="cls-4" d="M93.9,28v.2h-.2l-.1.2-.3-.6-.3-.4h-.2l-.3-.2-.3-.5-.1-.3L92,26l-.3-.4-.2-.3-.3-.3-.2-.2v-.3l.3.3.1-.1v-.1h.2l.3.3v.2l.4.5v.1l.2.3-.1.1.4.4.3.5.2.2.1.2.1.3Z" transform="translate(-0.5)"/><path class="cls-4" d="M70.5,80.2l.2.4-.2,1,.8.1.3-.2.5.2.1.2v1h.3l.3-.1.2.1v.3l-.2.4-.2.4-.2.6-.8.6-.6.2-.8-.1-.7-.1.9-1.1-.1-.3-.8-.2-.9-.5-.5-.1-1.3-1.1.4-.9.1-.4.4-.7,1.4-.3h.7l.7.4Z" transform="translate(-0.5)"/><path class="cls-4" d="M112.1,9.7" transform="translate(-0.5)"/><path class="cls-4" d="M112.1,9.7" transform="translate(-0.5)"/><path class="cls-4" d="M92.5,19.3l.2.2.1.1h0l.1.1-.2-.2-.1-.1-.1-.1-.1-.1.2.2-.1-.1-.3-.2L92,19l-.2-.2-.2-.2-.2-.2L91,18l-.5-.4-.2-.2-.2-.2h0v-.1l.1.1-.1-.1L90,17l-.2-.2h0l.2.1.2.1h0Z" transform="translate(-0.5)"/><path class="cls-4" d="M86,14.1l.1.2v.1l-.3-.2-.3-.3h.2l.2.1ZM41.2,7.5h0l.3-.1h.1l-.3.1Zm7.6-2.1h0l-.4.1-.6.1h0Zm20.9.9h-.1l-.3-.1-.4-.1L68,5.9h.1l-.9-.2h-.3l-.7-.1-.9-.2-.6-.1-.5-.1-.4-.1h.3l.4.1.5.1.8.1,1.1.2h.2ZM85,13.2l-.2-.1-.2-.1-.3-.2h0l.2.1-.2-.1h-.1l-.4-.2-.3-.2-.1-.1-.3-.3-.7-.4-.4-.2-.1-.1-.6-.3-.2-.1-1.2-.7-.5-.2L79,9.8l-.4-.1-.5-.3-.5-.2-.7-.3-.8-.3-.7-.3L75,8.2,74.5,8h-.2l-.5-.2-.4-.1.3.1-.1-.1.4.1.2.1.5.2.6.2.4.2v.1l.3-.2.4.1.3.1.7.4h.2l-.4-.2L77,8.7l-.4-.2h.1l4.7,2.3ZM76.1,8.4l-.2-.1L75.2,8h0Zm-2.6-1-.3-.1h-.1ZM42.3,6.9h0l-.5.2-.2.1-.9.3h.1l.6-.2.3-.1-.6.2-.2.1-.6.3-.5.2-.8.3-1,.5-.5.2-.2.1.6-.2-.2.2-.8.4-.3.1V9.5l-.8.3h-.1l.1-.1.2-.1.3-.2.4-.2.2-.1h0l.3-.1.3-.1h-.1L37,9l-.3.1-.2.1.2-.1-.5.2-.7.3-.3.1-.3.2-.2.1.4-.2H35l4.8-2.1ZM57.8,4.7Zm5.9.6h.2l.1.1-.3-.1h0l.3.1-.3-.1h0Zm-5.2-.6h0Z" transform="translate(-0.5)"/><path class="cls-4" d="M97.6,35.3h0l.1.2.5,1.2-1.1.4.8,2.1-.3.2.1.4.5,1.2-1.6.5v.3l-.1-.4.9-.4-.1-.3v-.4L97,39.1l.2-1.1-.2-.9.1-.1-.1-.7.2-.2.2.1.2-.1v-.2l.2-.1-.2-.5Z" transform="translate(-0.5)"/><path class="cls-4" d="M112.1,9.7" transform="translate(-0.5)"/><path class="cls-4" d="M112.1,9.7" transform="translate(-0.5)"/><path class="cls-4" d="M112.1,9.7" transform="translate(-0.5)"/><path class="cls-4" d="M100.1,46.5l.1.5.2.5.2.2.1.3v.4h-.2v.1h-.1l-.4-.1-.2.1-.8.2-.1.1h-.1l-.2.2-.2-.6.4-.1.1-.2H99l.1-.2.2.1h.2l.1-.3-.1-.2-.1.2h-.1l-.3-.1-.1.1-.1.2-.5.1-.3-.6-.3-.2.2-.2.1-.7v-.5l.1-.3h.2l.2-.3.2-.1.3.2.3.1.4.5Z" transform="translate(-0.5)"/><path class="cls-4" d="M112.1,9.7" transform="translate(-0.5)"/><path class="cls-4" d="M101.8,51.5l-.1.5-.1.5v.2l-.1.3h-.1l-.3-.3-.3-.4-.1-.3-.1-.6.2-.4v-.5l.1-.1.1-.2.3-.1.1.3.1.3V51l.1.2.2.3Z" transform="translate(-0.5)"/><path class="cls-4" d="M46.2,52.4l-.1.2h-.5l-.3-.1-.3-.2-.4-.1-.3-.2v-.1l.3-.2.2-.1-.1-.1h.2l.2.1.2.2.2.2v.1l.4-.1.2.1.1.1Z" transform="translate(-0.5)"/><path class="cls-4" d="M112.1,9.7" transform="translate(-0.5)"/><path class="cls-4" d="M112.1,9.7" transform="translate(-0.5)"/><path class="cls-4" d="M92.6,19.5l.2.2.2.2.2.2.2.2.2.2.1.1.1.1v.1l.1.1h0l-.1-.1-.2-.2h0l-.1-.1h0l-.1-.1h0l-.1-.1v.1l.2.2.1.1-.1-.1-.1-.1h0l-.1-.1-.1-.1v-.1l-.3-.2-.2-.2-.3-.3h0l-.2-.3H92l-.2-.2-.2-.2v-.1l.2.2.2.1.1.1.3.2.1.1-.2-.2.1.1.2.2Z" transform="translate(-0.5)"/><path class="cls-4" d="M74.8,58.6l-.4.8.1.6.3.5-.1.4-.1.4-.2.4-.5-.1-.4.1-.3-.1-.1.3.2.2-.1.2h-.4l-.5-.7-.1-.5h-.3l-.4-.6.1-.5v-.2l.5-.3.1-.8,1,.1.1-.2.7-.1Z" transform="translate(-0.5)"/><path class="cls-4" d="M89.6,16.8l.2.2.3.2.1.1h-.1l.1.1.2.2.1.1h0l.1.1v.1l.1.1.1.2h-.1l-.2-.1-.2-.2-.1-.1-.2-.3h0l-.1-.1-.1-.1h0l-.2-.1h0l-.1-.2h0l-.1-.1.2.1v-.2h0l-.2-.1Z" transform="translate(-0.5)"/><path class="cls-4" d="M91.5,18.9l.2.2.3.2.1.1.2.2h0l-.1-.1.1.1v.1l-.1-.1-.3-.2-.3-.3h.1l-.2-.2h-.1l-.1-.1h0Z" transform="translate(-0.5)"/><path class="cls-4" d="M77.2,9.2l.3.2.6.3.5.2.7.4.7.5,1.1.6.5.2.4.2.9.6.2.2,1.2.8.7.5-.1.1.6.4v.1l-.7-.4-.8-.5L82.9,13l-.4-.3-.5-.3-.9-.5-.4-.2-1-.5-.7-.4v-.1l-.3-.2-.3-.1-1.1-.6-.9-.4-.6-.3V9l-.5-.2.1-.1-.5-.2-.1-.1.3.1.5.1,1.2.5Z" transform="translate(-0.5)"/><path class="cls-4" d="M112.1,9.7" transform="translate(-0.5)"/><path class="cls-4" d="M112.1,9.7" transform="translate(-0.5)"/><path class="cls-4" d="M106.6,48v-.1h0V48l-.1-.4-.1-.3v-.1l-.1-.4-.1-.4h0v-.2l-.1-.7-.1-.6-.1-.5-.1-.5-.1-.4v.1l-.1-.5-.1-.3-.3-1.2-.2-1-.3-1.1-.6-1.7-.1-.4-.1-.2-.1-.3-.1-.1-.5-1.2L103,35l.5.8h0l1.7,4.9,1.2,5.1Z" transform="translate(-0.5)"/><path class="cls-4" d="M104.6,47.6l.1.5.1.2.1.2.1.4.1.1.3,2,.1.6-.1.3-.1-.3-.1-.5-.1-.4-.1-.8-.1-.3-.1-.7-.1-.6-.2-.4v-.3Z" transform="translate(-0.5)"/><path class="cls-4" d="M112.1,9.7" transform="translate(-0.5)"/><path class="cls-4" d="M112.1,9.7" transform="translate(-0.5)"/><path class="cls-4" d="M112.1,9.7" transform="translate(-0.5)"/><path class="cls-4" d="M112.1,9.7" transform="translate(-0.5)"/><path class="cls-4" d="M68.9,55.2l-.7.1-.2-.1.2-.3v-.3l.5-.1h.2Z" transform="translate(-0.5)"/><path class="cls-4" d="M98.9,28.4l.4.6.1.3.1.3.1.4.2.3.2.3.1.2-.8-1.3-.3-.3-.1-.2-.4-.3-.4-.5-.2-.5-.4-.6-.5-.6-.3-.4-.1-.4h.1l.3.3-.1-.4.1.1.2.4.2.3.1.1.4.6.2.5.3.4v-.1l.5.5Z" transform="translate(-0.5)"/><path class="cls-4" d="M112.1,9.7" transform="translate(-0.5)"/><path class="cls-4" d="M112.1,9.7" transform="translate(-0.5)"/><path class="cls-4" d="M112.1,9.7" transform="translate(-0.5)"/><path class="cls-4" d="M112.1,9.7" transform="translate(-0.5)"/><path class="cls-4" d="M89.5,16.6h0l.2.2h0l.3.2.1.1.1.1-.1-.1v.1h0l.2.2-.2-.1-.1-.1-.2-.2-.2-.2h0l-.3-.2-.6-.6-.1-.1-.2-.2-.6-.4-.1-.1-.2-.2h-.1v-.1h0l-.1-.1h0l-.2-.1.1.1h0Z" transform="translate(-0.5)"/><path class="cls-4" d="M72.3,89.3l-.4.4-.9.4-.5-.1-.4.1-.6-.2H69l-.3-.3.1-.4L69,89l.1-.6.3-.7.3-.5.5-.1.6.5h.3l.6.4.5.3.3.4-.3.3Z" transform="translate(-0.5)"/><path class="cls-4" d="M10.5,40.1l-.1.1.1-.1v-.3l.1-.3v-.1l.1-.1V39h0v.4l-.1.3h0l-.1.4Zm.3-1.4h0v-.3h0v.3Zm.1-.5h0v0Zm0-.3h0v-.3h0l.1-.1v.1Zm0-.8h0V37h0v-.1h0ZM48.6,24.4l-.6.2-.5.3-.5.2v.1l.6-.1.3.3.5-.2.5-.2.6-.2-.3.4.3.1.3.3.6-.1H51l.1.2h.3l.3.3h-.5l-.4-.1-.7.1h-.4l-.4.4-.3.3.1.1.5-.4h.1l-.4.5-.3.5-.2.4v.4l-.1.2v.2l.1.4.1.1h.2l.2-.1.2-.1.3-.4.1-.5-.1-.5.1-.3.2-.3.2-.2.3-.2v.2l.2-.3.1-.1L51,26l.5.2.4.3v.3l-.1.3-.4.3v.2h.1l.4-.3.2.1.1.4v.3l-.3.4-.2.3-.3.3.4.2h.3l.5-.1L53,29l.3-.1.5-.2.6-.4V28l.3-.1h.5l.5.1.5-.2v-.3l-.1-.1.7-.5.3-.1h2l.1-.2h.2l.3-.1.2-.3.1-.6.4-.5.2.2L61,25l.3.2.1,1,.4.4.1.2-.6.4-.6.3-.7.2-.3.4-.1.2v.4l.3.4h.3l-.1-.3.2.2v.2l-.4.1h-.3l-.6.1h-.7l-.5.2,1-.2.2.1-.9.5h-.4v-.1l-.2.2h.2l-.1.5-.6.7v-.2h-.1l-.2-.2.1.4.2.1v.3l-.3.3-.4.6h0l.2-.5-.3-.3-.1-.6-.1.3.1.5-.4-.1.5.2v.7l.2.1.1.3.1.8-.6.5-.8.2-.5.5-.4.1-.3.2-.1.3-.8.5-.4.4-.4.5-.1.6.1.6.2.7.3.6v.4l.3,1-.1.4v.3l-.2.5-.2.1-.4-.1L52,42l-.3-.2-.4-.7-.3-.7-.1-.3.2-.5-.2-.5-.5-.7-.3-.1-.8.3h-.1l-.3-.4-.4-.2h-.9l-.6-.1h-.6l-.3.1.1.2v.3l.1.2-.1.1-.2-.1-.3.1H45l-.5-.5-.7.1-.5-.2h-.5l-.7.1-.8.6-.8.3-.5.4-.2.4-.1.6V41l.1.3h-.3l-.3-.3-.5-.3-.1-.4v-.6l-.3-.5-.1-.5-.2-.6-.4-.4H37l-.6.6-.5-.3-.3-.3v-.5l-.1-.4-.3-.4-.3-.3-.1-.3-1.1-.1-.1.3-.5-.1-1.2-.2L30.7,35l-.7-.5.1-.2h-.7l-.7-.1.1-.4-.2-.5-.2-.1V33l-.3-.1-.1-.2-.4-.2-.1-.1.1-.4V31l.1-1.1.1-.2-.1-.3v-.7l.3-.6v-.5l.5-.6.4-.6.2-.6.6-.6.5-.6.5-.6.6-.9.3-.6.1-.3.1-.1.4.3-.2.7.2-.2.3-.6.3-.6,1.1.2,1.2.2.4.1,1.3.2,1.4.2,1.4.2,1.5.2,1.7.2,1.8.2,1.1.1.1-.3H46v.4l.1.1.4.1.5.2.5.2.5-.1ZM30.5,14.5l-.4.1.1-.2.3-.2.3-.1h.1v.1l-.2.2ZM32,12.1h-.1l.2-.1.2-.2h.1l-.1.2Zm3.2-2-.2.1h.1l-.2.2-.1.1h-.2l.2-.1.2-.1h0l.1-.1Zm6-.1-2.8,1.4-4.1,2.5.2.1v.2l-.2.3-.3.4.6-.2.4-.1-.2.3-.1.3-.1.3-.3.4-.3.7.1.5-.4.4-.4.2.1-.3-.1-.2.5-.5.2-.5.5-.5-.2-.1-.3-.1-.1-.2.3-.7v-.2l-.2-.5-.3-.1v-.4l.1-.3h-.3l-.5.3h-.4l-.3.1H32l.4-.3.8-.4.3-.1.2-.1-.5.2-.6.2-.7.2-.3.3-.6.3-.2.2-.3.1-.3.2-.5.1-.4.2-.4.1v-.1l-.2.1-.3.1-.3.1h-.2l.1-.1.3-.1.2-.1.4-.2.1.1.3-.1.5-.2.2-.1.3-.1.6-.3.5-.2h-.3l.1-.1H31l.3-.3-.3.1.4-.3-.3.1v-.1l.4-.3.3-.1.3-.2h-.2l.4-.3.2-.2.4-.2.3-.2.4-.2L34,11l.4-.2h.1V11l.4-.1-.1.1.3-.1.4-.2.1-.1.3-.1h-.2l-.2.1.2-.1-.1-.1.2-.2L36,10l.5-.3h.7v.1l-.4.2.1.1.5-.3.3-.2.4-.2.4-.2.3-.2.4-.1V9l.4-.1.4-.1.4-.1h.5v.1l.5-.1-.1.1L41,9h.2v.1l-.2.1v.1h.2l-.1.2-.1.1v.1h.3l-.1.2Z" transform="translate(-0.5)"/><path class="cls-4" d="M69.9,56.7l-.6.5-.1.3.3.3-.2.2-.5.2v.4l-.2.2.6.6.1.2L69,60l-.9.4-.6.2-.2.2-.7-.2-.6-.1-.2.1.4.2v.6l.1.6H67v.2l-.6.3-.1.4L66,63l-.6.2-.2.3-.7.1-.5-.5-.3-.8-.3-.3-.3-.2.4-.4v-.2l-.3-.3-.2-.6.1-.6.2-.3.1-.5-.3-.1-.5.1H62l-.3.1-.6-.7-.5-.1-1.1.1-.2-.3-.2-.1v-.2l.1-.3-.1-.3-.2-.2-.1-.4h-.5l.2-.5.1-.6.2-.3.3-.2.2-.4.6-.2v.2l-.5.1.3.4v.5l-.4.5.3.7.4-.1.2-.6-.3-.3.1-1,1.1-.4-.1-.4.3-.3.3.6h.6l.6.5V55h.8l.9-.1.5.4.6.1.5-.3v-.2l1-.1,1-.1-.7.3.3.4h.7l.6.4.1.7h.5Z" transform="translate(-0.5)"/><path class="cls-4" d="M112.1,9.7" transform="translate(-0.5)"/><path class="cls-4" d="M112.1,9.7" transform="translate(-0.5)"/><path class="cls-4" d="M112.1,9.7" transform="translate(-0.5)"/><path class="cls-4" d="M112.1,9.7" transform="translate(-0.5)"/><path class="cls-4" d="M112.1,9.7" transform="translate(-0.5)"/><path class="cls-4" d="M112.1,9.7" transform="translate(-0.5)"/><path class="cls-32" d="M28.3,13.8,41.9,7.3,57.1,5.6M11.9,33.2l7.7-11.5,10.7-8.9L43.1,7.3,57,5.6M11.3,74.8l-3-9.5-1-9.9,1-9.6,2.8-9.3,4.6-8.6,6.2-7.5,7.6-6.2L38,9.6l9.3-2.9L57,5.6M27.8,95.2l-8-7.4-6-9.1L10,68.2,8.8,57.1l.9-9.6,2.8-9.3L17,29.5l6-7.7,7.3-6.5,8.4-5,9-3.3,9.4-1.4M38,100.9,27.2,94.3l-8.4-9.8L13.5,72.3,11.7,58.7l.9-9.7,2.6-9.4,4.2-8.9L25,22.8l6.9-6.7,7.8-5.2,8.5-3.5,8.9-1.7M43.8,102.9,32.6,97.3l-8.9-9.6L18,74.9,16,60.2l.8-9.7L19.1,41l3.8-9L28,23.9,34.2,17l7.1-5.5L49,7.7l8-2m-9.4,98.1L37.2,99.1l-8.3-9.3-5.4-13L21.6,61.5l2.7-19.3L32,24.7l5.4-7.1,6.1-5.7,6.7-4.1,6.9-2.3m-6.7,98.7-8.8-4-7.1-9L29.9,78.1,28.3,62.4,30.5,43l6.2-17.6L46,12.2l5.4-4.3L57,5.4m-4.4,99.1L45.9,101l-5.4-8.8L37,79.2,35.8,63.3l1.6-19.4L42,26.1l6.9-13.4,4-4.4,4.2-2.6m-2.6,98.9-4.2-3.1L47,92.9l-2.2-13-.8-16,1-19.5,2.8-17.9,4.3-13.6,5-7.3m-.9,99.1-1.4-3-1.2-8.5-.8-13-.3-16,.3-19.5,1-18L55.4,13l1.7-7.4m.8,99.1,1.3-3,1.1-8.5.7-13,.2-16L61,44.7l-.9-18L58.7,13,57.1,5.6m2.5,99,4.1-3.1L67,92.9l2.1-13,.7-16-1-19.5L66,26.5,62,12.9,57.1,5.6m4.4,98.9,6.6-3.5,5.3-8.8,3.5-13.1,1.2-15.9L76.5,43.8,72,26,65.2,12.5,61.3,8.1,57.2,5.5m6.5,98.7,8.8-4,7.1-9,4.6-13.1,1.6-15.7L83.6,43,77.4,25.4,68,12.3,62.6,8,57,5.5m9.4,98.3,10.4-4.6,8.3-9.3,5.4-13,1.9-15.3L89.7,42.3,82,24.8l-5.3-7.1L70.6,12,64,7.9,57.1,5.6m13.1,97.3,11.2-5.5,8.9-9.6L96,74.9l2-14.8-.8-9.7L94.8,41,91,32l-5-8.1L79.8,17l-7.1-5.5L65,7.7l-8-2M75.9,101l10.8-6.6,8.4-9.8,5.3-12.2,1.8-13.7-.9-9.7-2.6-9.4-4.2-8.9-5.6-7.9L82,16.1l-7.8-5.2L65.7,7.3,56.9,5.6m29,90,8.2-7.4,6.2-9.2,3.8-10.5,1.3-11.3-.9-9.6-2.7-9.3-4.5-8.7-6-7.7L84,15.4l-8.3-5L66.5,7,57.1,5.6m45.1,70.5,3.5-10,1.2-10.6-1-9.6-2.8-9.3L98.5,28l-6.2-7.5-7.5-6.2L76.2,9.6l-9.3-3L57.2,5.5m45.7,29-7.6-12L84.5,13.2,71.4,7.4,57.1,5.6m29.3,8.5L72.5,7.4,57.1,5.6M76.2,8.5,66.9,5.9l-9.8-.3m13.2.9L57.1,5.6m9.4,0H57.1m6.7-.5-6.7.5m4.5-.7-4.5.7m2.6-.9-2.6.9m.9-.9-.9.9m-.8-.9.8.9m-2.5-.9,2.5.9m-4.4-.7,4.4.7m-6.6-.5,6.6.5m-9.3-.1h9.3M44,6.4l13.1-.8M38.3,8.3l9.2-2.5,9.6-.3m-14.5,97,.4.1.4.1.5.1.5.1.5.1.5.1.6.1.6.1.6.1.6.1.6.1.7.1.7.1.7.1.7.1H62.4l.7-.1.7-.1.7-.1.7-.1.6-.1.6-.1.6-.1.6-.1.6-.1.5-.1.5-.1.5-.1.5-.1.4-.1.4-.1h.1M33.6,98.8h0l.4.2.4.2.5.2.5.2.6.2.6.2.6.2.7.2.7.2.8.2.8.1.8.1.8.1.9.1.9.1.9.1,1,.1,1,.1,1,.1,1,.1,1,.1,1,.1,1.1.1H63.7l1-.1,1-.1,1-.1,1-.1,1-.1,1-.1.9-.1.9-.1.9-.1.9-.1.8-.1.8-.1.8-.2.7-.2.7-.2.6-.2.6-.2.6-.2.5-.2.5-.2.4-.2.4-.2h.1m-55-5.2.2.1.4.3.4.3.5.3.6.2.6.2.7.2.7.2.8.2.8.2.9.2.9.2,1,.2,1,.2,1.1.2,1.1.2,1.1.2,1.2.1,1.2.1,1.2.1,1.3.1,1.3.1L46,98l1.3.1,1.3.1,1.4.1,1.4.1H62.6l1.4-.1,1.4-.1,1.3-.1L68,98l1.3-.1,1.3-.1,1.3-.1,1.2-.1,1.2-.1,1.2-.1,1.1-.2,1.1-.2,1.1-.2,1-.2,1-.2.9-.2.9-.2.8-.2.8-.2.7-.2.7-.2.6-.2.6-.2.5-.2.5-.3.4-.3.2-.2M19.3,87.4h0l.4.4.4.3.5.3.5.3.6.3.7.3.7.3.8.3.9.3.9.3,1,.3,1,.2,1.1.2,1.2.2,1.2.2,1.3.2,1.3.2,1.3.2,1.4.2,1.4.2,1.5.2,1.5.1,1.5.1,1.6.1,1.6.1,1.6.1,1.6.1,1.6.1H64l1.6-.1,1.6-.1,1.6-.1,1.6-.1L72,93l1.5-.1,1.5-.1,1.5-.2,1.4-.2,1.4-.2,1.4-.2,1.3-.2,1.3-.2,1.2-.2,1.2-.2,1.1-.2,1.1-.2,1-.3.9-.3.9-.3.8-.3.7-.3.7-.3.6-.3.5-.3.5-.3.4-.3.3-.3.1-.1M14.1,80.1l.1.1.3.4.4.4.4.4.5.3.6.3.7.3.8.3.8.3.9.3,1,.3,1,.3,1.1.3,1.2.3,1.2.3,1.3.3,1.4.3,1.4.2,1.5.2,1.5.2,1.6.2,1.6.2,1.7.2,1.7.2,1.7.1,1.8.1,1.8.1,1.8.1,1.8.1,1.9.1,1.9.1H62.9l1.9-.1,1.9-.1,1.8-.1,1.8-.1,1.8-.1,1.8-.1,1.7-.1,1.7-.2,1.7-.2,1.6-.2,1.6-.2,1.5-.2,1.5-.2,1.4-.2,1.4-.2,1.3-.3,1.3-.3,1.2-.3,1.1-.3,1.1-.3,1-.3.9-.3.8-.3.8-.3.7-.3.6-.3.5-.3.5-.4.4-.4.3-.4.1-.2m-90.4-8v.1l.2.4.4.4.4.4.5.4.6.4.7.4.7.4.8.4.9.4,1,.3,1.1.3,1.1.3,1.2.3,1.3.3,1.3.3,1.4.3,1.5.3,1.5.3,1.6.2,1.6.2,1.7.2,1.7.2,1.8.2,1.8.2,1.9.2,1.9.1,1.9.1,2,.1,2,.1,2,.1,2,.1h12l2-.1,2-.1,2-.1,2-.1,1.9-.1,1.9-.1,1.9-.2,1.8-.2,1.8-.2,1.8-.2,1.7-.2,1.7-.2,1.6-.2,1.5-.3,1.5-.3,1.4-.3,1.4-.3,1.3-.3,1.2-.3,1.1-.3,1.1-.3,1-.3.9-.4.8-.4.7-.4.7-.4.6-.4.5-.4.4-.4.3-.4.2-.4.1-.2M7.9,63.5h0L8,64l.2.4.3.4.5.4.5.4.6.4.7.4.8.4.9.4.9.4,1,.4,1.1.4,1.2.3L18,69l1.3.3,1.4.3,1.5.3,1.5.3,1.6.3,1.7.3,1.7.2,1.8.2,1.8.2,1.9.2,1.9.2,2,.2,2,.2,2,.1,2.1.1,2.1.1,2.1.1,2.1.1H63.1l2.1-.1,2.1-.1,2.1-.1,2.1-.1,2-.1,2-.1,2-.2,1.9-.2,1.9-.2,1.8-.2,1.8-.2,1.7-.2,1.7-.3,1.6-.3,1.6-.3,1.5-.3,1.4-.3,1.4-.3,1.3-.3,1.2-.3,1.1-.4,1-.4,1-.4.9-.4.8-.4.7-.4.6-.4.5-.4.4-.4.3-.4.2-.4.1-.4v-.1M7.1,54.7v.4l.1.4.2.4.3.4.4.4.5.4.6.4.8.4.8.4.9.4,1,.4,1,.4,1.1.4,1.2.3,1.3.3,1.4.3,1.4.3,1.5.3,1.6.3,1.6.3,1.7.3,1.8.2,1.8.2,1.9.2,1.9.2,2,.2,2,.2,2,.2,2.1.1,2.1.1,2.1.1,2.1.1,2.2.1H63.7l2.2-.1L68,64l2.1-.1,2.1-.1,2.1-.1,2-.1,2-.2,2-.2,1.9-.2,1.9-.2,1.8-.2,1.8-.2,1.7-.3,1.6-.3,1.6-.3,1.5-.3,1.4-.3,1.4-.3,1.3-.3,1.2-.3,1.1-.4,1.1-.4,1-.4.9-.4.5-.4.7-.4.6-.4.5-.4.4-.4.3-.4.2-.4.1-.4.1-.4h0m-99-9v.7l.1.4.2.4.3.4.5.5.5.4.6.4.7.4.8.4.9.4.9.4,1,.4,1.1.4,1.2.3L18,52l1.3.3,1.4.3,1.5.3,1.5.3,1.6.3,1.7.3,1.7.2,1.8.2,1.8.2,1.9.2,1.9.2,2,.2,2,.2,2,.1,2.1.1,2.1.1,2.1.1,2.1.1H63.1l2.1-.1,2.1-.1,2.1-.1,2.1-.1,2-.1,2-.1,2-.2,1.9-.2,1.9-.2,1.8-.2,1.8-.2,1.7-.2,1.7-.3,1.6-.3,1.6-.3,1.5-.3,1.4-.3,1.4-.3,1.3-.3,1.2-.3,1.1-.4,1-.4,1-.4.9-.4.8-.4.9-.5.6-.4.5-.4.4-.4.3-.4.2-.4.1-.4.1-.4v-.4m-96-8.6-.1.2-.1.4v.4l.1.4.4.4.3.4.4.4.5.4.6.4.7.4.7.4.8.4.9.4,1,.3,1.1.3,1.1.3,1.2.3,1.3.3,1.3.3,1.4.3,1.5.3,1.5.3,1.6.2,1.6.2,1.7.2,1.7.2,1.8.2,1.8.2,1.9.2,1.9.1,1.9.1,2,.1,2,.1,2,.1,2,.1h12l2-.1,2-.1,2-.1,2-.1,1.9-.1,1.9-.1,1.9-.2,1.8-.2,1.8-.2,1.8-.2,1.7-.2,1.7-.2,1.6-.2,1.5-.3,1.5-.3,1.4-.3,1.4-.3,1.3-.3,1.2-.3,1.1-.3,1.1-.3,1-.3.9-.4.8-.4.7-.4.7-.4.6-.4.5-.4.4-.4.3-.4.2-.4.1-.4.1-.4v-.4l-.1-.3M14.1,29.2l-.1.2-.1.4v.8l.1.4.2.4.3.4.4.4.4.4.5.3.6.3.7.3.8.3.8.3.9.3,1,.3,1,.3,1.1.3,1.2.3,1.2.3,1.3.3,1.4.3,1.4.2,1.5.2,1.5.2,1.6.2,1.6.2,1.7.2,1.7.2,1.7.1,1.8.1,1.8.1,1.8.1,1.8.1,1.9.1,1.9.1H62.9l1.9-.1,1.9-.1,1.8-.1L70,38l1.8-.1,1.8-.1,1.7-.1,1.7-.2,1.7-.2,1.6-.2,1.6-.2,1.5-.2,1.5-.2,1.4-.2,1.4-.2,1.3-.3,1.3-.3,1.2-.3,1.1-.3,1.1-.3,1-.3.9-.3.8-.3.8-.3.7-.3.6-.3.5-.3.5-.4.4-.4.3-.4.2-.4.1-.4v-.8l-.1-.4-.1-.2m-81-7.2-.2.2-.2.3-.1.3v.6l.1.3.2.3.2.3.3.3.4.3.5.3.5.3.6.3.7.3.7.3.8.3.9.3.9.3,1,.3,1,.2,1.1.2,1.2.2,1.2.2,1.3.2,1.3.2,1.3.2,1.4.2,1.4.2,1.5.2,1.5.1,1.5.1,1.6.1,1.6.1,1.6.1,1.6.1,1.6.1H63.9l1.6-.1,1.6-.1,1.6-.1,1.6-.1,1.6-.1,1.5-.1,1.5-.1,1.5-.2,1.4-.2,1.4-.2,1.4-.2,1.3-.2,1.3-.2,1.2-.2,1.2-.2,1.1-.2,1.1-.2,1-.3.9-.3.9-.3.8-.3.7-.3.7-.3.6-.3.5-.3.5-.3.4-.3.3-.3.3-.3.2-.3.1-.3v-.6l-.1-.3-.2-.3-.2-.3M25.8,15.6h0l-.3.4-.2.3-.2.3-.1.2v.6l.1.3.1.3.2.3.3.3.3.3.4.3.4.3.5.3.6.2.6.2.7.2.7.2.8.2.8.2.9.2.9.2,1,.2,1,.2,1.1.2,1.1.2,1.1.2,1.2.1,1.2.1,1.2.1,1.3.1,1.3.1,1.3.1,1.3.1,1.3.1,1.4.1,1.4.1H62.7l1.4-.1,1.4-.1,1.3-.1,1.3-.1,1.3-.1,1.3-.1,1.3-.1,1.2-.1,1.2-.1,1.2-.1,1.1-.2,1.1-.2,1.1-.2,1-.2,1-.2.9-.2.9-.2.8-.2.8-.2.7-.2.7-.2.6-.2.6-.2.5-.2.5-.3.4-.3.3-.3.3-.3.2-.3.2-.3.1-.3v-.6l-.1-.3-.3-.3-.2-.3-.3-.3-.1-.1M33,10.9l-.3.2-.2.2-.2.2-.1.2-.1.2v.4l.1.2.1.2.2.2.2.2.3.2.3.2.3.2.4.3.4.2.5.2.5.2.6.2.6.2.6.2.7.2.7.2.8.2.8.1.8.1.8.1.9.1.9.1.9.1,1,.1,1,.1,1,.1,1,.1,1,.1,1,.1,1.1.1H63.7l1-.1,1-.1,1-.1,1-.1,1-.1,1-.1.9-.1.9-.1.9-.1.9-.1.8-.1.8-.1.8-.2.7-.2.7-.2.6-.2.6-.2.6-.2.5-.2.5-.2.4-.2.4-.2.4-.2.3-.2.3-.2.2-.2.2-.2.1-.2.1-.2v-.4l-.3-.3-.1-.2-.2-.2-.2-.2-.3-.2-.2-.3-.3-.2m-47.1.1-.3.2-.3.1m7.6-3.2-.2.1-.1.2-.1.1-.1.1-.1.2v.3l.1.3.1.1.1.1.2.1.2.1.3.3.3.1.3.1.3.1.4.1.4.1.4.1.4.1.5.1.5.1.5.1.5.1.6.1.6.1.6.1.6.1.6.1.7.1.7.1.7.1.7.1H62.5l.7-.1.7-.1.7-.1.7-.1.6-.1.6-.1.6-.1.6-.1.6-.1.5-.1.5-.1.5-.1.5-.1.4-.1.4-.1.4-.1.4-.1.3-.1.3-.1.3-.1.2-.1.2-.1.2-.1.1-.1L74,9l.1-.1.1-.1V8.5l-.1-.1L73.9,8l-.1-.1-.2-.1-.2-.1-.2-.1-.3-.1-.3-.1-.3-.1-.4-.1-.4-.1h0M42.6,6.8l-.3.1-.4.1-.3.1-.3.1-.3.2-.2.1-.2.1m8.1-1.7h0l-.2.1-.1.1v.6l.1.1.1.1.1.1.1.1.1.1.2-.2h.1l.2.1.2.1.2.1H50l.2.1.2.1.2.1.3.1.3.1H63.5l.3-.1.3-.1L64,7.4l.2-.1.2-.1.2-.1.2-.1h.3l.1-.1.1-.1.1-.1.1-.1.1-.1.1-.1V5.8l-.1-.1V6l-.1-.1-.1-.1-.1-.1-.1-.1H65l-.2-.1-.2-.1-.2-.1-.2-.1-.2.1-.2-.1-.2-.1L63.3,5l-.3.1H50.7l-.3.1-.3.1-.2.1H50l-.2.1-.2.1-.2.1-.2.1-.2.1-.1.1-.1.1-.1-.2" transform="translate(-0.5)"/><circle id="insetmap-highlight" class="cls-33" cx="56.6" cy="54.7" r="5"/></g></g><path class="cls-33" d="M333.8,279.9c-1.2-6.7-10-6.8-10.2-6.8s-9,0-10.2,6.8c-1.3,7.4,8.5,15.9,10.1,17v.1l.1-.1a.1.1,0,0,1,.1.1v-.1C325.3,295.7,335.1,287.3,333.8,279.9Z" transform="translate(-0.5)"/><circle class="cls-31" cx="323.1" cy="282.7" r="4.7"/><line class="cls-34" x1="0.5" y1="400" x2="599.5" y2="400"/></g><g id="Livello_3" data-name="Livello 3"><path class="cls-35" d="M158.9,97.7a6,6,0,0,0-3.9,1.8,38.76,38.76,0,0,1-3.1,2.6c-1.7,1.1-3,.7-5-.7-1.4-.9-1.3-2.2-.6-3.7a5.88,5.88,0,0,0-4.1,1.9,13.68,13.68,0,0,1-3.9,2.9c-.5.2-1,.6-1.3-.1s.3-.8.8-1a11.33,11.33,0,0,0,3.7-2.8,8.05,8.05,0,0,1,6.1-2.3c.4,0,.8,0,1,.5s-.2.6-.4.9c-.6.7-1.5,1.3-.8,2.3a3.39,3.39,0,0,0,3.6,1.1,14,14,0,0,0,3-2.3,8.15,8.15,0,0,1,6.3-2.5c.4,0,.8,0,1,.4s-.2.7-.5,1c-.6.6-1.4,1.2-.8,2.2a3.61,3.61,0,0,0,3.5,1.2,13.12,13.12,0,0,0,3.5-2.7,8.05,8.05,0,0,1,5.9-2.2c.4,0,.9,0,1.1.5s-.3.7-.5,1c-1.4,1.5-1.3,2.3.6,3.1.5.2,1.1.4,1.7.6a.62.62,0,0,1,.5.8c-.1.4-.4.5-.8.4a7.24,7.24,0,0,1-3.6-1.8c-1-1-.7-2.1-.1-3.3a5.28,5.28,0,0,0-3.7,1.6,19.9,19.9,0,0,1-3.6,2.9,4.38,4.38,0,0,1-4.9-.9C158.4,100.4,158.3,99.6,158.9,97.7Z" transform="translate(-0.5)"/><path class="cls-35" d="M165,90.4a6.3,6.3,0,0,0-3.5,1.6l-2.4,2.1a3.92,3.92,0,0,1-4.9.5c-2-1.1-2.5-2.2-1.5-4.3a5.94,5.94,0,0,0-3.8,1.6,19.9,19.9,0,0,1-3.6,2.9,6.94,6.94,0,0,1-1.3.5.57.57,0,0,1-.7-.4.52.52,0,0,1,.3-.7c2.3-.8,3.6-2.7,5.5-4a8,8,0,0,1,5-1.3c.3,0,.7,0,.8.4s0,.6-.3.8c-1.7,1.9-1.5,2.7.9,3.6a2.23,2.23,0,0,0,2.1-.2,16.13,16.13,0,0,0,2.8-2.4,7.62,7.62,0,0,1,6.1-2.2c.3,0,.8-.1.9.3s-.1.7-.4,1c-1.5,1.5-1.3,2.4.6,3.2.6.2,1.1.4,1.7.6a.53.53,0,0,1,.4.7c0,.2-.2.4-.5.5-1.3.4-4.3-1.6-4.5-2.9a4,4,0,0,1,.3-1.9c0-.1.1-.1.1-.2C165.2,90.4,165.1,90.4,165,90.4Z" transform="translate(-0.5)"/><path class="cls-35" d="M165.3,104.7a6.63,6.63,0,0,0-3.8,1.7c-1.3,1.1-2.4,2.4-4.1,3.1s-4.7-.8-5.2-2.4a3,3,0,0,1,.5-2.4,5.15,5.15,0,0,0-3.6,1.5c-.9.7-1.7,1.5-2.5,2.2a7,7,0,0,1-2.4,1.3c-.4.1-.7.1-.9-.3a.57.57,0,0,1,.4-.8,12.84,12.84,0,0,0,4-2.9,8,8,0,0,1,6.2-2.2c.4,0,.8,0,.9.4s-.2.6-.4.9c-.7.6-1.4,1.3-.8,2.3s2.7,1.6,3.5,1.2a11.86,11.86,0,0,0,3.3-2.6,7.91,7.91,0,0,1,6.2-2.3c.4,0,.7,0,.9.4s-.1.6-.4.9c-1.6,1.6-1.4,2.5.7,3.4.4.2.9.3,1.4.5s.7.3.6.8-.4.5-.8.4a7.27,7.27,0,0,1-3.1-1.4C164.7,107.4,164.6,106.6,165.3,104.7Z" transform="translate(-0.5)"/><path class="cls-35" d="M165,90.4a.37.37,0,0,1,.3.1c0,.1-.1.1-.1.2C165.1,90.6,165.1,90.5,165,90.4Z" transform="translate(-0.5)"/><path class="cls-35" d="M470.6,72.6a6,6,0,0,0-3.9,1.8,38.76,38.76,0,0,1-3.1,2.6c-1.7,1.1-3,.7-5-.7-1.4-.9-1.3-2.2-.6-3.7a5.88,5.88,0,0,0-4.1,1.9,13.68,13.68,0,0,1-3.9,2.9c-.5.2-1,.6-1.3-.1s.3-.8.8-1a11.33,11.33,0,0,0,3.7-2.8,8.05,8.05,0,0,1,6.1-2.3c.4,0,.8,0,1,.5s-.2.6-.4.9c-.6.7-1.5,1.3-.8,2.3a3.39,3.39,0,0,0,3.6,1.1,14,14,0,0,0,3-2.3,8.15,8.15,0,0,1,6.3-2.5c.4,0,.8,0,1,.4s-.2.7-.5,1c-.6.6-1.4,1.2-.8,2.2a3.61,3.61,0,0,0,3.5,1.2,13.12,13.12,0,0,0,3.5-2.7,8.05,8.05,0,0,1,5.9-2.2c.4,0,.9,0,1.1.5s-.3.7-.5,1c-1.4,1.5-1.3,2.3.6,3.1.5.2,1.1.4,1.7.6a.62.62,0,0,1,.5.8c-.1.4-.4.5-.8.4a7.24,7.24,0,0,1-3.6-1.8c-1-1-.7-2.1-.1-3.3a5.28,5.28,0,0,0-3.7,1.6,19.9,19.9,0,0,1-3.6,2.9,4.38,4.38,0,0,1-4.9-.9C470.1,75.3,470,74.5,470.6,72.6Z" transform="translate(-0.5)"/><path class="cls-35" d="M476.7,65.3a6.3,6.3,0,0,0-3.5,1.6L470.8,69a3.92,3.92,0,0,1-4.9.5c-2-1.1-2.5-2.2-1.5-4.3a5.94,5.94,0,0,0-3.8,1.6,19.9,19.9,0,0,1-3.6,2.9,6.94,6.94,0,0,1-1.3.5.57.57,0,0,1-.7-.4.52.52,0,0,1,.3-.7c2.3-.8,3.6-2.7,5.5-4a8,8,0,0,1,5-1.3c.3,0,.7,0,.8.4s0,.6-.3.8c-1.7,1.9-1.5,2.7.9,3.6a2.23,2.23,0,0,0,2.1-.2,16.13,16.13,0,0,0,2.8-2.4,7.62,7.62,0,0,1,6.1-2.2c.3,0,.8-.1.9.3s-.1.7-.4,1c-1.5,1.5-1.3,2.4.6,3.2.6.2,1.1.4,1.7.6a.53.53,0,0,1,.4.7c0,.2-.2.4-.5.5-1.3.4-4.3-1.6-4.5-2.9a4,4,0,0,1,.3-1.9c0-.1.1-.1.1-.2C476.9,65.4,476.8,65.4,476.7,65.3Z" transform="translate(-0.5)"/><path class="cls-35" d="M477,79.7a6.63,6.63,0,0,0-3.8,1.7c-1.3,1.1-2.4,2.4-4.1,3.1s-4.7-.8-5.2-2.4a3,3,0,0,1,.5-2.4,5.15,5.15,0,0,0-3.6,1.5c-.9.7-1.7,1.5-2.5,2.2a7,7,0,0,1-2.4,1.3c-.4.1-.7.1-.9-.3a.57.57,0,0,1,.4-.8,12.84,12.84,0,0,0,4-2.9,8,8,0,0,1,6.2-2.2c.4,0,.8,0,.9.4s-.2.6-.4.9c-.7.6-1.4,1.3-.8,2.3s2.7,1.6,3.5,1.2a11.86,11.86,0,0,0,3.3-2.6,7.91,7.91,0,0,1,6.2-2.3c.4,0,.7,0,.9.4s-.1.6-.4.9c-1.6,1.6-1.4,2.5.7,3.4.4.2.9.3,1.4.5s.7.3.6.8-.4.5-.8.4a7.27,7.27,0,0,1-3.1-1.4C476.4,82.4,476.3,81.6,477,79.7Z" transform="translate(-0.5)"/><path class="cls-35" d="M476.7,65.3a.37.37,0,0,1,.3.1c0,.1-.1.1-.1.2C476.8,65.5,476.8,65.4,476.7,65.3Z" transform="translate(-0.5)"/></g></svg>