<svg xmlns="http://www.w3.org/2000/svg" viewBox="0 0 65 65"><defs><style>.cls-1{fill:#1e275a;}.cls-2{fill:#f207a1;}</style></defs><g id="Livello_2" data-name="Livello 2"><g id="Livello_3" data-name="Livello 3"><circle class="cls-1" cx="32.5" cy="32.5" r="32.5"/><path class="cls-2" d="M51.49,18.94A4.51,4.51,0,0,0,48,26.25l-7.36,3.92-6.5-9.72A4.83,4.83,0,1,0,27,16.21a4.68,4.68,0,0,0,2.47,4.18l-7,9.78-6.6-3.76A4.5,4.5,0,1,0,8,23.4a4.51,4.51,0,0,0,3.28,4.3l2.31,17.23a3.39,3.39,0,0,0,3.32,2.9H46.66A3.37,3.37,0,0,0,50,44.93l2.3-17.07a4.49,4.49,0,0,0-.8-8.92Zm-19.7-4.29a1.61,1.61,0,1,1-1.61,1.61A1.58,1.58,0,0,1,31.79,14.65ZM24.22,33.23,31.73,22.7l7,10.47a1.64,1.64,0,0,0,2.1.54l8-4.3-1.23,9.13H16l-1.18-9,7.35,4.19a1.68,1.68,0,0,0,2.1-.48ZM12.51,22.17a1.29,1.29,0,1,1-1.29,1.28A1.3,1.3,0,0,1,12.51,22.17ZM46.66,44.61H16.91c-.05,0-.16-.06-.16-.11l-.37-2.74H47.14l-.38,2.74a.12.12,0,0,1-.1.11Zm4.83-19.92a1.29,1.29,0,1,1,1.29-1.29A1.31,1.31,0,0,1,51.49,24.69Z"/></g></g></svg>