<svg xmlns="http://www.w3.org/2000/svg" viewBox="0 0 65 65"><defs><style>.cls-1{fill:#1e275a;}.cls-2{fill:#f207a1;fill-rule:evenodd;}</style></defs><g id="Livello_2" data-name="Livello 2"><g id="Livello_3" data-name="Livello 3"><circle class="cls-1" cx="32.5" cy="32.5" r="32.5"/><path class="cls-2" d="M32.84,8.06h0a1.36,1.36,0,0,0-.29,0h0l-.07,0h0l-.21.09,0,0h0l0,0h0l0,0-.19.15,0,0-.05,0h0l-.05.06h0L26,15.77a1.45,1.45,0,0,0-.32,1l1.34,20H25.7a1.43,1.43,0,0,0-1.44,1.44V44a1.42,1.42,0,0,0,.42,1,1.45,1.45,0,0,0,1,.42h2.87v7.18a1.43,1.43,0,0,0,.42,1A1.45,1.45,0,0,0,30,54h5.74a1.43,1.43,0,0,0,1.44-1.44V45.38h2.87a1.45,1.45,0,0,0,1-.42,1.42,1.42,0,0,0,.42-1V38.21a1.43,1.43,0,0,0-1.44-1.44H38.72l1.34-20a1.45,1.45,0,0,0-.32-1l-5.68-7.1a1.5,1.5,0,0,0-.76-.55h0l-.12,0h-.29Zm-1.4,5.53V36.77H29.91l-1.3-19.64Zm2.88,0,2.83,3.54L35.84,36.77H34.32ZM27.14,39.65H38.63v2.87H27.14Zm4.3,5.73h2.88v5.75H31.44Z"/><path class="cls-2" d="M12.83,15a1.44,1.44,0,0,1,2-.1l1.06,1,1-1.07a1.38,1.38,0,0,1,1-.46,1.44,1.44,0,0,1,1.51,1.36,1.49,1.49,0,0,1-.37,1l-1,1.07,1.06,1a1.47,1.47,0,0,1,.47,1,1.4,1.4,0,0,1-.37,1,1.45,1.45,0,0,1-1,.47,1.48,1.48,0,0,1-1-.37l-1.06-1-1,1.06a1.44,1.44,0,0,1-2,.1,1.44,1.44,0,0,1-.1-2L14,18l-1.07-1a1.47,1.47,0,0,1-.47-1,1.44,1.44,0,0,1,.37-1Z"/><path class="cls-2" d="M16,22.21a1.43,1.43,0,0,1-1.44-1.43V19.34H13.15a1.42,1.42,0,0,1-1-.42,1.45,1.45,0,0,1-.42-1,1.43,1.43,0,0,1,1.43-1.43h1.44V15a1.44,1.44,0,0,1,2.87,0v1.44h1.43a1.45,1.45,0,0,1,1,.42,1.42,1.42,0,0,1,.42,1,1.43,1.43,0,0,1-1.44,1.44H17.46v1.44A1.43,1.43,0,0,1,16,22.21Z"/><circle class="cls-1" cx="16" cy="18" r="1"/><path class="cls-2" d="M44.27,32.46a1.47,1.47,0,0,1,1-.47,1.44,1.44,0,0,1,1,.37l1.07,1,1-1.07a1.47,1.47,0,0,1,1-.47,1.45,1.45,0,0,1,1,.38,1.43,1.43,0,0,1,.1,2l-1,1.07,1.06,1a1.44,1.44,0,0,1,.1,2,1.43,1.43,0,0,1-2,.1l-1.07-1-1,1.06a1.44,1.44,0,0,1-2,.1,1.43,1.43,0,0,1-.47-1,1.48,1.48,0,0,1,.37-1l1-1.06-1.06-1a1.39,1.39,0,0,1-.47-1,1.43,1.43,0,0,1,.36-1Z"/><path class="cls-2" d="M47.47,39.66a1.45,1.45,0,0,1-1-.42,1.43,1.43,0,0,1-.42-1V36.79H44.59a1.42,1.42,0,0,1-1-.42,1.45,1.45,0,0,1-.42-1,1.43,1.43,0,0,1,1.43-1.43H46V32.48a1.42,1.42,0,0,1,.42-1,1.46,1.46,0,0,1,1-.43,1.48,1.48,0,0,1,1,.43,1.42,1.42,0,0,1,.42,1v1.44h1.44a1.43,1.43,0,0,1,1.43,1.43,1.45,1.45,0,0,1-.42,1,1.42,1.42,0,0,1-1,.42H48.9v1.43a1.43,1.43,0,0,1-1.43,1.44Z"/><circle class="cls-1" cx="47.44" cy="35.45" r="1"/></g></g></svg>