<svg xmlns="http://www.w3.org/2000/svg" viewBox="0 0 65 65"><defs><style>.cls-1{fill:#1e275a;}.cls-2{fill:#f207a1;}</style></defs><g id="Livello_2" data-name="Livello 2"><g id="Livello_3" data-name="Livello 3"><circle class="cls-1" cx="32.5" cy="32.5" r="32.5"/><path class="cls-2" d="M50,35a.63.63,0,0,0-.56-.12L41.66,36.8a.65.65,0,0,0-.49.63V44.8a3.33,3.33,0,0,0-1.29-.25c-1.45,0-2.59.85-2.59,1.94s1.14,1.94,2.59,1.94,2.59-.85,2.59-1.94V41.17l6.47-1.62v3.31a3.33,3.33,0,0,0-1.29-.25c-1.46,0-2.59.85-2.59,1.94s1.13,1.94,2.59,1.94,2.59-.85,2.59-1.94V35.49A.66.66,0,0,0,50,35Zm-7.52,4.86v-1.9l6.47-1.62v1.9Z"/><path class="cls-2" d="M16.39,40.86a.65.65,0,0,0-.71-.14.64.64,0,0,0-.4.59v7.38A3.33,3.33,0,0,0,14,48.43c-1.45,0-2.59.86-2.59,2s1.14,1.94,2.59,1.94,2.59-.86,2.59-1.94v-7.5L18.71,45a.65.65,0,0,0,.91-.92Z"/><path class="cls-2" d="M44.41,25.13c1.45,0,2.59-.85,2.59-1.94v-7.5l2.13,2.13a.65.65,0,1,0,.92-.92l-3.24-3.23a.64.64,0,0,0-1.1.46V21.5a3.35,3.35,0,0,0-1.3-.25c-1.45,0-2.59.85-2.59,1.94s1.14,1.94,2.59,1.94Z"/><path class="cls-2" d="M37.29,26.43a.63.63,0,0,0-.25-.51.61.61,0,0,0-.55-.12l-7.77,1.94a.64.64,0,0,0-.49.63v7.37a3.35,3.35,0,0,0-1.3-.25c-1.45,0-2.59.85-2.59,1.94s1.14,1.94,2.59,1.94,2.59-.85,2.59-1.94V32.11L36,30.49V33.8a3.35,3.35,0,0,0-1.3-.25c-1.45,0-2.59.85-2.59,1.94s1.14,1.94,2.59,1.94,2.59-.85,2.59-1.94Zm-7.77,4.34v-1.9L36,27.25v1.91Z"/><path class="cls-2" d="M24.34,18a.65.65,0,0,0-.8-.63l-7.77,1.94a.66.66,0,0,0-.49.63v7.38A3.16,3.16,0,0,0,14,27.07c-1.46,0-2.59.86-2.59,1.94S12.53,31,14,31s2.59-.86,2.59-1.95V23.69l6.47-1.61v3.3a3.35,3.35,0,0,0-1.3-.25c-1.45,0-2.58.85-2.58,1.94S20.3,29,21.75,29s2.59-.86,2.59-1.95Zm-7.76,4.35v-1.9l6.47-1.62v1.9Z"/><path class="cls-2" d="M30.41,18.06l-.31,1.78a.65.65,0,0,0,.94.69l1.6-.85,1.6.85a.66.66,0,0,0,.3.07.64.64,0,0,0,.38-.12.66.66,0,0,0,.26-.64l-.3-1.78,1.29-1.26a.65.65,0,0,0-.36-1.11L34,15.43l-.8-1.62a.65.65,0,0,0-1.16,0l-.8,1.62-1.79.26a.65.65,0,0,0-.52.44.64.64,0,0,0,.16.67Z"/><path class="cls-2" d="M22.5,31.91l-1.8-.26L19.9,30a.63.63,0,0,0-.58-.36.66.66,0,0,0-.58.36l-.8,1.63-1.79.26a.64.64,0,0,0-.52.44.65.65,0,0,0,.16.66l1.3,1.26-.31,1.78a.65.65,0,0,0,.94.69l1.6-.84,1.61.84a.6.6,0,0,0,.3.07.68.68,0,0,0,.38-.12.63.63,0,0,0,.25-.64l-.3-1.78L22.85,33a.65.65,0,0,0,.17-.66.64.64,0,0,0-.52-.44Z"/><path class="cls-2" d="M33.83,42.88,32,42.62,31.24,41a.65.65,0,0,0-1.16,0l-.8,1.63-1.79.26a.64.64,0,0,0-.53.44.65.65,0,0,0,.17.66l1.29,1.26L28.12,47a.65.65,0,0,0,.26.63.66.66,0,0,0,.68.05l1.6-.84,1.6.84a.66.66,0,0,0,.3.07.64.64,0,0,0,.38-.12A.65.65,0,0,0,33.2,47l-.31-1.79L34.19,44a.65.65,0,0,0-.36-1.1Z"/><path class="cls-2" d="M50.24,29h-.65v-.64a.65.65,0,0,0-1.3,0V29h-.64a.65.65,0,0,0,0,1.3h.64V31a.65.65,0,0,0,1.3,0v-.65h.65a.65.65,0,0,0,0-1.3Z"/><path class="cls-2" d="M40.53,32.9h.64v.65a.65.65,0,0,0,1.3,0V32.9h.65a.65.65,0,0,0,0-1.3h-.65V31a.65.65,0,1,0-1.3,0v.64h-.64a.65.65,0,0,0,0,1.3Z"/><path class="cls-2" d="M49.55,49.69H48.9V49a.65.65,0,1,0-1.29,0v.65H47A.65.65,0,1,0,47,51h.65v.65a.65.65,0,1,0,1.29,0V51h.65a.65.65,0,1,0,0-1.29Z"/><path class="cls-2" d="M27.58,24.48h.65v.65a.65.65,0,1,0,1.29,0v-.65h.65a.65.65,0,1,0,0-1.29h-.65v-.65a.65.65,0,1,0-1.29,0v.65h-.65a.65.65,0,1,0,0,1.29Z"/><path class="cls-2" d="M12,16.07h.65v.65a.65.65,0,0,0,1.3,0v-.65h.64a.65.65,0,1,0,0-1.3H14v-.64a.65.65,0,1,0-1.3,0v.64H12a.65.65,0,0,0,0,1.3Z"/><path class="cls-2" d="M32.11,49.73h-.65v-.65a.65.65,0,1,0-1.29,0v.65h-.65a.65.65,0,0,0,0,1.29h.65v.65a.65.65,0,1,0,1.29,0V51h.65a.65.65,0,1,0,0-1.29Z"/></g></g></svg>