<svg xmlns="http://www.w3.org/2000/svg" viewBox="0 0 65 65"><defs><style>.cls-1{fill:#1e275a;}.cls-2{fill:#f207a1;}</style></defs><g id="Livello_2" data-name="Livello 2"><g id="Livello_3" data-name="Livello 3"><circle class="cls-1" cx="32.5" cy="32.5" r="32.5"/><path class="cls-2" d="M50.81,35.86a3.54,3.54,0,0,0-2.23-1.23L48,32.18a4.21,4.21,0,0,0-1.49-2.29A4.14,4.14,0,0,0,43.9,29H41.43a3.39,3.39,0,0,0,.3-1.4,3.27,3.27,0,0,0-.08-.7l4-2.5a1.55,1.55,0,0,0,0-2.59,1.57,1.57,0,0,0-1.47-.14l-4,1.7L37,22.71H34.73V21.28a3.45,3.45,0,0,0,1.4-2.78V17.3a1.32,1.32,0,0,1,.7-.2,1.4,1.4,0,0,1,1.4,1.4.68.68,0,0,0,.2.49.69.69,0,0,0,.5.21,1.4,1.4,0,0,1,1.4,1.4.7.7,0,0,0,1.4,0,2.81,2.81,0,0,0-.61-1.74,2.74,2.74,0,0,0-1.56-1,2.82,2.82,0,0,0-1.63-1.94l.61-.3h0a.69.69,0,0,0,.32-.93.71.71,0,0,0-.94-.32l-.63.31a2.33,2.33,0,0,0-.66-3h0a2,2,0,0,0-2.05.15,2.11,2.11,0,0,0-.68-1.22,2.22,2.22,0,0,0-1.27-.55,2.19,2.19,0,0,0-1.28.56,2.09,2.09,0,0,0-.67,1.21,2,2,0,0,0-2.05-.15,2.34,2.34,0,0,0-.66,3l-.63-.32a.7.7,0,0,0-.62,1.26l.61.3a2.8,2.8,0,0,0-1.63,1.94,2.81,2.81,0,0,0-2.17,2.73,2.56,2.56,0,0,0,.13.82A2.63,2.63,0,0,0,23,22.51L21,21.67h0a1.54,1.54,0,0,0-1.47.13,1.55,1.55,0,0,0,0,2.6l4,2.5a3.27,3.27,0,0,0-.08.7,3.39,3.39,0,0,0,.3,1.4H21.36a4.2,4.2,0,0,0-4.08,3.18l-.61,2.45a3.52,3.52,0,0,0-2.22,1.23l-1.69,2A4.92,4.92,0,0,0,11.63,41V44.4a1,1,0,0,0,0,.17l.43,1.74h0a2.17,2.17,0,0,0,.6,1,2.1,2.1,0,0,0,1.05.53V50a2.1,2.1,0,0,0,2.1,2.1h2.8a2.12,2.12,0,0,0,2.1-2.1V47.9H27a.7.7,0,0,0,0-1.4H14.12a.71.71,0,0,1-.68-.53L13,44.31v-2h7a.67.67,0,0,0,.49-.21.65.65,0,0,0,.21-.49,4.83,4.83,0,0,0-1.15-3.12,4.76,4.76,0,0,0-2.9-1.6l-1.1-.17A2.07,2.07,0,0,1,17.14,36h.06c1.3.12,2.68.22,4.2.33a.7.7,0,0,0,.74-.66.68.68,0,0,0-.65-.74c-1.21-.08-2.32-.17-3.38-.26l.53-2.15h0a2.8,2.8,0,0,1,1.42-1.8l2.67,2.67h0a.7.7,0,0,0,1-1l-2-2h2.22l4.84,4.84c-1.5,0-3-.08-4.51-.15h0a.69.69,0,0,0-.73.66.7.7,0,0,0,.66.74q4.23.21,8.47.21c5.15,0,10.3-.24,15.38-.7h.06a2.1,2.1,0,0,1,1.57.71l-1.1.17h0a4.77,4.77,0,0,0-4,4.72.68.68,0,0,0,.2.49.67.67,0,0,0,.5.21h4.9a.7.7,0,1,0,0-1.4H46a3.35,3.35,0,0,1,2.79-2.64l1.94-.3.68.82A3.47,3.47,0,0,1,52.23,41V43.7H15.13a.7.7,0,1,0,0,1.4H52l-.22.87h0a.69.69,0,0,1-.68.53H29.83a.7.7,0,0,0,0,1.4h14.7V50a2.1,2.1,0,0,0,2.1,2.1h2.8a2.12,2.12,0,0,0,2.1-2.1V47.86a2.1,2.1,0,0,0,1-.53,2.07,2.07,0,0,0,.59-1l.44-1.74h0a1,1,0,0,0,0-.17V41a4.87,4.87,0,0,0-1.14-3.14Zm-31.48,12V50a.65.65,0,0,1-.21.49.67.67,0,0,1-.49.21h-2.8a.7.7,0,0,1-.7-.7V47.9Zm-.81-8.51a3.45,3.45,0,0,1,.74,1.51H13a3.49,3.49,0,0,1,.8-2.12l.68-.82,1.94.3a3.39,3.39,0,0,1,2.06,1.13ZM36.73,29a5.29,5.29,0,0,0,.73-2l1.91.38h0a2.7,2.7,0,0,0,.94,0,.88.88,0,0,1,0,.16,2,2,0,0,1-.57,1.4ZM30.2,29l-.41-.62h0a3.81,3.81,0,0,1-.4-.81,1.32,1.32,0,0,1,1.06-.67A1.39,1.39,0,0,1,31,27a5,5,0,0,0,3.28,0,1.3,1.3,0,0,1,.91,0,1.33,1.33,0,0,1,.69.59,3.82,3.82,0,0,1-.4.81l-.42.62Zm10-4.21a.72.72,0,0,0,.41-.05L44.77,23h0a.14.14,0,1,1,.13.25l-4.24,2.65h0a1.38,1.38,0,0,1-1,.19L37,25.51a.68.68,0,0,0-.78.42,2.56,2.56,0,0,0-.6-.29L36,24.1h.78ZM34,24.1h.5l-.36,1.47a2.37,2.37,0,0,0-.36.09,3.51,3.51,0,0,1-2.35,0,2.37,2.37,0,0,0-.36-.09l-.37-1.47h.5a.67.67,0,0,0,.49-.21.65.65,0,0,0,.21-.49V21.93a3.66,3.66,0,0,0,1.4,0V23.4a.68.68,0,0,0,.2.49.69.69,0,0,0,.5.21Zm-.7-8.4a.7.7,0,0,1-1.2.49.69.69,0,0,1-.15-.76.71.71,0,0,1,.65-.43.7.7,0,0,1,.49.2A.69.69,0,0,1,33.33,15.7Zm1.4,2.8a2.1,2.1,0,1,1-4.2,0V17.1a.6.6,0,0,1,.07-.3l.23,0a2.09,2.09,0,0,0,3.6,0l.22,0a.61.61,0,0,1,.08.3Zm1.19-5.56c.25.14.34.82-.09,1.56h0a1.54,1.54,0,0,1-1.13.88,2.12,2.12,0,0,0-.35-.88,3.61,3.61,0,0,0,.24-.65l0,0c.43-.74,1.06-1,1.3-.86ZM32.63,11.5c.28,0,.7.55.7,1.4a2.08,2.08,0,0,1-.15.78,1.91,1.91,0,0,0-1.11,0,2.29,2.29,0,0,1-.14-.78c0-.86.41-1.4.7-1.4Zm-3.3,1.44c.25-.15.88.12,1.32.88l0,0h0a3,3,0,0,0,.24.65,2.21,2.21,0,0,0-.35.89,1.58,1.58,0,0,1-1.13-.89c-.43-.74-.34-1.42-.1-1.56Zm-4.45,9.28a.7.7,0,0,0,.24-.94,1.34,1.34,0,0,1-.19-.68,1.4,1.4,0,0,1,1.4-1.4.67.67,0,0,0,.49-.21A.65.65,0,0,0,27,18.5a1.4,1.4,0,0,1,1.4-1.4,1.32,1.32,0,0,1,.7.2v1.2a3.45,3.45,0,0,0,1.4,2.78V22.7H28.29L25,23.37l-.73-.31a1.41,1.41,0,0,1,.61-.84ZM20.3,23a.14.14,0,0,1,.19-.07l4.16,1.78a.67.67,0,0,0,.42,0l3.43-.68h.78l.39,1.54a2.77,2.77,0,0,0-.6.29.68.68,0,0,0-.78-.42l-2.68.54h0a1.41,1.41,0,0,1-1-.19l-4.24-2.65A.14.14,0,0,1,20.3,23Zm4.63,4.57a.88.88,0,0,1,0-.16,2.64,2.64,0,0,0,.93,0L27.8,27a5.29,5.29,0,0,0,.73,2h-3a2,2,0,0,1-.56-1.4Zm5.87,7.68L25.92,30.4H33l4.81,4.81q-3.52.1-7,.07Zm13-.35-3-3a.7.7,0,0,0-1,1l2.1,2.1-2.12.1L35,30.4H43.9a2.82,2.82,0,0,1,1.72.59,2.88,2.88,0,0,1,1,1.53l.53,2.15c-1.13.1-2.27.18-3.4.26ZM50.13,50a.72.72,0,0,1-.7.7h-2.8a.7.7,0,0,1-.7-.7V47.9h4.2Z"/><path class="cls-2" d="M41,39.5a.7.7,0,0,0,0-1.4H24.23a.7.7,0,0,0-.7.7v2.8a.68.68,0,0,0,.2.49.69.69,0,0,0,.5.21H41a.7.7,0,1,0,0-1.4h-2.1V39.5Zm-10.5,0h1.4v1.4h-1.4Zm-1.4,1.4h-1.4V39.5h1.4Zm4.2-1.4h1.4v1.4h-1.4Zm-8.4,0h1.4v1.4h-1.4Zm12.6,1.4h-1.4V39.5h1.4Z"/><path class="cls-2" d="M50.74,16.06a.7.7,0,0,0-1-.27l-6.3,3.5a.7.7,0,0,0,.68,1.22l6.3-3.5a.7.7,0,0,0,.27-1Z"/><path class="cls-2" d="M43.83,15h.7v.7a.7.7,0,1,0,1.4,0V15h.7a.7.7,0,0,0,0-1.4h-.7v-.7a.7.7,0,0,0-1.4,0v.7h-.7a.7.7,0,0,0,0,1.4Z"/><path class="cls-2" d="M50.83,20.6a.7.7,0,0,0-1.4,0v.7h-.7a.7.7,0,1,0,0,1.4h.7v.7a.7.7,0,0,0,1.4,0v-.7h.7a.7.7,0,0,0,0-1.4h-.7Z"/><path class="cls-2" d="M40.91,16.39H41a.71.71,0,0,0,.69-.58l.7-4.2a.78.78,0,0,0-.11-.54.74.74,0,0,0-.46-.29.71.71,0,0,0-.53.13.68.68,0,0,0-.28.46l-.7,4.2a.7.7,0,0,0,.57.81Z"/><path class="cls-2" d="M50.83,13.6a.7.7,0,1,1-.7-.7.7.7,0,0,1,.7.7"/><path class="cls-2" d="M53.63,18.5a.7.7,0,1,1-.7-.7.7.7,0,0,1,.7.7"/><path class="cls-2" d="M51.53,30.4a.7.7,0,1,1-.7-.7.7.7,0,0,1,.7.7"/><path class="cls-2" d="M15.13,31.1a.7.7,0,1,1-.7-.7.7.7,0,0,1,.7.7"/><path class="cls-2" d="M48.73,11.5a.7.7,0,1,1-.7-.7.7.7,0,0,1,.7.7"/><path class="cls-2" d="M15.47,15.79A.7.7,0,1,0,14.79,17l6.3,3.5a.7.7,0,0,0,.68-1.22Z"/><path class="cls-2" d="M18.63,15h.7v.7a.7.7,0,0,0,1.4,0V15h.7a.7.7,0,0,0,0-1.4h-.7v-.7a.7.7,0,0,0-1.4,0v.7h-.7a.7.7,0,0,0,0,1.4Z"/><path class="cls-2" d="M13,21.3a.7.7,0,0,0,0,1.4h.7v.7a.7.7,0,1,0,1.4,0v-.7h.7a.7.7,0,1,0,0-1.4h-.7v-.7a.7.7,0,1,0-1.4,0v.7Z"/><path class="cls-2" d="M24.23,16.4h.12a.7.7,0,0,0,.57-.81l-.7-4.2a.69.69,0,0,0-.8-.55.7.7,0,0,0-.58.79l.7,4.2a.71.71,0,0,0,.69.58Z"/><path class="cls-2" d="M15.83,13.6a.7.7,0,1,1-.7-.7.7.7,0,0,1,.7.7"/><path class="cls-2" d="M13,17.8a.7.7,0,1,1-.7-.7.7.7,0,0,1,.7.7"/><path class="cls-2" d="M17.93,11.5a.7.7,0,1,1-.7-.7.7.7,0,0,1,.7.7"/><path class="cls-2" d="M50.82,26.11A.7.7,0,0,0,50,25.5l-5.6.7a.71.71,0,0,0-.61.74.7.7,0,0,0,.7.66h.09l5.6-.7A.69.69,0,0,0,50.82,26.11Z"/><path class="cls-2" d="M20,28.3a.7.7,0,0,0,.17-1.38l-5.6-1.4a.66.66,0,0,0-.53.08.72.72,0,0,0-.33.43.7.7,0,0,0,.52.85l5.6,1.4.17,0Z"/></g></g></svg>