<svg xmlns="http://www.w3.org/2000/svg" viewBox="0 0 65 65"><defs><style>.cls-1{fill:#1e275a;}.cls-2{fill:#f207a1;fill-rule:evenodd;}</style></defs><g id="Livello_2" data-name="Livello 2"><g id="Livello_3" data-name="Livello 3"><circle class="cls-1" cx="32.5" cy="32.5" r="32.5"/><path class="cls-2" d="M35.31,34H41.6V31.53H35.31Zm0,4.93H41.6V36.46H35.31Zm0,4.93H41.6V41.4H35.31ZM46.63,32.15V41.4a10,10,0,0,1-10.06,9.86H34.44A12.31,12.31,0,0,1,26,48a11.84,11.84,0,0,1-3.74-8.11L22,34H21.3a2.51,2.51,0,0,0-2.25,1.36l-.91,1.79,1.39.68L18.4,40l-5-2.47,1.13-2.21,1.39.68.91-1.78h0a5,5,0,0,1,1.85-2,5.13,5.13,0,0,1,2.65-.73h.58l-.16-3.35a12.11,12.11,0,0,0-3.64-8.11l-.37-.36V17.59a2.46,2.46,0,0,1,1.77-2.36,29.24,29.24,0,0,1,8.29-1,29.1,29.1,0,0,1,8.28,1,2.56,2.56,0,0,1,1.29.89,2.45,2.45,0,0,1,.49,1.47v2.12l-.37.36A12.32,12.32,0,0,0,35,23.43l-2.27-1.07a14.94,14.94,0,0,1,2.55-3.66V17.59a26.73,26.73,0,0,0-7.54-.86,26.82,26.82,0,0,0-7.55.86V18.7a14.51,14.51,0,0,1,4,9.37l.54,11.67h0a9.39,9.39,0,0,0,3,6.43,9.78,9.78,0,0,0,6.69,2.63h2.13a7.48,7.48,0,0,0,7.54-7.4V32.15a5.6,5.6,0,0,0-5.65-5.55,5.71,5.71,0,0,0-4,1.62,5.52,5.52,0,0,0-1.66,3.93V43.86H30.28V32.15a8.18,8.18,0,0,1,16.35,0Z"/></g></g></svg>