<svg xmlns="http://www.w3.org/2000/svg" viewBox="0 0 65 65"><defs><style>.cls-1{fill:#1e275a;}.cls-2{fill:#f207a1;}</style></defs><g id="Livello_2" data-name="Livello 2"><g id="Livello_3" data-name="Livello 3"><circle class="cls-1" cx="32.5" cy="32.5" r="32.5"/><path class="cls-2" d="M50.46,47.26V33.2a5.26,5.26,0,0,0-5.38-5.13h-.94l1.76-8.2L39.38,9H21.59L15.08,19.87,22.18,53H52V49.33a2.2,2.2,0,0,0-1.54-2.07ZM48.93,33.2V47.13H47.39V33.2a5,5,0,0,0-1.55-3.59A3.72,3.72,0,0,1,48.93,33.2Zm-3.08,0V47.13H32V33.2a3.76,3.76,0,0,1,3.84-3.67H42A3.76,3.76,0,0,1,45.85,33.2Zm-3.28-5.13H40.33l1.54-7.34h2.26Zm-3.72-17,4.91,8.21H41.68l-4.13-6.56Zm-1.45-.59-1.15,1.46H24.72l-1.15-1.46Zm-15.28.59,1.3,1.65L19.3,19.27H17.21Zm-5.29,9.67h2.26L25,49.1l-1.78,1.69ZM29,51.53H24.66l1.53-1.46H29Zm.13-2.93H26.51l-6-28.46,4.23-6.74H36.19l4.24,6.74-1.67,7.93h-2.9a5.26,5.26,0,0,0-5.37,5.13V47.26a2.26,2.26,0,0,0-1.41,1.34Zm21.38,2.93h-20v-2.2a.75.75,0,0,1,.76-.73H49.69a.75.75,0,0,1,.77.73Z"/><path class="cls-2" d="M34.33,34.67h9.22v1.46H34.33Z"/><path class="cls-2" d="M34.33,40.53h2.3V42h-2.3Z"/><path class="cls-2" d="M38.17,40.53h5.38V42H38.17Z"/><path class="cls-2" d="M34.33,43.47h2.3v1.46h-2.3Z"/><path class="cls-2" d="M38.17,43.47h5.38v1.46H38.17Z"/></g></g></svg>