<svg xmlns="http://www.w3.org/2000/svg" viewBox="0 0 65 65"><defs><style>.cls-1{fill:#1e275a;}.cls-2{fill:#f207a1;}</style></defs><g id="Livello_2" data-name="Livello 2"><g id="Livello_3" data-name="Livello 3"><circle class="cls-1" cx="32.5" cy="32.5" r="32.5"/><path class="cls-2" d="M51,44.2a.64.64,0,0,0-.62.06l-1.46,1.07-1.74-.62a.61.61,0,0,0-.56.11.58.58,0,0,0-.17.56l.56,1.8-1.12,1.46a.62.62,0,0,0-.06.62.67.67,0,0,0,.51.34h1.85l1.07,1.51a.51.51,0,0,0,.45.23h.06a.56.56,0,0,0,.45-.4l.56-1.79,1.8-.51a.55.55,0,0,0,.39-.45.54.54,0,0,0-.22-.56l-1.52-1.12,0-1.86A.69.69,0,0,0,51,44.2Zm-.78,4a.61.61,0,0,0-.4.33l-.33,1-.57-.84a.51.51,0,0,0-.45-.23h-1l.62-.78a.58.58,0,0,0,.11-.51l-.33-1,.95.33a.53.53,0,0,0,.51-.05l.84-.62-.06,1a.51.51,0,0,0,.23.45l.84.56Z"/><path class="cls-2" d="M12.2,40.49l-.62,1.75a.61.61,0,0,0,.12.56.58.58,0,0,0,.56.17l1.8-.57,1.46,1.13a.86.86,0,0,0,.33.11.33.33,0,0,0,.23-.06.64.64,0,0,0,.34-.5V41.23L18,40.16a.58.58,0,0,0-.17-1l-1.74-.62-.51-1.8a.58.58,0,0,0-1-.17l-1.12,1.52L11.58,38a.58.58,0,0,0-.5.28.53.53,0,0,0,.05.62Zm1.52-1.23a.51.51,0,0,0,.45-.23l.62-.84.28,1a.59.59,0,0,0,.33.39l1,.34-.84.56a.51.51,0,0,0-.23.45v1l-.78-.62a1,1,0,0,0-.34-.11H14l-.95.28.33-1a.53.53,0,0,0-.05-.51l-.62-.84Z"/><path class="cls-2" d="M54,35.72a.68.68,0,1,1-.67-.67.67.67,0,0,1,.67.67"/><path class="cls-2" d="M33.72,52.57a.68.68,0,1,1-.67-.67.67.67,0,0,1,.67.67"/><path class="cls-2" d="M24.45,40.89a.68.68,0,0,1-1.35,0,.68.68,0,1,1,1.35,0"/><path class="cls-2" d="M16,48.53a2.2,2.2,0,0,0-2.19,2.19A2.19,2.19,0,1,0,16,48.53Zm0,3.26A1.07,1.07,0,0,1,15,50.72,1.07,1.07,0,1,1,16,51.79Z"/><path class="cls-2" d="M45.4,37a2.2,2.2,0,0,0-2.19,2.19,2.2,2.2,0,0,0,4.39,0A2.2,2.2,0,0,0,45.4,37Zm0,3.32a1.07,1.07,0,0,1-1.06-1.07,1.07,1.07,0,1,1,2.13,0A1.07,1.07,0,0,1,45.4,40.33Z"/><path class="cls-2" d="M31.25,12a2.19,2.19,0,1,0,4.38,0,2.24,2.24,0,0,0-2.19-2.2A2.16,2.16,0,0,0,31.25,12Zm3.26,0A1.07,1.07,0,0,1,33.44,13a1.07,1.07,0,1,1,0-2.13A1.07,1.07,0,0,1,34.51,12Z"/><path class="cls-2" d="M12,23.14a16.38,16.38,0,0,0,1.68,3.65c2.36,3.59,6.07,5.84,9.61,5.84h.45l.17.22a2.06,2.06,0,0,0,1.35.9,1.14,1.14,0,0,0,.45.06,2,2,0,0,0,1.12-.34l.9-.56,4,6.12L23.78,51.28a.55.55,0,0,0,.16.79,1.38,1.38,0,0,0,.28.11.49.49,0,0,0,.45-.28L32.31,40,40,51.79a.56.56,0,0,0,.45.28.45.45,0,0,0,.28-.11.56.56,0,0,0,.17-.79L33,39,37,32.85l.9.57a2,2,0,0,0,1.12.33,1.38,1.38,0,0,0,.45,0,2.24,2.24,0,0,0,1.35-.9l.17-.23h.45c3.54,0,7.3-2.24,9.6-5.84a12.85,12.85,0,0,0,2.14-8.14,8.24,8.24,0,0,0-3.54-6.35,8.3,8.3,0,0,0-7.25-.62,11.88,11.88,0,0,0-3.82,2.25l0,.05a12.56,12.56,0,0,0-2.65,3c-2.41,3.76-2.86,8.31-1.18,11.57l-.16.22a2.15,2.15,0,0,0-.28,1.58,2.18,2.18,0,0,0,.89,1.34l.9.57L32.37,38l-3.71-5.73.9-.57a2.13,2.13,0,0,0,.62-2.92L30,28.53c1.69-3.26,1.24-7.81-1.23-11.57C25.35,11.67,19.17,9.6,15,12.35a8.18,8.18,0,0,0-3.54,6.29,12.54,12.54,0,0,0,.51,4.5Zm28.37,8.25L36,28.58A8.85,8.85,0,0,1,35,22.29l11.58,7.47a9.11,9.11,0,0,1-6.18,1.63Zm7.36-10.61-5.9,3.53.79-6.85Zm-.68,8-5-3.26L47.82,22Zm-6.4-4.1-5-3.26,5.84-3.54ZM50,26.11a11,11,0,0,1-1.8,2.25L49,21.62l2.42,1.57A12.65,12.65,0,0,1,50,26.11Zm-7.3-13.42a7,7,0,0,1,6.23.5,7.09,7.09,0,0,1,3,5.51,11.43,11.43,0,0,1-.23,3.37l-12-7.76a12.52,12.52,0,0,1,2.92-1.62Zm-6,4.88a13.17,13.17,0,0,1,2.08-2.52l2.47,1.57-5.84,3.59a17.4,17.4,0,0,1,1.29-2.64ZM35.35,30.1a1,1,0,0,1,0-.56l4.33,2.81a1.12,1.12,0,0,1-.51.28,1.07,1.07,0,0,1-.73-.11l-2.75-1.74a1.22,1.22,0,0,1-.39-.68Zm-17.19-.28,11.57-7.53a9.11,9.11,0,0,1-1,6.29l-4.33,2.81a8.84,8.84,0,0,1-6.23-1.57Zm11.18.28a1,1,0,0,1-.45.62l-2.7,1.8a.84.84,0,0,1-.73.11,1.1,1.1,0,0,1-.5-.28l4.32-2.81a.69.69,0,0,1,.06.56ZM27.82,17.57a12.85,12.85,0,0,1,1.63,3.54l-12.25,8a13.27,13.27,0,0,1-2.58-2.92,12.84,12.84,0,0,1-1.41-2.92L25.74,15.1a11.49,11.49,0,0,1,2.08,2.47ZM12.6,18.75a7.08,7.08,0,0,1,3-5.5c2.64-1.74,6.24-1.18,9.21,1.07l-12,7.8a11.29,11.29,0,0,1-.28-3.37Z"/><path class="cls-2" d="M16.19,23.58a1.63,1.63,0,0,0-.45,2.25,1.65,1.65,0,0,0,1.35.73,1.39,1.39,0,0,0,.9-.28,1.52,1.52,0,0,0,.67-1A1.6,1.6,0,0,0,18.44,24a1.76,1.76,0,0,0-2.25-.45Zm1.12,1.8a.49.49,0,0,1-.5-.84c.05-.06.17-.06.28-.06a.37.37,0,0,1,.39.23.52.52,0,0,1-.17.67Z"/><path class="cls-2" d="M22.71,21.28a1.62,1.62,0,1,0-2.7,1.8,1.59,1.59,0,0,0,1.35.67,1.85,1.85,0,0,0,.9-.28,1.52,1.52,0,0,0,.67-1,1.5,1.5,0,0,0-.22-1.18Zm-.9,1a.37.37,0,0,1-.23.28.49.49,0,0,1-.5-.85c.05-.05.17-.05.28-.05s.34.05.39.22S21.86,22.12,21.81,22.24Z"/><path class="cls-2" d="M24.79,18a1.55,1.55,0,0,0-.68,1,2,2,0,0,0,.23,1.23,1.55,1.55,0,0,0,1,.68c.11,0,.22.05.34.05a1.82,1.82,0,0,0,.89-.28A1.63,1.63,0,0,0,27,18.42a1.55,1.55,0,0,0-1-.68,1.81,1.81,0,0,0-1.23.23Zm1.29,1.12a.46.46,0,0,1,.05.39.35.35,0,0,1-.22.28.48.48,0,0,1-.67-.16.47.47,0,0,1,.45-.73h.11a.38.38,0,0,1,.28.22Z"/></g></g></svg>