<?xml version="1.0" encoding="UTF-8"?><svg id="Capa_2" xmlns="http://www.w3.org/2000/svg" viewBox="0 0 1053.89 382.8"><defs><style>.cls-1{fill:#fc0;}.cls-2{fill:#f09;}.cls-3{fill:#09f;}</style></defs><g id="Capa_1-2"><g><path class="cls-2" d="M731.98,89.48c-.61,4.3-1.02,8.39-1.84,12.68-.61,3.27-3.48,4.5-6.14,2.45-3.68-2.86-7.16-6.34-10.43-9.82-2.66-2.86-5.11-5.93-7.77-8.79-8.39-8.59-19.02-9.2-28.84-2.45-11.45,7.98-16.57,19.43-19.43,32.31-1.23,5.52-2.05,11.25-3.07,16.77-.41,1.64-1.02,3.48-1.84,4.7-1.64,2.66-3.89,2.86-6.34,1.02-6.54-4.91-11.86-11.04-16.36-17.79-6.54-9.61-13.29-19.23-17.38-30.07-2.66-6.95-4.7-13.91-6.54-21.07-2.45-9.61-4.7-19.23-10.64-27.41-3.68-5.11-8.18-9.82-12.48-14.32-2.86-2.86-6.14-5.32-9.2-7.77-1.43-1.23-1.43-2.86,.2-4.5,3.27-3.07,7.16-4.3,11.45-5.11,10.02-2.05,18.2,2.45,26.59,6.54,10.64,5.11,15.95,14.32,19.43,24.95,2.51,7.75,5.03,15.72,4.46,23.91l.04,.23c.41,1.02,.82,2.05,1.02,3.07,1.02-.61,2.25-.82,2.86-1.64,7.77-9.82,18.61-14.32,30.07-18,6.14-1.84,12.48-2.86,19.02-2.66,5.11,.2,10.02,0,14.93,.82,3.68,.61,7.36,2.05,10.23,4.3,10.02,7.77,15.95,18,16.98,30.88,0,1.02,.41,2.05,.41,3.27v3.27c.2,.2,.41,.2,.61,.2Z"/><path class="cls-2" d="M247.12,26.79c6.1-.41,11.58,.41,16.87,2.85,7.72,3.25,12.4,9.14,15.04,16.66,4.27,11.79,5.49,23.78,4.27,36.38-1.02,10.97,.81,21.13,10.36,28.45,3.25,2.64,6.71,5.08,9.96,7.72,2.64,2.03,5.08,4.06,7.52,6.3,2.03,1.83,1.83,2.64-.61,3.66-5.89,2.24-11.79,1.83-17.68,.81-8.54-1.42-16.46-4.67-23.78-9.75-.41-.41-1.83,0-2.44,.41-3.05,2.64-6.1,5.28-9.14,7.93-5.08,4.27-11.38,5.89-17.88,5.89s-12.8-.61-19.1-3.05c-6.5-2.64-10.16-7.52-12.19-14.02-4.47-14.02-1.22-26.42,8.33-36.99,2.85-3.05,6.5-5.49,10.16-7.52,9.55-4.88,19.71-7.11,30.48-4.47,2.85,.81,3.25,.41,3.25-2.64,0-3.66,.2-7.52-2.44-10.77-4.88-6.1-11.79-6.91-18.9-4.06-5.49,2.24-8.54,7.11-11.99,11.38-1.83,2.24-3.45,4.67-5.49,6.91-.81,.81-2.44,1.83-3.25,1.63-3.86-1.02-7.93-2.24-11.58-3.86-3.05-1.42-3.45-4.47-2.44-7.11,1.42-4.06,3.25-8.33,5.49-11.99,3.05-5.08,7.52-8.94,12.4-12.4,1.63-1.22,3.45-2.24,5.08-3.45,6.3-4.06,13.01-5.28,19.71-4.88Zm6.68,69.7v-2.64c-.41-4.88-5.28-9.14-9.75-8.33-3.86,.61-7.11,2.44-9.55,5.49-1.22,1.63-2.85,3.25-3.86,5.08-2.85,4.88-4.47,9.96-1.63,15.65,2.24,4.06,8.74,6.91,12.6,4.88,7.93-4.47,11.79-11.18,12.19-20.12Z"/><path class="cls-2" d="M779.55,29.44c5.69,0,11.18,.81,16.46,3.25,7.72,3.45,12.4,9.35,15.04,16.87,4.27,11.58,5.28,23.78,4.06,36.17-1.02,10.97,.81,20.93,10.16,28.25,3.25,2.64,6.71,5.08,9.96,7.72,2.44,2.03,4.88,4.06,7.32,6.1,2.44,2.03,2.24,2.85-.61,4.06-5.89,2.03-11.79,1.63-17.68,.61-8.54-1.63-16.26-4.67-23.37-9.55-.41-.41-1.83,0-2.44,.61-3.05,2.44-5.89,5.28-8.94,7.72-6.91,5.69-15.24,6.91-23.78,5.89-4.47-.61-8.94-1.63-13.41-3.05-6.71-2.03-9.96-7.32-11.99-13.62-4.47-14.02-1.22-26.42,8.33-37.19,2.64-3.05,6.5-5.49,10.16-7.32,9.75-4.88,19.92-7.11,30.69-4.47,2.85,.61,3.25,.41,3.05-2.64,0-3.66,.2-7.52-2.24-10.77-4.88-6.3-11.79-7.32-18.7-4.06-3.25,1.42-6.1,4.27-8.54,6.91-3.25,3.45-5.89,7.32-8.74,11.18-1.42,1.83-3.05,2.44-5.08,1.83-2.85-.81-5.89-1.83-8.54-2.85-3.66-1.42-5.08-4.06-3.86-7.93s2.64-7.72,4.67-10.97c6.5-9.96,15.44-16.66,26.42-20.73,3.46-1.83,7.72-1.63,11.58-2.03Zm4.65,70.11v-2.64c-.41-5.08-5.49-9.35-9.96-8.33-3.86,.81-7.11,2.44-9.55,5.69-1.22,1.63-2.64,3.25-3.66,4.88-2.85,5.08-4.67,10.16-1.42,15.85,2.24,4.06,8.74,6.71,12.6,4.67,7.93-4.47,11.58-11.38,11.99-20.12Z"/><path class="cls-2" d="M548.9,21.92c5.89,0,11.18,1.02,16.46,3.25,7.72,3.45,12.4,9.35,15.04,16.66,4.27,11.79,5.49,23.78,4.27,36.38-1.02,10.97,.81,20.93,10.16,28.25,3.25,2.64,6.71,5.08,9.96,7.72,2.64,2.03,5.28,4.27,7.72,6.5,2.03,1.83,1.63,2.64-.81,3.66-5.89,2.03-11.79,2.03-17.68,.81-8.54-1.63-16.46-4.67-23.78-9.75-.41-.41-1.83,0-2.44,.41-3.05,2.44-5.89,5.28-8.94,7.72-6.71,5.49-14.63,6.91-22.96,5.89-4.67-.41-9.55-1.63-14.02-3.05-6.71-2.03-10.16-7.32-12.19-13.82-4.47-14.02-1.22-26.42,8.33-36.99,2.64-2.85,6.1-5.28,9.55-7.11,9.96-5.08,20.32-7.52,31.5-4.67,2.64,.61,3.05,.2,3.05-2.44,0-3.86,.2-7.72-2.44-10.97-4.88-6.1-11.79-7.11-18.9-3.86-3.25,1.42-6.1,4.27-8.54,6.91-3.25,3.45-5.89,7.32-8.74,10.97-1.42,2.03-3.25,2.64-5.69,1.83-2.64-.81-5.28-1.63-7.93-2.64-3.86-1.42-5.49-4.06-4.27-8.13,1.22-3.86,2.64-7.72,4.88-11.18,6.1-9.55,15.04-16.05,25.4-20.12,4.27-1.83,8.74-1.63,13.01-2.24Zm5.67,70.31v-3.05c-.61-4.88-5.49-9.14-9.96-8.13-3.86,.81-7.11,2.44-9.55,5.69-1.22,1.63-2.64,3.25-3.66,4.88-2.85,5.08-4.67,10.16-1.42,15.85,2.24,4.06,8.74,6.71,12.6,4.67,7.93-4.27,11.58-11.18,11.99-19.92Z"/><path class="cls-2" d="M105.06,80.85c-.41-13.01,4.06-23.98,12.6-33.33,8.74-9.75,18.7-17.68,31.5-20.93,15.65-3.86,30.08-.61,43.08,8.54,2.44,1.63,4.06,4.06,4.27,6.91,.41,4.27,.61,8.54,.2,12.8-.41,4.47-3.86,7.52-8.33,6.91-4.47-.41-8.94-1.63-13.41-2.64-6.91-1.83-14.02-2.24-21.13-1.02-7.11,1.42-11.99,4.88-15.44,11.18-4.27,7.93-5.49,16.05-.2,23.78,5.89,8.74,14.02,14.63,25.4,14.02,1.63,0,3.05-.2,4.67-.2,6.1,0,9.35,2.03,11.58,7.72,2.24,5.69,3.86,11.38,4.06,17.48,0,3.25-1.22,4.47-4.27,5.28-13.82,2.85-27.43,1.02-39.83-5.08-20.12-9.75-35.97-27.23-34.75-51.41Z"/><path class="cls-2" d="M495.25,90.2c-.61,5.89-.61,11.99-2.03,17.88-1.22,5.28-3.86,10.36-6.1,15.44-1.63,3.66-4.67,5.69-8.94,5.49-4.47-.2-7.93-1.83-9.96-5.89-3.45-6.5-3.86-13.41-3.45-20.53,.41-7.11,1.22-14.43,.61-21.54-.81-9.35-8.13-16.05-18.09-16.66-3.45-.2-6.1,1.83-8.54,4.06-7.52,7.11-9.35,15.85-7.93,26.01,1.02,8.54,2.03,17.07-2.24,25-1.22,2.44-3.05,4.88-5.08,6.5-5.69,4.47-9.96,3.86-15.24-2.44-3.86-4.88-5.69-10.77-5.89-16.66-.41-13.62,1.42-27.23,5.28-40.24,3.25-10.97,9.14-20.12,19.1-26.22,7.93-4.88,16.46-6.91,25.4-5.49,8.74,1.22,17.07,3.66,24.79,8.13,7.11,4.27,11.38,10.16,13.41,17.68,3.05,9.35,4.88,19.31,4.88,29.47Z"/><path class="cls-2" d="M335.11,93.8c0,7.11-.2,14.23-2.85,20.93-1.63,4.06-4.47,6.91-8.74,8.33-3.66,1.22-7.11,.61-10.16-2.03-4.67-3.86-6.5-8.94-7.11-14.84-1.02-9.14,0-18.09,1.02-27.23,.81-8.54,2.85-16.66,6.3-24.59,5.28-12.19,14.63-19.31,27.03-21.74,15.65-3.05,30.48-.41,43.9,8.94,7.11,4.88,10.77,12.19,12.19,20.32,.81,3.86,.41,8.13,0,12.19-.7,5.91-4.36,4.09-16.08,3.69l-5.36,.47c-4.51,.71-6.85-2.18-8.44-5.58-.61-1.22-1.22-2.64-1.22-3.86-.61-5.89-5.69-7.32-9.96-7.52-7.72-.2-13.41,3.45-17.07,10.36-2.24,4.27-3.25,8.94-3.25,13.82-.2,2.85-.2,5.69-.2,8.33Z"/><path class="cls-2" d="M825.48,86.74c1.42-8.13,2.24-15.24,3.45-23.37,1.02-6.1,2.24-12.19,2.64-18.49,.81-9.35-2.64-17.68-7.11-25.81-.41-.81-.81-1.42-1.22-2.03-2.64-4.67-2.24-8.54,2.64-11.18,4.67-2.44,9.75-4.67,15.04-5.69,4.27-1.02,7.32,2.64,9.75,6.1,4.67,6.5,6.5,14.02,8.33,21.54,2.03,8.33,1.63,16.66,0,25-1.63,8.13-2.64,16.46-3.25,24.59-.81,12.19,2.44,23.78,8.33,34.34,1.42,2.44,2.44,5.28,3.45,7.93,1.02,3.05,0,5.08-3.05,5.49-2.44,.41-4.88,0-7.32-.2-14.23-2.03-28.25-15.44-30.89-29.06-.61-2.64-.41-5.49-.61-8.33-.2-.2-.2-.81-.2-.81Z"/><path class="cls-1" d="M957.17,92.84c-2.64,0-5.08-.41-7.52-1.42-3.45-1.42-5.49-4.06-6.71-7.32-1.63-4.27-2.44-8.74-2.03-13.41,.2-2.64,.81-5.49,1.63-8.13,1.42-4.47,3.66-8.54,6.5-11.99,3.66-4.47,8.54-6.3,14.43-5.49,1.83,.2,3.66,.61,5.28,1.22,3.05,.81,4.47,3.25,5.49,5.89,2.24,6.71,.41,12.4-4.27,17.27-2.85,2.85-6.71,4.06-10.57,4.88-2.44,.41-4.67,.2-7.11-.41-1.22-.2-1.22,0-1.22,1.02,0,1.63-.2,3.45,1.02,4.88,2.03,2.85,5.28,3.25,8.33,1.83,1.42-.61,2.64-1.83,3.66-2.85,1.42-1.63,2.64-3.45,4.06-5.08,.61-.81,1.42-1.22,2.44-.81,1.22,.41,2.44,.81,3.66,1.22,1.63,.61,2.24,1.83,1.83,3.45-.61,1.63-1.22,3.45-2.03,4.88-2.85,4.47-6.91,7.52-11.79,9.35-1.63,1.02-3.25,.81-5.08,1.02Zm-2.26-31.09v1.22c.2,2.24,2.44,4.06,4.47,3.66,1.63-.41,3.25-1.02,4.27-2.44,.61-.81,1.22-1.42,1.63-2.24,1.22-2.24,2.03-4.47,.61-7.11-1.02-2.03-4.06-3.05-5.89-1.83-3.45,2.03-5.08,4.88-5.08,8.74Z"/><path class="cls-1" d="M940.3,90.2c-.41-1.22-1.02-2.64-1.63-3.86-2.85-5.28-4.47-10.77-4.06-16.66,.2-4.06,.81-7.93,1.63-11.99,.81-4.06,1.02-8.13,0-12.19-.81-3.66-1.83-7.32-4.06-10.57-1.22-1.63-2.64-3.45-4.67-2.85-2.44,.61-5.08,1.63-7.32,2.85-2.24,1.22-2.64,3.05-1.22,5.28,.2,.41,.41,.61,.61,1.02,2.03,3.86,3.86,7.93,3.45,12.4-.2,1.42-.41,2.64-.61,4.06-1.63-.61-3.25-1.22-5.08-1.42-4.88-.41-9.35,.81-13.82,2.85-2.24,1.02-4.27,2.03-5.89,3.86-5.28,5.89-7.52,12.6-5.08,20.53,1.22,3.45,3.05,6.1,6.71,7.72,3.25,1.42,6.71,1.42,9.35,1.83,5.49,0,9.75-1.02,13.01-4.27,.81-.81,1.63-1.63,2.44-2.64,2.85,3.25,6.91,5.69,10.97,6.3,1.22,.2,2.44,.41,3.45,.2,1.83,0,2.24-1.02,1.83-2.44Zm-28.88-6.71c-2.24,1.22-6.1-.41-7.11-2.64-1.83-3.25-.81-6.3,1.22-8.94,1.02-1.42,2.03-2.64,3.25-3.66,1.02-.81,2.64-1.42,4.06-1.63,2.44-.41,5.28,1.83,5.49,4.47v1.63c-.2,4.67-2.44,8.54-6.91,10.77Z"/><path class="cls-3" d="M149.37,213.55c6.91-.41,12.8,.41,18.7,3.05,8.54,3.66,13.82,10.16,16.66,18.49,4.88,13.01,6.1,26.42,4.67,40.24-1.22,12.19,.81,23.37,11.38,31.5,3.66,2.85,7.32,5.69,10.97,8.54,2.85,2.24,5.69,4.67,8.33,7.11,2.24,2.03,1.83,3.05-.81,4.06-6.5,2.44-13.01,2.03-19.51,.81-9.55-1.63-18.29-5.08-26.22-10.77-.61-.41-2.03,0-2.64,.41-3.45,2.85-6.71,5.89-10.16,8.74-5.69,4.67-12.6,6.5-19.71,6.71-7.11,0-14.23-.81-21.13-3.45-7.32-2.85-11.18-8.33-13.41-15.44-4.88-15.44-1.22-29.26,9.14-41.05,3.05-3.45,7.32-6.1,11.38-8.33,10.57-5.49,21.95-7.93,33.94-4.88,3.25,.81,3.66,.41,3.66-3.05,0-4.06,.2-8.33-2.64-11.99-5.28-6.71-13.01-7.52-20.93-4.47-6.1,2.44-9.35,7.72-13.21,12.6-2.03,2.64-3.86,5.28-6.1,7.72-.81,1.02-2.64,2.03-3.66,1.83-4.27-1.22-8.74-2.44-12.8-4.27-3.45-1.42-3.86-4.88-2.64-7.93,1.63-4.47,3.45-9.14,6.1-13.21,3.45-5.69,8.54-9.96,13.82-13.82,1.83-1.22,3.86-2.44,5.69-3.86,6.3-4.27,13.82-5.69,21.13-5.28Zm6.89,77.22v-3.05c-.41-5.49-5.69-10.16-10.77-9.35-4.27,.81-7.93,2.64-10.57,6.1-1.42,1.83-3.05,3.66-4.27,5.69-3.05,5.49-5.08,10.97-1.83,17.27,2.44,4.67,9.75,7.72,14.02,5.28,8.74-4.47,13.01-12.19,13.41-21.95Z"/><path class="cls-3" d="M236.14,269.64c.81,7.11,1.63,14.02-.41,20.93-1.22,4.27-3.66,7.52-7.72,9.35-3.66,1.63-6.91,1.42-10.36-.81-5.08-3.25-7.52-8.13-8.94-13.82-2.03-8.94-2.03-18.09-2.24-27.03-.2-8.54,.81-16.87,3.25-25.2,3.66-12.8,12.19-20.73,24.39-24.79,15.24-4.88,30.28-4.06,44.51,3.66,7.52,4.06,11.99,10.77,14.43,18.7,1.22,3.86,1.42,8.13,1.42,12.19,0,3.45-1.42,4.47-4.67,4.88-5.69,.81-11.58,1.42-17.27,2.03-3.66,.41-5.89-2.03-7.72-4.67-.81-1.22-1.42-2.44-1.83-3.86-1.22-5.69-6.5-6.5-10.77-6.1-7.72,.61-13.01,4.88-15.65,12.19-1.83,4.67-2.24,9.14-1.63,14.02,.61,2.64,.81,5.49,1.22,8.33Z"/><path class="cls-3" d="M379.61,213.15c6.5,0,12.4,1.02,18.29,3.66,8.54,3.66,13.62,10.16,16.66,18.49,4.67,13.01,5.89,26.42,4.67,40.24-1.22,11.99,.81,23.17,11.38,31.3,3.66,2.85,7.32,5.69,10.97,8.54,2.85,2.44,5.69,4.67,8.54,7.11,2.24,2.03,1.83,3.05-.81,3.86-6.5,2.24-13.01,2.24-19.51,.81-9.55-1.83-18.29-5.08-26.22-10.77-.61-.41-2.03,0-2.64,.41-3.45,2.85-6.5,5.89-9.96,8.54-7.52,6.1-16.26,7.52-25.4,6.71-5.28-.61-10.57-1.83-15.65-3.45-7.52-2.24-11.18-8.13-13.62-15.24-4.88-15.44-1.22-29.06,9.14-41.05,2.85-3.25,6.71-5.89,10.57-7.93,10.97-5.69,22.56-8.33,34.75-5.28,3.05,.81,3.45,.2,3.45-2.64,0-4.27,.2-8.54-2.64-12.19-5.28-6.91-13.21-7.93-20.73-4.47-3.45,1.63-6.71,4.67-9.35,7.52-3.45,3.86-6.5,8.13-9.55,12.19-1.63,2.24-3.66,2.85-6.1,2.03-2.85-1.02-5.89-1.83-8.74-2.85-4.27-1.63-6.1-4.67-4.67-8.94s3.05-8.74,5.28-12.4c6.91-10.57,16.66-17.88,28.25-22.35,3.86-1.22,8.94-1.02,13.62-1.83Zm6.28,77.83v-3.25c-.61-5.49-6.1-9.96-10.97-8.94-4.27,.81-7.93,2.85-10.57,6.3-1.42,1.83-2.85,3.45-4.06,5.49-3.05,5.49-5.08,11.18-1.63,17.48,2.44,4.47,9.55,7.32,13.82,5.08,8.74-4.67,13.01-12.4,13.41-22.15Z"/><path class="cls-3" d="M530.81,264.16c-.61,6.5-.81,13.41-2.24,19.71-1.42,5.89-4.27,11.58-6.71,17.07-1.83,3.86-5.08,6.3-9.75,6.1-4.88-.2-8.74-2.03-11.18-6.5-3.66-7.11-4.27-14.84-3.66-22.76,.61-7.93,1.42-16.05,.81-23.78-.81-10.36-9.14-17.88-19.92-18.49-3.66-.2-6.71,2.03-9.35,4.47-8.54,7.93-10.36,17.68-8.94,28.65,1.22,9.35,2.24,18.9-2.44,27.84-1.42,2.64-3.45,5.28-5.69,7.11-6.5,4.88-10.97,4.27-16.87-2.64-4.27-5.28-6.3-11.79-6.5-18.49-.41-15.24,1.63-30.08,5.89-44.71,3.45-12.19,10.16-22.15,21.13-29.06,8.74-5.49,18.09-7.52,28.25-6.1,9.75,1.42,18.9,4.06,27.43,9.14,7.93,4.67,12.8,11.18,15.04,19.51,2.64,10.57,4.88,21.54,4.67,32.92Z"/><path class="cls-3" d="M981.96,191c6.3,0,12.4,1.02,18.29,3.66,8.54,3.86,13.82,10.36,16.66,18.7,4.67,12.8,5.89,26.22,4.67,40.03-1.22,11.99,.81,23.37,11.38,31.3,3.66,2.85,7.32,5.69,10.97,8.54,2.85,2.24,5.49,4.47,8.13,6.91,2.64,2.24,2.44,3.25-.81,4.47-6.5,2.44-13.01,1.83-19.71,.81-9.35-1.63-18.09-5.08-26.01-10.77-.61-.41-2.03,0-2.64,.61-3.45,2.85-6.5,5.89-9.96,8.54-7.72,6.3-16.87,7.52-26.22,6.5-5.08-.61-9.96-1.83-14.84-3.25-7.32-2.24-11.18-8.13-13.41-15.04-5.08-15.65-1.42-29.26,9.35-41.25,3.05-3.45,7.11-6.1,11.18-8.13,10.77-5.49,21.95-7.93,34.14-4.88,3.05,.81,3.45,.41,3.45-2.85,0-4.06,.2-8.33-2.64-11.99-5.28-6.91-13.01-7.93-20.73-4.47-3.66,1.63-6.71,4.67-9.35,7.52-3.66,3.86-6.71,8.13-9.75,12.4-1.63,2.03-3.45,2.64-5.69,1.83-3.25-1.02-6.5-2.03-9.55-3.25-3.86-1.63-5.69-4.47-4.27-8.74,1.22-4.27,2.85-8.54,5.28-12.19,7.11-10.97,17.07-18.49,29.26-22.96,3.86-1.83,8.54-1.63,12.8-2.03Zm5.46,77.63v-3.05c-.41-5.49-5.89-10.36-10.97-9.35-4.27,.81-7.93,2.85-10.57,6.3-1.42,1.83-2.85,3.45-4.06,5.49-3.05,5.49-5.08,11.18-1.63,17.48,2.44,4.47,9.55,7.32,13.82,5.08,8.74-4.67,13.01-12.19,13.41-21.95Z"/><path class="cls-3" d="M655.79,259.68c.61-6.5,.81-13.41,2.24-19.71,1.42-5.89,4.27-11.58,6.71-17.07,1.83-3.86,5.08-6.3,9.75-6.1,4.88,.2,8.74,2.03,11.18,6.5,3.66,7.11,4.27,14.84,3.66,22.76-.61,7.93-1.42,16.05-.81,23.78,.81,10.36,9.14,17.88,19.92,18.49,3.66,.2,6.71-2.03,9.35-4.47,8.54-7.93,10.36-17.68,8.94-28.65-1.22-9.35-2.24-18.9,2.44-27.84,1.42-2.64,3.45-5.28,5.69-7.11,6.5-4.88,10.97-4.27,16.87,2.64,4.27,5.28,6.3,11.79,6.5,18.49,.41,15.24-1.63,30.08-5.89,44.71-3.45,12.19-10.16,22.15-21.13,29.06-8.74,5.49-18.09,7.52-28.25,6.1-9.75-1.42-18.9-4.06-27.43-9.14-7.93-4.67-12.8-11.18-15.04-19.51-2.64-10.77-4.88-21.74-4.67-32.92Z"/><path class="cls-3" d="M807.8,219.65c.2,2.24,.2,4.47-.2,6.5-1.02,6.1-2.44,12.4-3.25,18.9-2.24,14.84-3.66,29.87,.81,44.51,1.83,5.89,4.47,11.38,6.71,17.07,1.22,3.25,2.64,6.3,3.66,9.75,.81,2.85-.2,5.49-3.05,5.69-4.06,.41-8.13,.2-11.99-.81-14.23-4.47-24.18-14.43-29.67-29.26-2.64-7.32-2.24-15.04-1.22-22.56,1.42-10.57,3.66-20.93,5.28-31.5,1.22-8.33,2.03-16.66-.41-24.79-.81-2.85,1.63-3.45,3.25-4.06,3.05-1.02,6.3-1.83,9.35-3.05,3.05-1.02,5.89-2.44,8.74-3.66,1.02-.41,1.83-.81,2.85-1.02,5.49-.81,6.3-.41,7.32,5.49,.81,4.06,1.22,8.33,1.83,12.8Z"/><path class="cls-3" d="M783.41,159.09c5.49,0,8.13,2.85,10.36,5.89,2.24,2.85,4.06,6.1,5.69,9.35,1.63,3.05,.81,5.08-2.24,6.71-7.72,4.27-16.05,6.71-24.59,8.54-.81,.2-2.44-.61-3.05-1.42-1.83-2.64-3.25-5.49-4.67-8.33-3.66-6.91-1.83-12.8,5.49-16.05,4.67-2.03,9.35-3.45,13.01-4.67Z"/><path class="cls-3" d="M80.27,242c2.85-3.25,5.28-6.91,7.72-10.97,5.28-8.94,7.11-18.49,4.88-29.26-2.85-20.12-17.88-32.11-34.75-37.19-10.16-3.05-20.32-2.85-30.28,.81h0c-5.08,.81-9.96,2.85-14.84,5.49-4.67,2.64-5.89,7.32-4.06,13.41,.2,.81,.61,1.83,.81,2.64,2.85,10.36,5.08,20.93,2.85,32.31-1.42,7.52-3.45,14.84-5.28,22.35-2.44,9.75-4.27,18.49-6.5,28.25,0,.2-.2,.81-.2,1.22-.2,3.45-.61,6.91-.61,10.36,.41,12.6,6.5,25.4,14.84,33.12,.61,.81,1.63,1.63,2.64,2.24,2.24,1.63,4.67,2.85,7.11,3.66,.2,0,.61,.2,.81,.2,10.77,4.47,22.56,5.69,34.95,3.25,12.6-2.64,22.56-9.14,31.09-17.27,8.33-7.72,12.8-16.66,12.4-27.43,.81-16.26-9.35-28.86-23.57-37.19Zm-15.44-45.52c5.28,5.49,5.49,12.4,3.25,19.51-1.63,5.69-5.08,9.35-10.36,11.38-5.49,2.24-10.97,2.64-16.66,2.24-1.22,0-2.64-.2-3.86-.2,2.44-9.35,3.66-18.49,3.05-28.04-.2-4.06-.61-7.93-1.02-11.99,1.22-.2,2.44-.41,3.66-.81,8.94-2.24,16.05,1.42,21.95,7.93Zm5.89,92.06c-3.45,5.08-8.33,8.13-15.24,9.35-7.11,1.22-14.02,.61-20.93-.81-1.22-.2-2.64-.61-3.86-.81-2.24-10.97-2.64-22.35-.61-34.14,.2-1.22,.41-2.24,.61-3.45,1.63,0,13.82-1.02,15.24-1.02,11.38-.61,19.31,4.27,25.2,11.58,5.08,6.1,3.86,12.8-.41,19.31Z"/><path class="cls-3" d="M657.8,375.72c-1.02-3.45-2.24-7.11-3.86-10.16-6.91-14.02-10.57-28.86-9.75-44.71,.61-10.77,1.83-21.54,3.86-32.11,2.03-10.97,2.44-21.74,0-32.72-2.03-9.75-4.27-19.71-9.55-28.04-.41-.81-1.42-1.83-2.64-2.85-6.5-8.33-16.05-13.82-28.04-15.04-13.21-1.22-25.4,2.24-37.19,7.32-5.69,2.44-11.38,5.49-15.65,10.36-14.43,15.85-20.32,33.94-13.62,55.07,3.05,9.35,8.13,16.66,17.88,20.53,8.94,3.66,18.09,4.06,25.2,4.88,11.58,0,21.13-1.83,29.26-7.11,0,.2,0,.61-.2,.81-1.42,10.57-2.44,18.49-4.06,29.06v2.64c.2,3.66,.2,7.32,.81,10.77,3.05,17.68,19.31,34.95,35.56,37.8,2.85,.41,5.69,.81,8.33,.41,3.66-.41,4.88-3.05,3.66-6.91Zm-66.02-93.48c-6.1,3.25-16.05-.81-19.31-6.91-4.67-8.94-1.83-16.87,3.25-24.18,2.64-3.66,5.49-7.32,8.94-9.96,3.05-2.24,6.91-3.86,10.77-4.67,6.5-1.42,14.02,5.08,14.84,12.19,.2,1.42,.2,2.85,.2,4.06-1.02,13.21-6.91,23.37-18.7,29.47Z"/><path class="cls-3" d="M820.75,274.85l.03-.54c1.83-9.55,2.84-18.08,4.47-27.63,1.22-7.32,2.85-14.43,3.45-21.74,1.22-11.18-3.45-20.93-9.14-30.48-.41-.81-1.22-1.63-1.63-2.44-3.45-5.49-2.85-10.16,3.25-13.21s12.8-5.49,19.51-6.91c5.69-1.02,9.35,3.05,12.6,7.11,5.89,7.72,8.54,16.66,10.77,25.61,2.64,9.96,2.24,19.71,0,29.67-2.24,9.55-3.45,19.31-4.27,29.06-1.02,14.43,3.25,28.04,10.97,40.64,1.83,2.85,3.25,6.1,4.47,9.35,1.42,3.45,0,5.89-4.06,6.5-3.05,.41-6.3,.2-9.55-.41-18.29-2.44-36.58-18.09-40.03-34.34-.64-3.41-.61-6.82-.84-10.24Z"/><path class="cls-3" d="M877.65,267.92l.03-.52c1.83-10.36,2.84-19.71,4.47-30.28,1.22-7.93,2.85-15.85,3.45-23.98,1.22-12.19-3.45-22.96-9.14-33.33-.41-1.02-1.22-1.83-1.63-2.64-3.45-5.89-2.85-11.18,3.25-14.43s12.8-6.1,19.51-7.52c5.69-1.22,9.35,3.45,12.6,7.72,5.89,8.33,8.54,18.29,10.77,28.04,2.64,10.77,2.24,21.54,0,32.52-2.24,10.57-3.45,21.13-4.27,31.91-1.02,15.85,3.25,30.69,10.97,44.51,1.83,3.25,3.25,6.71,4.47,10.16,1.42,3.86,0,6.5-4.06,7.11-3.05,.41-6.3,.2-9.55-.41-18.29-2.64-36.58-19.92-40.03-37.6-.64-3.61-.61-7.45-.84-11.27Z"/><path class="cls-3" d="M274.12,311.65c0,6.3,0,12.6-2.44,18.49-1.42,3.66-4.06,6.3-7.72,7.32-3.25,1.02-6.3,.61-8.94-1.63-4.06-3.45-5.89-7.93-6.3-13.21-.81-8.13,0-16.05,.81-24.18,.81-7.52,2.44-14.84,5.49-21.95,4.67-10.77,13.01-17.07,23.98-19.31,13.82-2.64,27.03-.41,39.02,7.93,6.3,4.47,9.55,10.77,10.77,18.09,.61,3.45,.41,7.32,0,10.77-.6,4.51-2.98,4.13-10.42,3.46l-8.92,.36c-3.75,.42-5.77-2.19-7.08-5.04-.61-1.02-1.02-2.24-1.22-3.45-.61-5.28-5.08-6.5-8.94-6.5-6.91-.2-11.99,3.05-15.24,9.14-2.03,3.86-2.85,7.93-2.85,12.19v7.52Z"/></g></g></svg>